<svg width="64" height="65" viewBox="0 0 64 65" fill="none" xmlns="http://www.w3.org/2000/svg">
<g clip-path="url(#clip0_406_2751)">
<path d="M9.65772 59.7842C9.54214 59.7841 9.42973 59.7464 9.33742 59.6769C9.2451 59.6073 9.17788 59.5097 9.14587 59.3986C9.11387 59.2875 9.11881 59.1691 9.15995 59.0611C9.20109 58.953 9.27621 58.8613 9.37399 58.7997L12.6124 56.7634L7.50412 59.7096C7.38407 59.7757 7.24318 59.793 7.11067 59.7581C6.97816 59.7231 6.86421 59.6384 6.79245 59.5216C6.7207 59.4049 6.69664 59.265 6.72528 59.131C6.75391 58.9969 6.83304 58.8791 6.94625 58.8018L22.5516 48.6162L3.58945 59.5645C3.46822 59.6315 3.32566 59.6488 3.19195 59.6125C3.05823 59.5763 2.94386 59.4895 2.87304 59.3704C2.80221 59.2514 2.78049 59.1094 2.81247 58.9746C2.84445 58.8398 2.92763 58.7228 3.04439 58.6482L5.88919 56.9042L2.42465 58.9032C2.30349 58.9714 2.16047 58.9897 2.02606 58.954C1.89165 58.9183 1.77649 58.8315 1.70512 58.7122C1.63376 58.5928 1.61184 58.4503 1.64403 58.315C1.67622 58.1797 1.75998 58.0624 1.87745 57.988L14.2775 50.2728L1.55745 57.6168C1.43623 57.6898 1.29098 57.7116 1.15365 57.6775C1.01633 57.6434 0.898174 57.5561 0.825187 57.4349C0.752199 57.3137 0.730356 57.1684 0.764462 57.0311C0.798569 56.8938 0.885832 56.7756 1.00705 56.7026L18.1601 45.9709L1.36545 55.6658C1.24495 55.7302 1.10432 55.7459 0.972585 55.7097C0.840845 55.6734 0.728041 55.588 0.657442 55.471C0.586843 55.3541 0.563833 55.2144 0.59316 55.081C0.622486 54.9475 0.701912 54.8304 0.815053 54.7538L22.4428 41.1144L1.36545 53.2829C1.24436 53.3476 1.10298 53.3631 0.97073 53.3262C0.838481 53.2893 0.725557 53.2029 0.655463 53.0848C0.585369 52.9667 0.563506 52.8262 0.594425 52.6924C0.625344 52.5587 0.706662 52.442 0.821453 52.3666L10.6017 46.3762L1.36545 51.7096C1.24475 51.775 1.10347 51.7913 0.971036 51.7551C0.838598 51.719 0.725194 51.6332 0.654423 51.5156C0.583652 51.3979 0.560965 51.2575 0.591083 51.1236C0.621201 50.9897 0.701804 50.8725 0.81612 50.7965L21.4295 37.8429L1.36545 49.4237C1.24436 49.4935 1.1007 49.513 0.965376 49.478C0.830056 49.4429 0.713898 49.3562 0.641899 49.2364C0.5699 49.1166 0.547816 48.9733 0.580399 48.8373C0.612982 48.7014 0.697627 48.5837 0.81612 48.5096L20.1303 36.4232L1.36545 47.2573C1.24461 47.325 1.10217 47.343 0.968266 47.3076C0.834362 47.2721 0.719502 47.186 0.647991 47.0674C0.576481 46.9487 0.553929 46.8069 0.585109 46.672C0.616289 46.537 0.698753 46.4195 0.815053 46.3442L22.2572 32.8296L1.36545 44.8925C1.24395 44.9617 1.10011 44.9805 0.964915 44.9447C0.829723 44.9089 0.713997 44.8214 0.642663 44.7012C0.57133 44.5809 0.550097 44.4374 0.583538 44.3016C0.616979 44.1658 0.702419 44.0486 0.821453 43.9752L10.6668 37.941L1.36545 43.3128C1.24475 43.3781 1.10347 43.3945 0.971036 43.3583C0.838598 43.3222 0.725194 43.2364 0.654423 43.1188C0.583652 43.0011 0.560965 42.8607 0.591083 42.7268C0.621201 42.5929 0.701804 42.4757 0.81612 42.3997L20.526 30.0562L1.36545 41.1122C1.24461 41.1799 1.10217 41.198 0.968266 41.1625C0.834362 41.1271 0.719502 41.0409 0.647991 40.9223C0.576481 40.8037 0.553929 40.6619 0.585109 40.5269C0.616289 40.3919 0.698753 40.2744 0.815053 40.1992L22.5452 26.4786L1.36545 38.7069C1.24441 38.7774 1.10047 38.7975 0.964745 38.7628C0.829022 38.728 0.712414 38.6413 0.64012 38.5213C0.567597 38.4019 0.544847 38.2587 0.576763 38.1227C0.608678 37.9866 0.692711 37.8686 0.810786 37.7938L21.8476 24.485L1.36545 36.3101C1.24436 36.3799 1.1007 36.3994 0.965376 36.3644C0.830056 36.3293 0.713898 36.2426 0.641899 36.1228C0.5699 36.003 0.547816 35.8597 0.580399 35.7237C0.612982 35.5878 0.697627 35.4701 0.81612 35.396L18.0727 24.5714L1.36545 34.2162C1.24495 34.2806 1.10432 34.2963 0.972585 34.2601C0.840845 34.2238 0.728041 34.1384 0.657442 34.0214C0.586843 33.9044 0.563833 33.7648 0.59316 33.6314C0.622486 33.4979 0.701912 33.3808 0.815053 33.3042L17.6887 22.6856L1.36545 32.1096C1.24449 32.1725 1.10401 32.1867 0.972887 32.1493C0.841765 32.1119 0.729958 32.0256 0.660445 31.9083C0.590933 31.791 0.568994 31.6515 0.599138 31.5185C0.629281 31.3856 0.709218 31.2692 0.82252 31.1933L1.47532 30.7954L1.36865 30.8584C1.24841 30.9255 1.10683 30.9436 0.973573 30.9088C0.840313 30.8739 0.725704 30.7888 0.653745 30.6714C0.581786 30.5539 0.558058 30.4132 0.58753 30.2787C0.617001 30.1441 0.697387 30.0262 0.811853 29.9496L19.0764 18.2802L1.36545 28.5053C1.24492 28.5727 1.10294 28.5907 0.969407 28.5555C0.83587 28.5203 0.721179 28.4347 0.649463 28.3167C0.577746 28.1987 0.554597 28.0575 0.584883 27.9228C0.61517 27.788 0.696533 27.6703 0.811853 27.5944L17.7431 16.772L1.36545 26.228C1.24512 26.2941 1.1039 26.3113 0.971197 26.276C0.838493 26.2407 0.724535 26.1555 0.653053 26.0382C0.58157 25.921 0.558074 25.7807 0.587456 25.6465C0.616838 25.5124 0.696835 25.3947 0.810786 25.3181L17.7623 14.3976L1.36545 23.8632C1.24475 23.9285 1.10347 23.9449 0.971036 23.9087C0.838598 23.8726 0.725194 23.7868 0.654423 23.6692C0.583652 23.5515 0.560965 23.4111 0.591083 23.2772C0.621201 23.1433 0.701804 23.0261 0.81612 22.9501L9.77612 17.3362L1.36545 22.1938C1.24508 22.2638 1.1021 22.284 0.967067 22.25C0.832036 22.2159 0.715662 22.1305 0.642814 22.0118C0.569966 21.8931 0.546421 21.7507 0.57721 21.6149C0.607999 21.4791 0.690681 21.3607 0.807587 21.285L15.1265 11.941L1.36545 19.8845C1.24486 19.9481 1.10449 19.9631 0.973185 19.9264C0.841875 19.8898 0.729594 19.8042 0.659411 19.6873C0.589227 19.5704 0.566469 19.4311 0.595812 19.298C0.625155 19.1648 0.704371 19.048 0.817186 18.9714L2.80225 17.732L1.36545 18.5608C1.24483 18.6271 1.10323 18.6442 0.970277 18.6085C0.83732 18.5729 0.723303 18.4872 0.652075 18.3694C0.580846 18.2516 0.557922 18.1108 0.588099 17.9765C0.618275 17.8422 0.699214 17.7248 0.813987 17.6488L4.46625 15.3362L1.36545 17.1272C1.24551 17.1915 1.10548 17.2076 0.974063 17.1721C0.842646 17.1366 0.729787 17.0521 0.658608 16.9361C0.587428 16.8201 0.563317 16.6812 0.591213 16.5479C0.61911 16.4147 0.696902 16.2972 0.808653 16.2194L6.71265 12.3858L1.36545 15.4728C1.24558 15.5409 1.10396 15.56 0.970302 15.5261C0.836649 15.4921 0.721358 15.4076 0.648627 15.2904C0.575895 15.1733 0.551379 15.0325 0.580221 14.8976C0.609064 14.7628 0.689024 14.6443 0.80332 14.5672L6.94092 10.4765L1.36545 13.6957C1.24515 13.7677 1.1013 13.7895 0.965067 13.7563C0.828831 13.723 0.711162 13.6375 0.637534 13.5182C0.563907 13.3988 0.540246 13.2553 0.571674 13.1186C0.603101 12.9819 0.687088 12.8632 0.805453 12.788L3.22252 11.1954L1.36545 12.2674C1.2464 12.3357 1.10559 12.3555 0.97232 12.3227C0.839047 12.2898 0.723575 12.2068 0.649926 12.091C0.576277 11.9752 0.550124 11.8354 0.576906 11.7008C0.603689 11.5662 0.681346 11.447 0.79372 11.3682L5.01879 8.42209L1.36545 10.5362C1.24709 10.6042 1.10719 10.6241 0.974547 10.592C0.841904 10.5599 0.726613 10.4782 0.652401 10.3637C0.578189 10.2491 0.550705 10.1105 0.575604 9.97634C0.600503 9.84216 0.675892 9.72263 0.786253 9.64235L3.87959 7.41089L1.36545 8.85515C1.24765 8.92213 1.10877 8.94175 0.97703 8.91003C0.845286 8.87831 0.730555 8.79763 0.656142 8.68438C0.581729 8.57113 0.553215 8.43381 0.57639 8.3003C0.599566 8.16678 0.672694 8.0471 0.78092 7.96555L2.29772 6.84129L1.36545 7.37462C1.25155 7.43589 1.11925 7.45367 0.99321 7.42467C0.867166 7.39566 0.755957 7.32184 0.680287 7.21694C0.604617 7.11205 0.569644 6.98323 0.581877 6.85447C0.59411 6.72571 0.652717 6.60579 0.746786 6.51702L2.62732 4.86155L1.36545 5.59009C1.25713 5.65198 1.13053 5.67394 1.00769 5.65214C0.884848 5.63034 0.773536 5.56617 0.693118 5.47078C0.612701 5.3754 0.568268 5.25484 0.56755 5.13008C0.566831 5.00532 0.609873 4.88426 0.689186 4.78795L1.72705 3.53355H1.71959C1.60253 3.53315 1.48885 3.49424 1.39609 3.42282C1.30333 3.35141 1.23665 3.25147 1.20632 3.1384C1.17599 3.02533 1.1837 2.90543 1.22827 2.79718C1.27284 2.68894 1.35178 2.59836 1.45292 2.53942L3.63852 1.27755C3.74686 1.21502 3.87373 1.19256 3.99696 1.2141C4.12018 1.23564 4.23191 1.2998 4.31262 1.39538C4.39332 1.49095 4.43786 1.61185 4.43846 1.73694C4.43905 1.86203 4.39565 1.98335 4.31585 2.07969L3.40172 3.18262L6.74465 1.25622C6.85903 1.19197 6.99307 1.17213 7.12116 1.20049C7.24924 1.22885 7.36238 1.30342 7.43894 1.40995C7.5155 1.51648 7.55012 1.64748 7.53617 1.77793C7.52222 1.90837 7.46068 2.02909 7.36332 2.11702L5.48279 3.77142L9.84439 1.25622C9.96213 1.19065 10.1003 1.1721 10.2312 1.20428C10.3621 1.23646 10.4759 1.31699 10.5498 1.42968C10.6237 1.54238 10.6522 1.67887 10.6296 1.81173C10.607 1.94458 10.5349 2.06395 10.4279 2.14582L8.91532 3.26369L12.3991 1.25622C12.5174 1.18829 12.6573 1.16832 12.79 1.20042C12.9226 1.23252 13.0379 1.31424 13.1121 1.42877C13.1863 1.5433 13.2138 1.68192 13.1889 1.8161C13.164 1.95028 13.0886 2.06981 12.9783 2.15009L9.88492 4.38049L15.3025 1.25622C15.4213 1.19044 15.5608 1.17245 15.6924 1.20593C15.824 1.23941 15.9379 1.32184 16.0108 1.4364C16.0837 1.55096 16.1102 1.68902 16.0848 1.82244C16.0594 1.95585 15.9841 2.07456 15.8743 2.15435L11.6471 5.09622L18.3105 1.25622C18.4305 1.18912 18.5717 1.17093 18.7048 1.20544C18.8378 1.23994 18.9524 1.32448 19.0246 1.44143C19.0969 1.55837 19.1212 1.69868 19.0924 1.8331C19.0637 1.96752 18.9842 2.08566 18.8705 2.16289L16.4513 3.75435L20.7841 1.25622C20.9038 1.18913 21.0447 1.17074 21.1776 1.20488C21.3105 1.23903 21.4251 1.32307 21.4977 1.43954C21.5702 1.55602 21.595 1.69596 21.567 1.83028C21.539 1.9646 21.4603 2.08296 21.3473 2.16075L15.214 6.24822L23.8615 1.25622C23.9815 1.19011 24.1224 1.17274 24.2549 1.20773C24.3874 1.24272 24.5014 1.32738 24.5731 1.44414C24.6449 1.5609 24.6689 1.70081 24.6403 1.83483C24.6117 1.96886 24.5325 2.08671 24.4193 2.16395L18.51 6.00395L26.7297 1.25622C26.8503 1.18989 26.9919 1.17276 27.1249 1.20843C27.2579 1.2441 27.3719 1.32979 27.4431 1.44759C27.5143 1.56538 27.5373 1.70616 27.5071 1.84047C27.4769 1.97477 27.396 2.09221 27.2812 2.16822L23.6407 4.46902L29.2108 1.25622C29.3314 1.19262 29.4718 1.17761 29.6031 1.21428C29.7344 1.25096 29.8467 1.33652 29.9168 1.45341C29.987 1.57029 30.0098 1.70961 29.9804 1.84275C29.9511 1.97589 29.8719 2.09274 29.7591 2.16929L27.7665 3.41089L31.5041 1.25622C31.6243 1.18791 31.7663 1.16891 31.9002 1.20324C32.034 1.23757 32.1494 1.32253 32.2219 1.44023C32.2943 1.55792 32.3183 1.69916 32.2887 1.83417C32.259 1.96918 32.1781 2.08741 32.0631 2.16395L17.7495 11.5026L34.9612 1.56555C35.082 1.49784 35.2245 1.47981 35.3584 1.51526C35.4923 1.5507 35.6071 1.63686 35.6786 1.75549C35.7502 1.87412 35.7727 2.01592 35.7415 2.15088C35.7104 2.28584 35.6279 2.40338 35.5116 2.47862L26.5356 8.10102L36.1921 2.52555C36.3125 2.45937 36.4537 2.44216 36.5864 2.4775C36.7191 2.51284 36.833 2.59801 36.9045 2.71526C36.976 2.83252 36.9995 2.97283 36.9701 3.10698C36.9407 3.24113 36.8607 3.35878 36.7468 3.43542L19.8039 14.3506L37.6908 4.02315C37.8113 3.95578 37.9533 3.93778 38.0868 3.97295C38.2204 4.00811 38.3351 4.0937 38.4068 4.21171C38.4785 4.32972 38.5016 4.47094 38.4714 4.60567C38.4411 4.7404 38.3597 4.85813 38.2444 4.93409L21.3025 15.7629L39.134 5.46849C39.2543 5.40231 39.3955 5.3851 39.5282 5.42043C39.6609 5.45577 39.7749 5.54094 39.8464 5.6582C39.9179 5.77546 39.9414 5.91577 39.912 6.04992C39.8826 6.18407 39.8026 6.30171 39.6887 6.37835L21.4209 18.0477L40.6273 6.95969C40.7488 6.89045 40.8927 6.8717 41.0279 6.90749C41.1631 6.94328 41.2788 7.03074 41.3501 7.15102C41.4215 7.27131 41.4427 7.41481 41.4092 7.5506C41.3758 7.68639 41.2904 7.80361 41.1713 7.87702L40.5335 8.26209L41.4156 7.75329C41.5367 7.68016 41.6818 7.65812 41.8192 7.69203C41.9565 7.72594 42.0747 7.81301 42.1479 7.93409C42.221 8.05517 42.243 8.20034 42.2091 8.33767C42.1752 8.47499 42.0881 8.59323 41.9671 8.66635L25.0999 19.2829L42.7564 9.08875C42.8776 9.01577 43.0229 8.99392 43.1602 9.02803C43.2975 9.06214 43.4157 9.1494 43.4887 9.27062C43.5616 9.39184 43.5835 9.53709 43.5494 9.67442C43.5153 9.81175 43.428 9.9299 43.3068 10.0029L26.0492 20.8274L44.0823 10.4168C44.203 10.3477 44.346 10.3286 44.4806 10.3635C44.6153 10.3984 44.731 10.4845 44.803 10.6034C44.8751 10.7224 44.8979 10.8648 44.8664 11.0003C44.835 11.1358 44.7519 11.2537 44.6348 11.3288L23.6023 24.6376L45.3527 12.0797C45.4735 12.012 45.6159 11.9939 45.7498 12.0294C45.8837 12.0648 45.9986 12.151 46.0701 12.2696C46.1416 12.3883 46.1642 12.5301 46.133 12.665C46.1018 12.8 46.0194 12.9175 45.9031 12.9928L24.1623 26.7197L45.5692 14.3613C45.6899 14.2959 45.8312 14.2796 45.9636 14.3157C46.0961 14.3518 46.2095 14.4377 46.2802 14.5553C46.351 14.6729 46.3737 14.8133 46.3436 14.9472C46.3134 15.0812 46.2328 15.1983 46.1185 15.2744L26.4204 27.6168L45.5692 16.5608C45.6907 16.4915 45.8345 16.4728 45.9697 16.5086C46.1049 16.5443 46.2206 16.6318 46.292 16.7521C46.3633 16.8724 46.3845 17.0159 46.3511 17.1517C46.3177 17.2875 46.2322 17.4047 46.1132 17.4781L36.2508 23.5208L45.5703 18.1405C45.6908 18.0761 45.8314 18.0604 45.9631 18.0966C46.0949 18.1329 46.2077 18.2183 46.2783 18.3353C46.3489 18.4523 46.3719 18.5919 46.3426 18.7253C46.3132 18.8588 46.2338 18.9759 46.1207 19.0525L24.6828 32.5629L45.5713 20.5096C45.692 20.4442 45.8333 20.4278 45.9657 20.464C46.0982 20.5001 46.2116 20.5859 46.2824 20.7036C46.3531 20.8212 46.3758 20.9616 46.3457 21.0955C46.3156 21.2294 46.235 21.3466 46.1207 21.4226L26.8065 33.5037L45.5713 22.6706C45.692 22.6052 45.8333 22.5889 45.9657 22.625C46.0982 22.6612 46.2116 22.747 46.2824 22.8646C46.3531 22.9823 46.3758 23.1226 46.3457 23.2566C46.3156 23.3905 46.235 23.5077 46.1207 23.5837L25.5009 36.5416L45.5724 24.9533C45.6939 24.8841 45.8377 24.8653 45.9729 24.9011C46.1081 24.9369 46.2238 25.0243 46.2952 25.1446C46.3665 25.2649 46.3877 25.4084 46.3543 25.5442C46.3209 25.68 46.2354 25.7972 46.1164 25.8706L36.3457 31.8557L45.5735 26.5288C45.694 26.4644 45.8346 26.4487 45.9663 26.4849C46.0981 26.5211 46.2109 26.6066 46.2815 26.7236C46.3521 26.8405 46.3751 26.9801 46.3458 27.1136C46.3164 27.247 46.237 27.3642 46.1239 27.4408L24.4961 41.0813L43.6407 30.0274C43.7619 29.9544 43.9071 29.9326 44.0445 29.9667C44.1818 30.0008 44.2999 30.0881 44.3729 30.2093C44.4459 30.3305 44.4678 30.4758 44.4337 30.6131C44.3995 30.7504 44.3123 30.8686 44.1911 30.9416L27.038 41.6733L41.758 33.1784C41.8792 33.1101 42.0222 33.0919 42.1566 33.1275C42.291 33.1632 42.4062 33.25 42.4775 33.3693C42.5489 33.4887 42.5708 33.6312 42.5386 33.7665C42.5064 33.9018 42.4227 34.0191 42.3052 34.0936L29.8999 41.812L40.1175 35.9133C40.2385 35.8477 40.3801 35.8314 40.5129 35.8678C40.6456 35.9043 40.7591 35.9906 40.8297 36.1088C40.9002 36.227 40.9223 36.3679 40.8914 36.5021C40.8604 36.6362 40.7788 36.7532 40.6636 36.8285L37.8049 38.5789L38.8908 37.9496C39.0108 37.8834 39.1517 37.8661 39.2842 37.9011C39.4167 37.9361 39.5307 38.0207 39.6025 38.1375C39.6742 38.2542 39.6983 38.3941 39.6696 38.5282C39.641 38.6622 39.5619 38.7801 39.4487 38.8573L23.8412 49.0493L36.6828 41.636C36.8035 41.5706 36.9448 41.5542 37.0772 41.5904C37.2096 41.6265 37.3231 41.7123 37.3938 41.83C37.4646 41.9476 37.4873 42.088 37.4572 42.2219C37.427 42.3559 37.3464 42.473 37.2321 42.549L34.0076 44.5757L35.4017 43.7704C35.5225 43.6967 35.6676 43.674 35.8052 43.7073C35.9427 43.7406 36.0614 43.8272 36.1351 43.948C36.2088 44.0688 36.2314 44.2139 36.1981 44.3514C36.1648 44.4889 36.0783 44.6076 35.9575 44.6813L31.5905 47.4834L34.0151 46.085C34.1347 46.0169 34.276 45.9976 34.4094 46.0312C34.5429 46.0649 34.6582 46.1488 34.7312 46.2655C34.8043 46.3822 34.8293 46.5226 34.8012 46.6573C34.7731 46.7921 34.694 46.9107 34.5804 46.9885L28.1676 51.3288L32.302 48.9426C32.4215 48.8764 32.5618 48.8586 32.6941 48.8929C32.8263 48.9271 32.9404 49.0108 33.0128 49.1267C33.0851 49.2425 33.1103 49.3817 33.083 49.5156C33.0558 49.6495 32.9782 49.7678 32.8663 49.8461L31.2065 50.9629C31.3102 50.9396 31.4184 50.9474 31.5177 50.9854C31.6169 51.0233 31.7027 51.0897 31.7644 51.1762C31.8408 51.2861 31.8731 51.4207 31.855 51.5532C31.8368 51.6858 31.7694 51.8067 31.6663 51.892L27.1916 55.5773L28.9271 54.5768C29.0396 54.511 29.1724 54.4887 29.3003 54.5141C29.4282 54.5396 29.5423 54.611 29.6211 54.7149C29.6999 54.8188 29.7379 54.9479 29.728 55.0779C29.718 55.208 29.6608 55.3298 29.5671 55.4205L27.7836 57.1592C27.8818 57.1905 27.9688 57.2497 28.0341 57.3295C28.0993 57.4093 28.1401 57.5063 28.1514 57.6088C28.1626 57.7113 28.144 57.8148 28.0977 57.9069C28.0513 57.999 27.9793 58.0757 27.8903 58.1277L25.1361 59.7096C25.0236 59.7754 24.8908 59.7977 24.7629 59.7722C24.635 59.7468 24.5209 59.6753 24.4421 59.5714C24.3632 59.4676 24.3252 59.3384 24.3352 59.2084C24.3452 59.0784 24.4024 58.9565 24.4961 58.8658L25.7687 57.6253L22.1591 59.7096C22.0433 59.7752 21.9072 59.7952 21.7775 59.7657C21.6477 59.7361 21.5337 59.6592 21.4578 59.5499C21.3819 59.4406 21.3497 59.3068 21.3673 59.175C21.3849 59.0431 21.4512 58.9225 21.5532 58.837L26.0268 55.1538L18.1335 59.7096C18.014 59.7741 17.8745 59.7907 17.7433 59.756C17.612 59.7212 17.499 59.6378 17.4272 59.5226C17.3554 59.4074 17.3302 59.2691 17.3568 59.136C17.3834 59.0029 17.4597 58.8849 17.5703 58.8061L18.9345 57.892L15.7868 59.7096C15.6675 59.775 15.5276 59.7923 15.396 59.758C15.2643 59.7237 15.1507 59.6404 15.0784 59.525C15.0062 59.4097 14.9808 59.2711 15.0074 59.1377C15.0339 59.0042 15.1105 58.886 15.2215 58.8072L21.6332 54.4658L12.5452 59.7096C12.4247 59.7781 12.2823 59.7971 12.1481 59.7625C12.0139 59.7279 11.8984 59.6423 11.8262 59.5241C11.754 59.4058 11.7306 59.264 11.7611 59.1288C11.7915 58.9936 11.8735 58.8756 11.9895 58.7997L16.3511 55.9997L9.92012 59.7096C9.84061 59.7568 9.75018 59.7825 9.65772 59.7842Z" fill="#BEDCF0"/>
<path d="M39.266 64.0509C39.1508 64.0507 39.0387 64.0132 38.9466 63.944C38.8545 63.8748 38.7872 63.7777 38.7549 63.6671C38.7226 63.5565 38.727 63.4384 38.7674 63.3305C38.8078 63.2225 38.8821 63.1306 38.9791 63.0685L42.8266 60.6066L36.9866 63.9762C36.8661 64.0448 36.7237 64.0637 36.5895 64.0291C36.4553 63.9945 36.3398 63.909 36.2676 63.7907C36.1953 63.6724 36.172 63.5307 36.2025 63.3954C36.2329 63.2602 36.3148 63.1422 36.4308 63.0663L43.5284 58.5117L34.0618 63.9762C33.9414 64.0424 33.8002 64.0596 33.6675 64.0243C33.5348 63.9889 33.4209 63.9037 33.3494 63.7865C33.2779 63.6692 33.2544 63.5289 33.2838 63.3948C33.3132 63.2606 33.3932 63.143 33.5071 63.0663L42.5855 57.2658L30.9844 63.9645C30.8634 64.0376 30.7182 64.0596 30.5809 64.0257C30.4435 63.9918 30.3253 63.9048 30.2522 63.7837C30.179 63.6626 30.157 63.5174 30.1909 63.3801C30.2248 63.2428 30.3119 63.1245 30.433 63.0514L39.0826 57.6114L29.0559 63.397C28.935 63.4636 28.793 63.4807 28.6597 63.4448C28.5264 63.4088 28.4122 63.3225 28.3412 63.2042C28.2702 63.0858 28.2479 62.9445 28.2789 62.8099C28.31 62.6754 28.392 62.5582 28.5076 62.4829L41.7908 54.0285L27.7236 62.149C27.6025 62.2173 27.4595 62.2355 27.325 62.1998C27.1906 62.1641 27.0755 62.0774 27.0041 61.958C26.9328 61.8387 26.9108 61.6962 26.943 61.5609C26.9752 61.4256 27.059 61.3082 27.1764 61.2338L33.4271 57.3607L27.1551 60.9874C27.0335 61.0598 26.888 61.081 26.7508 61.0462C26.6136 61.0113 26.4958 60.9234 26.4234 60.8018C26.351 60.6802 26.3298 60.5347 26.3646 60.3975C26.3994 60.2603 26.4873 60.1425 26.609 60.0701L27.9455 59.2519L26.9695 59.8151C26.8485 59.8807 26.7068 59.897 26.5741 59.8606C26.4413 59.8242 26.3278 59.7378 26.2573 59.6196C26.1868 59.5014 26.1647 59.3605 26.1956 59.2264C26.2266 59.0922 26.3082 58.9753 26.4234 58.8999L28.3434 57.7266L26.9674 58.5202C26.8465 58.5868 26.7044 58.6039 26.5711 58.568C26.4379 58.532 26.3237 58.4457 26.2527 58.3274C26.1817 58.209 26.1594 58.0677 26.1904 57.9331C26.2214 57.7986 26.3034 57.6814 26.4191 57.6061L35.7578 51.7874L26.9652 56.853C26.8445 56.922 26.7015 56.9411 26.5669 56.9062C26.4322 56.8714 26.3165 56.7853 26.2445 56.6663C26.1724 56.5473 26.1496 56.4049 26.1811 56.2694C26.2125 56.1339 26.2956 56.0161 26.4127 55.941L42.113 45.9335L26.9663 54.6802C26.8452 54.7485 26.7021 54.7667 26.5677 54.731C26.4333 54.6953 26.3181 54.6086 26.2468 54.4892C26.1754 54.3699 26.1535 54.2274 26.1857 54.0921C26.2179 53.9568 26.3016 53.8394 26.4191 53.765L33.2084 49.5613L26.9652 53.1634C26.8445 53.2288 26.7033 53.2451 26.5708 53.209C26.4384 53.1728 26.325 53.087 26.2542 52.9694C26.1834 52.8518 26.1608 52.7114 26.1909 52.5774C26.221 52.4435 26.3016 52.3263 26.4159 52.2503L38.3284 44.7623L26.9652 51.3213C26.8449 51.3874 26.7037 51.4047 26.571 51.3693C26.4383 51.334 26.3243 51.2488 26.2528 51.1316C26.1814 51.0143 26.1579 50.874 26.1872 50.7398C26.2166 50.6057 26.2966 50.488 26.4106 50.4114L42.3039 40.2023L26.9631 49.0557C26.8423 49.1202 26.7013 49.1358 26.5694 49.0992C26.4374 49.0626 26.3246 48.9767 26.2542 48.8592C26.1839 48.7417 26.1615 48.6016 26.1916 48.468C26.2217 48.3344 26.302 48.2175 26.4159 48.1415L31.5988 44.9245L26.9652 47.6039C26.8445 47.6729 26.7015 47.6921 26.5669 47.6572C26.4322 47.6223 26.3165 47.5362 26.2445 47.4172C26.1724 47.2983 26.1496 47.1559 26.1811 47.0204C26.2125 46.8849 26.2956 46.767 26.4127 46.6919L37.1124 39.8653L26.9652 45.7266C26.8454 45.7948 26.7037 45.8139 26.5701 45.7799C26.4364 45.7459 26.3211 45.6615 26.2484 45.5443C26.1757 45.4271 26.1512 45.2863 26.18 45.1515C26.2089 45.0166 26.2888 44.8982 26.4031 44.821L39.5338 36.0743L26.9652 43.3255C26.846 43.3918 26.7059 43.4099 26.5737 43.3761C26.4416 43.3422 26.3274 43.259 26.2547 43.1436C26.182 43.0281 26.1563 42.8892 26.1829 42.7554C26.2096 42.6216 26.2864 42.5031 26.3978 42.4242L37.7044 34.677L26.9652 40.8743C26.8456 40.9388 26.7058 40.9551 26.5745 40.92C26.4432 40.8848 26.3302 40.8009 26.2588 40.6853C26.1873 40.5697 26.1626 40.4311 26.1898 40.2979C26.2171 40.1648 26.2941 40.047 26.4052 39.9687L31.5508 36.5629L26.9642 39.2103C26.8438 39.2803 26.7008 39.3005 26.5658 39.2665C26.4308 39.2325 26.3144 39.147 26.2415 39.0283C26.1687 38.9096 26.1451 38.7672 26.1759 38.6314C26.2067 38.4956 26.2894 38.3772 26.4063 38.3015L27.5114 37.5805L26.9642 37.9005C26.845 37.9698 26.7035 37.9903 26.5695 37.9576C26.4355 37.9249 26.3193 37.8416 26.2455 37.725C26.1716 37.6085 26.1458 37.4679 26.1734 37.3328C26.201 37.1976 26.2799 37.0784 26.3935 37.0002L30.3882 34.2322L26.9642 36.2077C26.8465 36.2756 26.7073 36.296 26.575 36.2648C26.4428 36.2336 26.3274 36.153 26.2525 36.0396C26.1776 35.9262 26.1489 35.7885 26.1721 35.6546C26.1953 35.5207 26.2688 35.4007 26.3775 35.3191L30.4618 32.2642L26.9652 34.2813C26.8517 34.3463 26.7181 34.3673 26.5901 34.3403C26.462 34.3132 26.3483 34.24 26.2707 34.1346C26.1931 34.0292 26.157 33.899 26.1692 33.7687C26.1814 33.6384 26.2411 33.5171 26.337 33.4279L29.8666 30.1629L26.9727 31.8333C26.8632 31.8967 26.7347 31.9192 26.6102 31.8966C26.4857 31.8741 26.3732 31.808 26.293 31.7101C26.2127 31.6123 26.1698 31.4891 26.172 31.3625C26.1742 31.236 26.2213 31.1144 26.305 31.0194L27.7524 29.3725C27.6479 29.3843 27.5421 29.366 27.4476 29.3197C27.3531 29.2734 27.2738 29.201 27.2191 29.1111C27.1483 28.9888 27.129 28.8433 27.1654 28.7067C27.2018 28.5701 27.2909 28.4535 27.4132 28.3826L29.9476 26.9191C30.0571 26.8557 30.1856 26.8332 30.3102 26.8558C30.4347 26.8783 30.5471 26.9444 30.6274 27.0423C30.7077 27.1401 30.7505 27.2633 30.7483 27.3899C30.7461 27.5164 30.699 27.638 30.6154 27.733L29.2458 29.2925L33.473 26.8562C33.5866 26.7912 33.7201 26.7702 33.8482 26.7972C33.9762 26.8242 34.0899 26.8974 34.1675 27.0028C34.2451 27.1082 34.2812 27.2385 34.269 27.3688C34.2568 27.4991 34.1971 27.6204 34.1012 27.7095L30.5716 30.9714L37.6991 26.8562C37.8168 26.7883 37.956 26.7678 38.0883 26.7991C38.2205 26.8303 38.3359 26.9108 38.4108 27.0243C38.4857 27.1377 38.5144 27.2754 38.4912 27.4093C38.468 27.5432 38.3945 27.6632 38.2858 27.7447L34.2036 30.7975L41.0303 26.8562C41.1493 26.7897 41.2892 26.7713 41.4213 26.8047C41.5534 26.8382 41.6677 26.9209 41.7408 27.036C41.8138 27.1511 41.84 27.2897 41.814 27.4235C41.788 27.5573 41.7118 27.6761 41.601 27.7554L37.6052 30.5287L43.9626 26.8594C44.0826 26.7933 44.2235 26.7759 44.356 26.8109C44.4885 26.8459 44.6025 26.9306 44.6742 27.0473C44.746 27.1641 44.7701 27.304 44.7414 27.438C44.7128 27.572 44.6337 27.6899 44.5204 27.7671L43.4239 28.4829L46.2388 26.8562C46.3585 26.7917 46.4983 26.7754 46.6296 26.8106C46.7609 26.8457 46.8738 26.9297 46.9453 27.0453C47.0168 27.1609 47.0415 27.2994 47.0143 27.4326C46.987 27.5658 46.91 27.6835 46.7988 27.7618L41.6447 31.1751L49.1199 26.8562C49.2389 26.7921 49.3778 26.7755 49.5085 26.8099C49.6392 26.8443 49.752 26.927 49.8241 27.0413C49.8962 27.1557 49.9221 27.2931 49.8968 27.4258C49.8714 27.5586 49.7965 27.6768 49.6874 27.7565L38.385 35.4962L53.3642 26.8562C53.4839 26.7891 53.6248 26.7707 53.7577 26.8049C53.8906 26.839 54.0052 26.923 54.0777 27.0395C54.1502 27.156 54.1751 27.2959 54.1471 27.4303C54.1191 27.5646 54.0404 27.6829 53.9274 27.7607L40.7978 36.5074L57.5231 26.8562C57.6435 26.7909 57.7844 26.7745 57.9166 26.8103C58.0488 26.8461 58.1622 26.9314 58.2332 27.0485C58.3043 27.1656 58.3275 27.3056 58.2982 27.4393C58.2688 27.5731 58.1892 27.6905 58.0756 27.7671L47.377 34.5938L60.1279 27.2338C60.2493 27.1611 60.3946 27.1396 60.5318 27.174C60.669 27.2084 60.7869 27.2959 60.8596 27.4173C60.9324 27.5386 60.9539 27.6839 60.9195 27.8211C60.8851 27.9584 60.7975 28.0763 60.6762 28.149L55.4964 31.3618L61.297 28.0146C61.4173 27.9484 61.5585 27.9312 61.6912 27.9665C61.8239 28.0019 61.9379 28.0871 62.0094 28.2043C62.0809 28.3216 62.1044 28.4619 62.075 28.596C62.0456 28.7302 61.9656 28.8478 61.8516 28.9245L45.9562 39.1229L62.3743 29.6445C62.4947 29.5817 62.6345 29.5671 62.7653 29.6039C62.896 29.6406 63.0078 29.7258 63.0779 29.8421C63.1479 29.9585 63.171 30.0971 63.1423 30.2299C63.1137 30.3626 63.0355 30.4794 62.9236 30.5565L51.0207 38.0434L62.6346 31.3362C62.7554 31.2717 62.8964 31.2561 63.0283 31.2927C63.1603 31.3293 63.2731 31.4152 63.3435 31.5327C63.4138 31.6502 63.4362 31.7903 63.4061 31.9239C63.376 32.0574 63.2957 32.1743 63.1818 32.2503L56.3722 36.4669L62.6346 32.853C62.755 32.7877 62.8959 32.7713 63.0281 32.8071C63.1603 32.8429 63.2737 32.9282 63.3447 33.0453C63.4157 33.1624 63.439 33.3024 63.4096 33.4361C63.3803 33.5699 63.3006 33.6873 63.1871 33.7639L47.4964 43.765L62.6346 35.0279C62.7555 34.9613 62.8975 34.9442 63.0308 34.9802C63.1641 35.0161 63.2782 35.1024 63.3493 35.2208C63.4203 35.3392 63.4426 35.4805 63.4116 35.615C63.3805 35.7495 63.2985 35.8668 63.1828 35.9421L53.8282 41.7725L62.6346 36.6877C62.7558 36.6206 62.8984 36.6034 63.0321 36.6396C63.1658 36.6759 63.2802 36.7627 63.351 36.8817C63.4218 37.0008 63.4435 37.1427 63.4116 37.2775C63.3796 37.4123 63.2964 37.5294 63.1796 37.6039L61.2714 38.7773L62.6346 37.9911C62.7562 37.9189 62.9016 37.8979 63.0387 37.9328C63.1066 37.95 63.1705 37.9805 63.2266 38.0225C63.2827 38.0644 63.33 38.117 63.3658 38.1773C63.4016 38.2375 63.4251 38.3042 63.4352 38.3735C63.4452 38.4429 63.4414 38.5135 63.4241 38.5814C63.4069 38.6493 63.3764 38.7131 63.3344 38.7693C63.2925 38.8254 63.2399 38.8727 63.1796 38.9085L61.8666 39.7095L62.6356 39.2658C62.7568 39.1975 62.8998 39.1793 63.0342 39.215C63.1687 39.2507 63.2838 39.3374 63.3552 39.4568C63.4265 39.5761 63.4485 39.7186 63.4163 39.8539C63.3841 39.9892 63.3003 40.1066 63.1828 40.181L56.9162 44.0626L62.6356 40.7623C62.7561 40.6971 62.897 40.6806 63.0292 40.7164C63.1614 40.7522 63.2747 40.8375 63.3458 40.9546C63.4168 41.0717 63.4401 41.2117 63.4107 41.3455C63.3814 41.4793 63.3017 41.5966 63.1882 41.6733L49.9007 50.1298L62.6346 42.7783C62.7554 42.7106 62.8979 42.6926 63.0318 42.728C63.1657 42.7635 63.2805 42.8496 63.352 42.9683C63.4235 43.0869 63.4461 43.2287 63.4149 43.3637C63.3837 43.4986 63.3013 43.6162 63.185 43.6914L54.545 49.1314L62.6378 44.4594C62.7583 44.392 62.9003 44.374 63.0338 44.4092C63.1674 44.4444 63.2821 44.53 63.3538 44.648C63.4255 44.766 63.4486 44.9072 63.4184 45.0419C63.3881 45.1766 63.3067 45.2944 63.1914 45.3703L54.1044 51.1762L62.6378 46.2525C62.7585 46.1817 62.9021 46.1613 63.0378 46.1954C63.1734 46.2296 63.2902 46.3158 63.363 46.4352C63.4357 46.5547 63.4586 46.698 63.4267 46.8342C63.3948 46.9704 63.3107 47.0886 63.1924 47.1634L56.098 51.7159L62.6378 47.941C62.7583 47.8736 62.9003 47.8556 63.0338 47.8908C63.1674 47.926 63.2821 48.0116 63.3538 48.1296C63.4255 48.2476 63.4486 48.3888 63.4184 48.5235C63.3881 48.6582 63.3067 48.776 63.1914 48.8519L59.3386 51.3159L62.6378 49.4119C62.7584 49.3381 62.9035 49.3152 63.041 49.3483C63.1785 49.3814 63.2973 49.4678 63.3711 49.5885C63.445 49.7091 63.4678 49.8542 63.4347 49.9917C63.4016 50.1292 63.3152 50.248 63.1946 50.3218L59.4431 52.7538L62.6378 50.9095C62.757 50.8402 62.8985 50.8197 63.0325 50.8524C63.1665 50.8851 63.2826 50.9684 63.3565 51.085C63.4303 51.2015 63.4562 51.3421 63.4286 51.4772C63.401 51.6124 63.3221 51.7316 63.2084 51.8098L56.2666 56.6215L62.6346 52.9458C62.752 52.879 62.8904 52.8592 63.0218 52.8904C63.1532 52.9217 63.2679 53.0017 63.3427 53.1142C63.4174 53.2267 63.4467 53.3634 63.4245 53.4967C63.4024 53.63 63.3305 53.7499 63.2234 53.8322L56.6559 58.8167L62.6292 55.365C62.7478 55.299 62.8871 55.2806 63.0187 55.3137C63.1503 55.3467 63.2643 55.4287 63.3376 55.5429C63.4109 55.6571 63.4379 55.795 63.4131 55.9284C63.3883 56.0618 63.3136 56.1807 63.2042 56.261L61.6532 57.3629L62.6356 56.7965C62.753 56.731 62.8908 56.7122 63.0214 56.7439C63.152 56.7756 63.2658 56.8554 63.34 56.9675C63.4143 57.0795 63.4436 57.2154 63.4219 57.348C63.4003 57.4807 63.3294 57.6003 63.2234 57.6829L61.8175 58.7495L62.6356 58.2781C62.7442 58.2163 62.8709 58.1945 62.9939 58.2166C63.1168 58.2387 63.228 58.3032 63.3083 58.3989C63.3885 58.4946 63.4326 58.6155 63.4329 58.7404C63.4331 58.8652 63.3896 58.9863 63.3098 59.0823L61.2554 61.5229L61.9615 61.1154C62.0834 61.0516 62.2252 61.0374 62.3573 61.0758C62.4894 61.1141 62.6016 61.202 62.6705 61.3211C62.7393 61.4402 62.7595 61.5813 62.7267 61.7149C62.694 61.8485 62.6109 61.9643 62.4948 62.0381L59.1519 63.9677C59.0433 64.0301 58.9161 64.0522 58.7928 64.0302C58.6695 64.0083 58.5578 63.9436 58.4774 63.8475C58.397 63.7514 58.3529 63.6301 58.353 63.5048C58.3531 63.3796 58.3973 63.2583 58.4778 63.1623L60.53 60.7293L54.8938 63.9762C54.7764 64.043 54.638 64.0628 54.5065 64.0316C54.3751 64.0003 54.2604 63.9203 54.1857 63.8078C54.1109 63.6953 54.0817 63.5586 54.1038 63.4253C54.126 63.292 54.1979 63.1721 54.305 63.0898L55.7098 62.0231L52.3338 63.9762C52.2155 64.0403 52.0773 64.0573 51.947 64.0238C51.8166 63.9903 51.7038 63.9087 51.6311 63.7955C51.5583 63.6823 51.5311 63.5458 51.5548 63.4133C51.5785 63.2808 51.6514 63.1622 51.7588 63.0813L53.3215 61.9698L49.8463 63.9762C49.7289 64.043 49.5905 64.0628 49.4591 64.0316C49.3277 64.0003 49.213 63.9203 49.1382 63.8078C49.0635 63.6953 49.0342 63.5586 49.0564 63.4253C49.0785 63.292 49.1504 63.1721 49.2575 63.0898L55.8239 58.1095L45.6532 63.9762C45.5343 64.0427 45.3944 64.0611 45.2622 64.0277C45.1301 63.9942 45.0158 63.9115 44.9428 63.7964C44.8698 63.6813 44.8436 63.5427 44.8696 63.4089C44.8955 63.2751 44.9718 63.1563 45.0826 63.077L52.0223 58.2621L42.1279 63.9762C42.0077 64.0434 41.8661 64.0614 41.7328 64.0266C41.5996 63.9917 41.485 63.9067 41.413 63.7892C41.341 63.6718 41.3173 63.5311 41.3468 63.3965C41.3763 63.2619 41.4566 63.144 41.5711 63.0674L45.3236 60.6343L39.5327 63.9762C39.4519 64.0241 39.36 64.0499 39.266 64.0509Z" fill="#F2CF7E"/>
<path d="M48.0332 41.8461C47.9368 41.8461 47.8422 41.82 47.7594 41.7705C47.6767 41.7211 47.6089 41.6501 47.5633 41.5652C47.5177 41.4803 47.4959 41.3846 47.5003 41.2883C47.5047 41.192 47.5352 41.0987 47.5884 41.0184L48.5484 39.572C48.4238 39.6159 48.2873 39.612 48.1654 39.5611C48.0435 39.5102 47.9449 39.4158 47.8885 39.2963C47.8322 39.1768 47.8223 39.0406 47.8606 38.9142C47.899 38.7878 47.9829 38.6801 48.0961 38.612L49.9681 37.5304C50.0722 37.4702 50.1936 37.447 50.3125 37.4645C50.4314 37.482 50.541 37.5392 50.6233 37.6267C50.7057 37.7143 50.7561 37.8271 50.7663 37.9469C50.7765 38.0667 50.7459 38.1864 50.6796 38.2866L49.7302 39.7192L51.9809 38.42C52.1033 38.3504 52.2483 38.332 52.3842 38.3689C52.5202 38.4058 52.636 38.495 52.7064 38.6169C52.7768 38.7389 52.7961 38.8838 52.7601 39.0199C52.7241 39.1561 52.6357 39.2725 52.5142 39.3437L48.302 41.7757C48.2204 41.823 48.1275 41.8474 48.0332 41.8461Z" fill="#F9F5E6"/>
<path d="M32.0767 53.5464C31.9616 53.5463 31.8496 53.509 31.7575 53.44C31.6653 53.3711 31.598 53.2741 31.5654 53.1637C31.5329 53.0533 31.537 52.9354 31.577 52.8275C31.6171 52.7195 31.691 52.6275 31.7877 52.565L35.1029 50.4178L32.7466 51.78C32.6282 51.8479 32.4883 51.8679 32.3557 51.8358C32.223 51.8037 32.1077 51.722 32.0335 51.6074C31.9593 51.4929 31.9318 51.3543 31.9567 51.2201C31.9816 51.0859 32.057 50.9664 32.1674 50.8861L36.2869 47.908L33.8015 49.3426C33.6856 49.4111 33.5481 49.4331 33.4166 49.4043C33.2851 49.3756 33.1693 49.2982 33.0925 49.1876C33.0157 49.0771 32.9835 48.9416 33.0024 48.8083C33.0214 48.675 33.09 48.5538 33.1946 48.469L36.1471 46.036C36.0423 46.0126 35.947 45.9581 35.8737 45.8796C35.8004 45.8011 35.7524 45.7023 35.7362 45.5962C35.7199 45.49 35.7361 45.3814 35.7826 45.2846C35.8291 45.1878 35.9037 45.1073 35.9967 45.0536L40.5077 42.4498C40.6234 42.3842 40.7595 42.3642 40.8892 42.3937C41.019 42.4233 41.133 42.5002 41.2089 42.6095C41.2848 42.7188 41.3171 42.8526 41.2994 42.9844C41.2818 43.1163 41.2155 43.2369 41.1135 43.3224L38.8202 45.2136L44.7573 41.7896C44.8756 41.7216 45.0155 41.7017 45.1482 41.7338C45.2808 41.7659 45.3961 41.8476 45.4703 41.9621C45.5445 42.0766 45.572 42.2153 45.5471 42.3494C45.5222 42.4836 45.4468 42.6032 45.3365 42.6834L41.2191 45.6605L52.6933 39.0344C52.8135 38.9672 52.9551 38.9491 53.0883 38.984C53.2216 39.0188 53.3362 39.1039 53.4082 39.2213C53.4801 39.3388 53.5039 39.4795 53.4744 39.6141C53.4449 39.7486 53.3645 39.8665 53.2501 39.9432L49.9434 42.0872L53.713 39.9112C53.8321 39.8439 53.9726 39.825 54.1053 39.8583C54.238 39.8917 54.3528 39.9748 54.4259 40.0904C54.4991 40.206 54.525 40.3454 54.4983 40.4796C54.4716 40.6138 54.3944 40.7326 54.2826 40.8114L51.8837 42.4616L54.7434 40.8104C54.8589 40.7442 54.995 40.7236 55.1249 40.7526C55.2549 40.7816 55.3692 40.8582 55.4456 40.9673C55.5219 41.0764 55.5547 41.2101 55.5374 41.3421C55.5202 41.4741 55.4542 41.5949 55.3525 41.6808L51.2597 45.1026L56.3263 42.1789C56.4428 42.1116 56.5804 42.0908 56.7115 42.1207C56.8427 42.1506 56.9577 42.2289 57.0335 42.34C57.1096 42.451 57.1409 42.5867 57.1211 42.7198C57.1014 42.853 57.032 42.9737 56.9269 43.0578L53.9487 45.429L57.6255 43.3053C57.7433 43.2383 57.8822 43.2187 58.014 43.2504C58.1457 43.2821 58.2604 43.3628 58.3348 43.4761C58.4093 43.5893 58.4378 43.7266 58.4146 43.8602C58.3914 43.9937 58.3183 44.1134 58.2101 44.1949L55.7962 45.9901L58.3253 44.5309C58.4405 44.4663 58.5756 44.4467 58.7044 44.476C58.8333 44.5052 58.9466 44.5813 59.0226 44.6894C59.0986 44.7975 59.1317 44.9299 59.1156 45.0611C59.0995 45.1922 59.0353 45.3127 58.9354 45.3992L54.3999 49.2296L54.977 48.8968C55.0377 48.8582 55.1056 48.8323 55.1766 48.8206C55.2475 48.8089 55.3201 48.8117 55.39 48.8288C55.4599 48.846 55.5256 48.877 55.5831 48.9202C55.6406 48.9633 55.6889 49.0177 55.7249 49.08C55.7609 49.1422 55.7839 49.2111 55.7926 49.2825C55.8012 49.354 55.7954 49.4264 55.7753 49.4955C55.7553 49.5645 55.7215 49.6289 55.6759 49.6845C55.6304 49.7402 55.5741 49.7861 55.5103 49.8194L49.7503 53.1453C49.6351 53.211 49.4995 53.2314 49.37 53.2024C49.2406 53.1735 49.1265 53.0974 49.0502 52.9889C48.9738 52.8805 48.9406 52.7474 48.9571 52.6158C48.9735 52.4842 49.0384 52.3634 49.1391 52.277L53.6757 48.4434L48.3423 51.5208C48.2245 51.5877 48.0856 51.6074 47.9539 51.5756C47.8222 51.5439 47.7074 51.4632 47.633 51.35C47.5586 51.2368 47.5301 51.0994 47.5533 50.9659C47.5764 50.8324 47.6496 50.7127 47.7578 50.6312L50.1727 48.836L48.2773 49.9293C48.1607 49.997 48.0228 50.0181 47.8914 49.9884C47.7599 49.9586 47.6446 49.8801 47.5686 49.7687C47.4927 49.6574 47.4617 49.5214 47.482 49.3881C47.5022 49.2548 47.5722 49.1341 47.6778 49.0504L50.6666 46.6802L46.4671 49.1037C46.3516 49.1699 46.2155 49.1905 46.0856 49.1615C45.9557 49.1324 45.8413 49.0558 45.765 48.9468C45.6886 48.8377 45.6559 48.704 45.6731 48.572C45.6903 48.4399 45.7563 48.3191 45.8581 48.2333L49.9477 44.8136L40.9375 50.0136C40.8184 50.0808 40.6779 50.0998 40.5452 50.0664C40.4126 50.033 40.2978 49.9499 40.2246 49.8343C40.1514 49.7187 40.1255 49.5794 40.1522 49.4452C40.1789 49.311 40.2561 49.1922 40.3679 49.1133L42.7669 47.4568L32.3434 53.4749C32.2624 53.522 32.1704 53.5467 32.0767 53.5464Z" fill="#F9F5E6"/>
<path d="M40.5334 12.8509C40.4418 12.8508 40.3517 12.8271 40.2719 12.7821C40.1921 12.7371 40.1252 12.6723 40.0777 12.5939C40.0303 12.5156 40.0038 12.4263 40.0008 12.3347C39.9978 12.2432 40.0185 12.1524 40.0609 12.0711L41.0155 10.2311L36.8555 12.6343C36.7429 12.7001 36.6102 12.7224 36.4823 12.697C36.3544 12.6715 36.2403 12.6001 36.1615 12.4962C36.0826 12.3923 36.0446 12.2632 36.0546 12.1331C36.0646 12.0031 36.1218 11.8813 36.2155 11.7906L37.7483 10.2973L35.6705 11.4962C35.5601 11.5596 35.4308 11.5814 35.3057 11.5578C35.1807 11.5341 35.0683 11.4666 34.9887 11.3673C34.9091 11.268 34.8676 11.1435 34.8718 11.0164C34.8759 10.8892 34.9254 10.7677 35.0113 10.6738L37.0134 8.49993L35.503 9.3714C35.391 9.43366 35.2602 9.45349 35.1348 9.42727C35.0093 9.40104 34.8975 9.3305 34.8198 9.22857C34.7421 9.12664 34.7037 9.00013 34.7116 8.8722C34.7195 8.74427 34.7733 8.62348 34.863 8.53193L35.5361 7.8642L35.5051 7.88126C35.3948 7.94463 35.2654 7.96647 35.1404 7.94283C35.0154 7.91919 34.9029 7.85163 34.8234 7.75235C34.7438 7.65307 34.7023 7.5286 34.7064 7.40143C34.7106 7.27426 34.7601 7.15276 34.8459 7.05886L35.3003 6.56393C35.2195 6.57252 35.1378 6.56289 35.0612 6.53576C34.9846 6.50862 34.915 6.46467 34.8577 6.40713C34.7746 6.32242 34.7222 6.21245 34.7087 6.09461C34.6952 5.97677 34.7213 5.85778 34.783 5.75646L35.3462 4.82953C35.2769 4.84383 35.2055 4.84422 35.1361 4.83067C35.0667 4.81711 35.0007 4.7899 34.9419 4.7506C34.8591 4.6953 34.7935 4.61794 34.7524 4.52727C34.7113 4.43659 34.6964 4.33623 34.7094 4.23753L34.9067 2.75806C34.8538 2.71659 34.8096 2.66512 34.7766 2.6066C34.7063 2.48407 34.6875 2.33866 34.7243 2.20227C34.7611 2.06589 34.8505 1.94968 34.9729 1.87913L35.2555 1.71593C35.3419 1.66623 35.4404 1.6417 35.5399 1.64512C35.6395 1.64854 35.7361 1.67978 35.8188 1.7353C35.9015 1.79081 35.9671 1.86838 36.008 1.95922C36.0488 2.05006 36.0635 2.15054 36.0502 2.24926L35.9094 3.3042L36.5857 2.9138C36.6883 2.85411 36.8078 2.83036 36.9255 2.84631C37.0431 2.86226 37.152 2.91699 37.2351 3.00183C37.3181 3.08668 37.3704 3.1968 37.3838 3.31474C37.3971 3.43269 37.3708 3.55172 37.3089 3.653L36.7755 4.533L37.6822 4.00926C37.7924 3.9466 37.9213 3.92525 38.0459 3.94904C38.1704 3.97283 38.2824 4.0402 38.3617 4.13907C38.4411 4.23794 38.4826 4.36185 38.4789 4.48858C38.4752 4.6153 38.4264 4.73656 38.3414 4.8306L37.9851 5.21993L38.5537 4.88286C38.6657 4.8206 38.7964 4.80077 38.9219 4.82699C39.0473 4.85322 39.1592 4.92376 39.2369 5.02569C39.3146 5.12762 39.353 5.25413 39.345 5.38206C39.3371 5.50999 39.2834 5.63078 39.1937 5.72233L38.5217 6.389L39.4955 5.82793C39.6059 5.76456 39.7352 5.74272 39.8602 5.76636C39.9853 5.79001 40.0977 5.85756 40.1773 5.95685C40.2569 6.05613 40.2983 6.18059 40.2942 6.30776C40.2901 6.43493 40.2406 6.55643 40.1547 6.65033L38.159 8.82953L40.9067 7.2402C41.0193 7.17439 41.1521 7.15211 41.28 7.17756C41.4079 7.203 41.522 7.27443 41.6008 7.37832C41.6796 7.48221 41.7176 7.61137 41.7077 7.74138C41.6977 7.8714 41.6404 7.99326 41.5467 8.08393L40.0129 9.5762L42.0609 8.39433C42.1607 8.3371 42.2764 8.31371 42.3907 8.32765C42.5049 8.34159 42.6116 8.39212 42.6947 8.47168C42.7779 8.55125 42.8331 8.65558 42.8521 8.7691C42.8711 8.88262 42.8528 8.99924 42.8001 9.10153L41.8401 10.9426L43.5937 9.93033C43.6895 9.87475 43.8002 9.85038 43.9105 9.8606C44.0208 9.87082 44.1251 9.91512 44.2091 9.98736C44.2931 10.0596 44.3525 10.1562 44.379 10.2637C44.4056 10.3712 44.398 10.4844 44.3574 10.5874L44.1579 11.0941L44.5387 10.8754C44.6606 10.8116 44.8024 10.7974 44.9345 10.8358C45.0666 10.8741 45.1788 10.962 45.2477 11.0811C45.3165 11.2002 45.3367 11.3413 45.304 11.4749C45.2712 11.6085 45.1881 11.7243 45.0721 11.7981L43.3739 12.7783C43.2782 12.8337 43.1676 12.858 43.0575 12.8477C42.9474 12.8375 42.8432 12.7933 42.7593 12.7213C42.6755 12.6492 42.616 12.5529 42.5893 12.4456C42.5626 12.3383 42.5699 12.2253 42.6102 12.1223L42.8097 11.6157L40.7969 12.7762C40.717 12.8236 40.6262 12.8493 40.5334 12.8509Z" fill="#B1CFE3"/>
<path d="M58.6219 26.741C54.6326 26.6973 50.6401 26.7293 46.6497 26.741C46.4556 21.941 47.2427 16.9415 46.3212 12.2343C46.3317 12.1934 46.3273 12.1501 46.3087 12.1121C46.2902 12.0742 46.2586 12.0441 46.2198 12.0274C42.3297 8.0626 37.9734 0.631137 31.9372 1.157H6.13876C2.69556 0.651403 -0.408437 2.88394 0.28703 6.60554V54.9319C0.28703 56.5095 0.323296 58.0445 1.77396 59.0919C9.42836 60.9671 18.015 59.2455 25.9638 59.8087C27.343 66.9309 36.9356 63.2402 42.0705 64.0925C48.6732 62.6973 62.2465 68.1949 63.7131 58.8594C62.3297 52.1543 67.8091 25.7095 58.6219 26.741ZM35.9724 5.63487V3.4674C38.7201 6.31647 41.6598 9.04287 44.3414 11.9549C38.2572 11.9079 34.9569 13.4429 35.9724 5.63487ZM25.886 31.6285C25.8678 40.6695 25.8977 49.7159 25.886 58.7581C-8.46924 59.221 4.08756 61.6402 1.84543 26.6898C2.02676 -6.63713 -3.45483 3.4066 34.4278 2.45727C33.9308 13.3469 34.0364 13.1741 44.8086 12.7442C45.5553 17.2839 44.8588 22.1138 45.087 26.741C39.1126 27.8322 27.3846 23.2509 25.886 31.6285ZM62.1526 59.3181C62.6401 66.4647 38.4353 61.717 32.7756 63.0098C28.8406 63.6583 26.7404 60.3805 27.4486 56.6983C27.8486 47.7202 26.639 38.3933 27.9265 29.573C30.5612 26.2023 35.7846 28.4413 39.5084 27.8237C71.4934 26.9629 60.1654 26.8082 62.1526 59.3181Z" fill="black"/>
<path d="M57.838 42.7389C54.8684 39.685 47.4369 33.3522 47.2247 41.7149C37.7068 39.3682 26.7532 54.0039 33.038 54.3346C36.9744 50.9348 42.0128 49.0825 47.214 49.1229C47.1425 58.0317 55.5937 50.2493 58.5207 47.2829C60.0257 45.7234 59.3516 43.9975 57.838 42.7389ZM57.2599 46.9415C54.5932 49.0002 48.238 56.6887 48.7788 48.5351C48.7753 48.4753 48.7596 48.4168 48.7327 48.3633C48.7057 48.3098 48.6681 48.2623 48.6222 48.2239C48.5762 48.1854 48.5229 48.1567 48.4654 48.1396C48.408 48.1225 48.3476 48.1174 48.2881 48.1245C42.7628 48.1341 37.0017 49.5111 32.7959 53.2733C33.0903 48.9213 36.6849 44.8103 40.7745 43.3618C43.2279 42.0498 46.7191 43.5933 48.7745 42.1373C48.7745 40.9341 48.4321 38.0498 50.4812 38.5106C52.2668 39.9293 59.8049 44.5287 57.2599 46.9415Z" fill="black"/>
<path d="M40.2444 19.2285C40.878 19.2285 41.8647 18.2685 40.8226 18.2685H6.68924C6.05564 18.2685 5.06897 19.2285 6.1111 19.2285H40.2444Z" fill="black"/>
<path d="M23.7462 25.6999C17.8422 26.0999 11.2534 24.9042 5.66834 26.1533C4.65714 27.1922 27.8955 27.3053 23.7462 25.6999Z" fill="black"/>
<path d="M22.6786 33.1602C17.1319 33.5591 10.8994 32.3666 5.66737 33.6167C4.60923 34.6749 26.7842 34.7645 22.6786 33.1602Z" fill="black"/>
<path d="M22.702 40.7154C17.1276 41.0802 10.9942 39.989 5.68115 41.1346C5.20329 41.9634 26.1526 42.0776 22.702 40.7154Z" fill="black"/>
<path d="M22.477 48.0829C20.8151 48.5095 3.0519 46.9831 6.3223 49.1496C7.98523 48.7229 25.7484 50.2504 22.477 48.0829Z" fill="black"/>
</g>
<defs>
<clipPath id="clip0_406_2751">
<rect width="64" height="64" fill="white" transform="translate(0 0.616211)"/>
</clipPath>
</defs>
</svg>
