<svg width="44" height="44" viewBox="0 0 44 44" fill="none" xmlns="http://www.w3.org/2000/svg">
<path d="M11.9872 31.9C11.9082 31.9 11.8312 31.8745 11.7679 31.8272C11.7045 31.78 11.6581 31.7135 11.6356 31.6377C11.6131 31.5619 11.6157 31.4809 11.643 31.4067C11.6703 31.3325 11.7208 31.2692 11.787 31.226L22.446 24.3078L9.73882 31.6411C9.65617 31.6853 9.55971 31.6963 9.46926 31.6716C9.37881 31.6469 9.30126 31.5885 9.25252 31.5084C9.20379 31.4283 9.18759 31.3326 9.20725 31.241C9.22691 31.1493 9.28093 31.0686 9.35822 31.0156L20.9361 23.5957L9.73882 30.06C9.65617 30.1043 9.55971 30.1152 9.46926 30.0905C9.37881 30.0658 9.30126 30.0075 9.25252 29.9274C9.20379 29.8473 9.18759 29.7516 9.20725 29.6599C9.22691 29.5682 9.28093 29.4876 9.35822 29.4345L20.7396 22.1503L9.73956 28.501C9.65651 28.5453 9.55959 28.556 9.46886 28.5309C9.37813 28.5057 9.30056 28.4466 9.2522 28.3659C9.20385 28.2851 9.18842 28.1888 9.20911 28.097C9.2298 28.0051 9.28503 27.9247 9.36336 27.8725L15.1369 24.2836L9.73956 27.3988C9.6569 27.443 9.56044 27.4539 9.46999 27.4292C9.37955 27.4046 9.30199 27.3462 9.25326 27.2661C9.20453 27.186 9.18832 27.0903 9.20798 26.9986C9.22764 26.907 9.28167 26.8263 9.35896 26.7732L20.4477 19.6907L9.74102 25.8727C9.65783 25.9178 9.56042 25.929 9.46916 25.904C9.37791 25.8789 9.29987 25.8195 9.25138 25.7383C9.20288 25.657 9.18768 25.5601 9.20897 25.4679C9.23025 25.3757 9.28635 25.2953 9.36556 25.2435L12.4602 23.3368L9.73882 24.9062C9.65547 24.9523 9.55746 24.9641 9.46554 24.9392C9.37361 24.9143 9.29498 24.8546 9.24629 24.7727C9.1976 24.6909 9.18266 24.5933 9.20465 24.5006C9.22664 24.408 9.28382 24.3275 9.36409 24.2762L11.479 22.976L9.73882 23.98C9.65572 24.0238 9.55897 24.034 9.46855 24.0086C9.37812 23.9831 9.30091 23.9239 9.25284 23.8432C9.20478 23.7625 9.18952 23.6664 9.21022 23.5748C9.23092 23.4832 9.286 23.403 9.36409 23.3508L10.8264 22.4532L9.73882 23.0809C9.6561 23.1264 9.55901 23.1382 9.46777 23.1139C9.37654 23.0896 9.29819 23.0311 9.24905 22.9505C9.1999 22.8699 9.18375 22.7734 9.20395 22.6812C9.22415 22.5889 9.27915 22.5081 9.35749 22.4554L21.5697 14.5933L9.73882 21.4199C9.65585 21.4685 9.55709 21.4826 9.46383 21.4591C9.37057 21.4356 9.29028 21.3764 9.24026 21.2942C9.19024 21.2121 9.1745 21.1136 9.19643 21.02C9.21836 20.9263 9.2762 20.845 9.35749 20.7936L21.3299 13.0973L9.73882 19.789C9.65578 19.8333 9.55885 19.844 9.46813 19.8189C9.3774 19.7937 9.29983 19.7346 9.25147 19.6539C9.20311 19.5731 9.18768 19.4768 9.20838 19.385C9.22907 19.2931 9.2843 19.2127 9.36262 19.1605L14.6764 15.8605L9.73882 18.7132C9.65574 18.7597 9.55782 18.7721 9.46576 18.7477C9.3737 18.7234 9.29473 18.6641 9.24557 18.5826C9.1964 18.501 9.1809 18.4035 9.20234 18.3108C9.22377 18.218 9.28047 18.1372 9.36042 18.0854L18.0006 12.6463L9.73882 17.413C9.65572 17.4568 9.55897 17.467 9.46855 17.4416C9.37812 17.4161 9.30091 17.3569 9.25284 17.2762C9.20478 17.1955 9.18952 17.0994 9.21022 17.0078C9.23092 16.9162 9.286 16.836 9.36409 16.7838L11.919 15.21L9.73882 16.4714C9.65569 16.5172 9.55804 16.5289 9.46641 16.5042C9.37478 16.4795 9.2963 16.4202 9.24748 16.3388C9.19867 16.2574 9.18331 16.1602 9.20465 16.0678C9.22599 15.9753 9.28235 15.8947 9.36189 15.8429L15.5043 12.0054L9.73882 15.3332C9.65598 15.3775 9.5593 15.3883 9.46873 15.3634C9.37816 15.3385 9.3006 15.2797 9.25207 15.1993C9.20353 15.1189 9.18771 15.0229 9.20787 14.9312C9.22803 14.8394 9.28264 14.7589 9.36042 14.7062L16.289 10.3312L9.73882 14.1122C9.65635 14.1584 9.55925 14.1709 9.46778 14.1472C9.37631 14.1234 9.29753 14.0653 9.24787 13.9849C9.19821 13.9045 9.18151 13.808 9.20125 13.7156C9.22099 13.6232 9.27565 13.542 9.35382 13.4889L18.7354 7.31131L9.73882 12.5048C9.65615 12.551 9.55882 12.5634 9.46721 12.5394C9.37559 12.5155 9.2968 12.457 9.24732 12.3762C9.19785 12.2955 9.18154 12.1987 9.2018 12.1062C9.22206 12.0137 9.27733 11.9326 9.35602 11.88L15.4566 7.90677L9.73662 11.2068C9.6537 11.2524 9.55635 11.2641 9.46494 11.2396C9.37353 11.2151 9.29515 11.1562 9.24618 11.0752C9.19721 10.9942 9.18145 10.8974 9.20219 10.8051C9.22294 10.7128 9.27858 10.632 9.35749 10.5798L10.1928 10.051L9.73662 10.3136C9.65441 10.3585 9.55812 10.3702 9.46754 10.3463C9.37695 10.3225 9.29893 10.2648 9.24949 10.1853C9.20004 10.1057 9.18293 10.0103 9.20164 9.91847C9.22036 9.82669 9.2735 9.74555 9.35016 9.69171L13.6035 6.86324L9.73882 9.09331C9.65679 9.13828 9.56066 9.15019 9.47013 9.12661C9.3796 9.10302 9.30151 9.04573 9.25184 8.96644C9.20217 8.88716 9.18469 8.7919 9.20296 8.70015C9.22124 8.6084 9.2739 8.5271 9.35016 8.47291L12.6406 6.24797L9.73882 7.92584C9.65685 7.97354 9.55959 7.98762 9.46746 7.96514C9.37533 7.94265 9.29549 7.88533 9.24471 7.80523C9.19394 7.72513 9.17618 7.62847 9.19515 7.53556C9.21413 7.44264 9.26837 7.36068 9.34649 7.30691L11.9535 5.49997L9.73882 6.77744C9.6583 6.82275 9.56365 6.836 9.47378 6.81453C9.38392 6.79306 9.30547 6.73845 9.25413 6.66163C9.2028 6.58481 9.18235 6.49144 9.19689 6.4002C9.21143 6.30896 9.25989 6.22656 9.33256 6.16951L12.37 3.83017L9.73882 5.34817C9.66069 5.39569 9.56762 5.41229 9.47788 5.39473C9.38814 5.37716 9.3082 5.3267 9.25374 5.25323C9.19929 5.17977 9.17425 5.08861 9.18354 4.99764C9.19283 4.90666 9.23578 4.82245 9.30396 4.76151L11.5516 2.64731L9.73882 3.69377C9.66587 3.73541 9.58084 3.75074 9.49794 3.73719C9.41505 3.72365 9.33931 3.68206 9.28341 3.61937C9.22751 3.55668 9.19482 3.4767 9.19082 3.3928C9.18681 3.3089 9.21174 3.22617 9.26142 3.15844L10.1414 1.96971C10.0561 2.0098 9.95865 2.0155 9.86926 1.98562C9.77987 1.95575 9.70541 1.8926 9.66134 1.80928C9.61728 1.72597 9.60699 1.62888 9.63261 1.53817C9.65824 1.44747 9.71781 1.37012 9.79896 1.32217L11.3016 0.454641C11.3746 0.412677 11.4598 0.397132 11.543 0.410619C11.6261 0.424105 11.7021 0.465801 11.7581 0.528698C11.8141 0.591595 11.8467 0.671858 11.8505 0.755995C11.8543 0.840132 11.8291 0.923014 11.779 0.990708L10.899 2.17724L13.913 0.439975C13.9911 0.393222 14.0838 0.377208 14.1731 0.395049C14.2624 0.41289 14.3418 0.46331 14.396 0.536498C14.4501 0.609685 14.4751 0.700405 14.4661 0.791002C14.4571 0.8816 14.4146 0.965594 14.3471 1.02664L12.1002 3.13864L16.7781 0.439975C16.8586 0.393737 16.9537 0.379792 17.0442 0.400955C17.1346 0.422119 17.2136 0.476813 17.2653 0.553993C17.317 0.631172 17.3374 0.725085 17.3225 0.816762C17.3077 0.90844 17.2585 0.99105 17.1851 1.04791L14.1476 3.38724L19.2538 0.439975C19.3356 0.39427 19.4318 0.381612 19.5226 0.404599C19.6135 0.427587 19.6921 0.484475 19.7423 0.563586C19.7925 0.642696 19.8105 0.738025 19.7926 0.830002C19.7747 0.921979 19.7223 1.00362 19.6462 1.05817L17.0443 2.85997L21.2412 0.439975C21.3232 0.395003 21.4193 0.38309 21.5098 0.406674C21.6004 0.430258 21.6785 0.487555 21.7281 0.566836C21.7778 0.646116 21.7953 0.741383 21.777 0.833134C21.7587 0.924885 21.7061 1.00618 21.6298 1.06037L18.3335 3.28531L23.2681 0.439975C23.3504 0.393849 23.4473 0.381209 23.5386 0.404682C23.63 0.428155 23.7088 0.485935 23.7586 0.56601C23.8085 0.646085 23.8256 0.742295 23.8063 0.834639C23.7871 0.926983 23.733 1.00836 23.6553 1.06184L19.4027 3.88664L25.3794 0.439975C25.4624 0.392527 25.5607 0.379392 25.6532 0.40337C25.7458 0.427347 25.8253 0.48654 25.8749 0.568327C25.9244 0.650114 25.9401 0.748023 25.9185 0.841175C25.8969 0.934328 25.8397 1.01535 25.7592 1.06697L24.9225 1.59644L26.9267 0.439975C27.0092 0.395713 27.1054 0.384661 27.1958 0.409083C27.2861 0.433504 27.3637 0.49155 27.4126 0.571328C27.4616 0.651107 27.4782 0.746579 27.459 0.838184C27.4398 0.929789 27.3863 1.01059 27.3095 1.06404L21.2082 5.03651L29.1729 0.439975C29.2554 0.392111 29.3534 0.378315 29.446 0.401517C29.5385 0.424719 29.6184 0.483091 29.6686 0.564234C29.7188 0.645377 29.7354 0.742899 29.7149 0.836087C29.6943 0.929275 29.6383 1.01079 29.5586 1.06331L20.1764 7.24017L31.9581 0.439975C32.041 0.394372 32.1384 0.382599 32.2298 0.407119C32.3212 0.43164 32.3996 0.490553 32.4485 0.571538C32.4975 0.652523 32.5133 0.749306 32.4925 0.841644C32.4718 0.933981 32.4161 1.01472 32.3372 1.06697L25.4124 5.43764L33.3566 0.851375C33.4397 0.805588 33.5373 0.793819 33.629 0.818545C33.7206 0.843271 33.7991 0.902563 33.8479 0.983956C33.8967 1.06535 33.9121 1.1625 33.8907 1.25498C33.8694 1.34746 33.813 1.42806 33.7335 1.47984L27.5999 5.31224L34.0122 1.61331C34.0957 1.56352 34.1956 1.54895 34.2899 1.57281C34.3841 1.59667 34.4651 1.65701 34.5149 1.74054C34.5646 1.82408 34.5792 1.92397 34.5553 2.01824C34.5315 2.11252 34.4712 2.19345 34.3876 2.24324L31.8268 3.81917L34.2468 2.41997C34.3297 2.37437 34.4271 2.3626 34.5185 2.38712C34.6099 2.41164 34.6883 2.47055 34.7373 2.55154C34.7862 2.63252 34.802 2.72931 34.7813 2.82164C34.7605 2.91398 34.7049 2.99472 34.626 3.04697L25.9873 8.48537L34.2622 3.70844C34.3453 3.66409 34.4422 3.65337 34.5329 3.67852C34.6236 3.70367 34.7012 3.76276 34.7496 3.84354C34.7979 3.92432 34.8134 4.02061 34.7927 4.11245C34.772 4.2043 34.7167 4.28467 34.6384 4.33691L29.3225 7.63691L34.2637 4.78424C34.3467 4.73561 34.4454 4.72153 34.5387 4.74504C34.6319 4.76854 34.7122 4.82775 34.7623 4.90989C34.8123 4.99204 34.828 5.09055 34.8061 5.18419C34.7842 5.27783 34.7263 5.35911 34.645 5.41051L22.6748 13.1046L34.2615 6.41371C34.3442 6.36821 34.4413 6.35638 34.5325 6.38067C34.6238 6.40497 34.7021 6.46352 34.7513 6.54413C34.8004 6.62475 34.8166 6.72121 34.7964 6.81344C34.7762 6.90567 34.7212 6.98655 34.6428 7.03924L22.4328 14.9064L34.2659 8.07471C34.349 8.03091 34.4457 8.02068 34.5362 8.04612C34.6266 8.07157 34.7038 8.13075 34.7519 8.21146C34.7999 8.29217 34.8152 8.38825 34.7945 8.47988C34.7738 8.57151 34.7187 8.6517 34.6406 8.70391L33.1864 9.59637L34.2666 8.97304C34.35 8.92696 34.448 8.91511 34.5399 8.94002C34.6318 8.96492 34.7105 9.02462 34.7592 9.10647C34.8078 9.18832 34.8228 9.28591 34.8008 9.37857C34.7788 9.47124 34.7216 9.55172 34.6414 9.60297L32.5147 10.9098L34.2674 9.89997C34.3505 9.85486 34.448 9.84366 34.5392 9.86872C34.6305 9.89377 34.7085 9.95314 34.757 10.0344C34.8055 10.1157 34.8207 10.2125 34.7994 10.3048C34.7781 10.397 34.722 10.4774 34.6428 10.5292L31.5548 12.4358L34.2681 10.8694C34.3512 10.819 34.451 10.8036 34.5455 10.8267C34.64 10.8498 34.7214 10.9095 34.7719 10.9926C34.8224 11.0758 34.8377 11.1756 34.8146 11.2701C34.7915 11.3645 34.7318 11.446 34.6487 11.4964L23.5585 18.5731L34.2688 12.3933C34.352 12.3475 34.4496 12.3357 34.5412 12.3605C34.6329 12.3852 34.7113 12.4445 34.7602 12.5259C34.809 12.6073 34.8243 12.7044 34.803 12.7969C34.7817 12.8894 34.7253 12.97 34.6458 13.0218L28.8649 16.6151L34.2696 13.4948C34.3525 13.4461 34.4513 13.4321 34.5445 13.4556C34.6378 13.4791 34.7181 13.5383 34.7681 13.6204C34.8181 13.7026 34.8339 13.8011 34.812 13.8947C34.79 13.9884 34.7322 14.0696 34.6509 14.121L23.274 21.3986L34.274 15.0494C34.3569 15.0008 34.4557 14.9867 34.549 15.0102C34.6422 15.0337 34.7225 15.0929 34.7725 15.1751C34.8225 15.2572 34.8383 15.3557 34.8164 15.4494C34.7944 15.543 34.7366 15.6243 34.6553 15.6757L23.0767 23.0948L34.2718 16.6312C34.3543 16.5858 34.4511 16.5738 34.5422 16.5979C34.6333 16.622 34.7117 16.6802 34.761 16.7604C34.8104 16.8407 34.8269 16.9369 34.8072 17.029C34.7875 17.1212 34.7331 17.2022 34.6553 17.2553L23.9904 24.178L34.2732 18.238C34.3563 18.1873 34.456 18.1717 34.5506 18.1946C34.6451 18.2175 34.7267 18.277 34.7774 18.3601C34.8281 18.4431 34.8437 18.5429 34.8208 18.6374C34.7979 18.732 34.7383 18.8136 34.6553 18.8642L27.352 23.5576L34.274 19.5616C34.3563 19.5162 34.453 19.5041 34.544 19.5279C34.635 19.5517 34.7133 19.6096 34.7629 19.6895C34.8124 19.7695 34.8293 19.8654 34.8101 19.9575C34.7909 20.0496 34.7371 20.1307 34.6597 20.1842L27.3176 25.0242L34.2754 21.007C34.358 20.9601 34.4556 20.947 34.5477 20.9706C34.6397 20.9942 34.719 21.0526 34.7689 21.1335C34.8187 21.2145 34.8351 21.3116 34.8148 21.4044C34.7944 21.4972 34.7388 21.5785 34.6597 21.6311L30.091 24.6194L34.2762 22.2038C34.3579 22.1561 34.455 22.1418 34.5471 22.164C34.6392 22.1862 34.7191 22.2432 34.7701 22.323C34.8211 22.4028 34.8392 22.4993 34.8207 22.5922C34.8021 22.685 34.7484 22.7672 34.6707 22.8213L28.5444 27.1384L34.2776 23.8333C34.3591 23.7861 34.4557 23.772 34.5472 23.794C34.6388 23.816 34.7184 23.8724 34.7695 23.9515C34.8206 24.0307 34.8393 24.1264 34.8218 24.219C34.8042 24.3115 34.7517 24.3937 34.6751 24.4486L30.4218 27.5036L34.282 25.2758C34.3622 25.2298 34.4568 25.2159 34.5469 25.2367C34.6369 25.2575 34.7158 25.3115 34.7677 25.388C34.8196 25.4645 34.8407 25.5577 34.8268 25.6491C34.8129 25.7405 34.765 25.8232 34.6927 25.8808L31.1815 28.6447L34.2798 26.8554C34.3611 26.8091 34.4569 26.7957 34.5478 26.8178C34.6386 26.8399 34.7176 26.8959 34.7686 26.9743C34.8195 27.0527 34.8386 27.1475 34.8219 27.2395C34.8052 27.3315 34.754 27.4137 34.6788 27.4692L34.3275 27.7251C34.4078 27.6932 34.4967 27.6906 34.5787 27.7179C34.6607 27.7452 34.7304 27.8005 34.7755 27.8742C34.8207 27.9478 34.8384 28.0351 34.8255 28.1205C34.8126 28.2059 34.77 28.284 34.7052 28.3411L33.5868 29.3157L34.2791 28.916C34.35 28.876 34.4323 28.8607 34.5129 28.8726C34.5935 28.8846 34.6678 28.923 34.7242 28.9818C34.7805 29.0407 34.8156 29.1166 34.824 29.1977C34.8324 29.2787 34.8135 29.3602 34.7704 29.4294L34.1251 30.4333L34.2828 30.3424C34.3245 30.3158 34.3712 30.298 34.42 30.29C34.4687 30.282 34.5187 30.2839 34.5667 30.2957C34.6147 30.3074 34.6599 30.3288 34.6994 30.3585C34.739 30.3881 34.7722 30.4255 34.7969 30.4683C34.8217 30.5111 34.8375 30.5585 34.8435 30.6076C34.8494 30.6567 34.8454 30.7065 34.8316 30.754C34.8178 30.8015 34.7946 30.8457 34.7633 30.884C34.732 30.9222 34.6932 30.9538 34.6494 30.9767L33.1754 31.8274C33.1042 31.8685 33.0212 31.8845 32.9398 31.8728C32.8585 31.8611 32.7834 31.8224 32.7266 31.7628C32.6699 31.7032 32.6348 31.6263 32.6271 31.5443C32.6194 31.4624 32.6395 31.3802 32.6841 31.3111L33.3324 30.3079L30.6924 31.8296C30.6135 31.8747 30.5208 31.8889 30.4321 31.8695C30.3433 31.8502 30.265 31.7985 30.2121 31.7247C30.1593 31.6509 30.1357 31.56 30.146 31.4698C30.1563 31.3796 30.1996 31.2964 30.2678 31.2363L31.3868 30.2654L28.6691 31.834C28.5878 31.8802 28.492 31.8936 28.4011 31.8715C28.3103 31.8494 28.2313 31.7935 28.1804 31.7151C28.1294 31.6367 28.1103 31.5418 28.127 31.4498C28.1437 31.3578 28.1949 31.2757 28.2702 31.2202L28.5921 30.9862L27.1203 31.8354C27.0401 31.8805 26.9459 31.8938 26.8564 31.8727C26.7669 31.8516 26.6886 31.7977 26.637 31.7215C26.5854 31.6454 26.5643 31.5526 26.5779 31.4617C26.5915 31.3707 26.6388 31.2882 26.7104 31.2304L30.2208 28.4672L24.382 31.8406C24.3005 31.8878 24.204 31.9019 24.1124 31.8799C24.0208 31.8579 23.9412 31.8014 23.8901 31.7223C23.839 31.6432 23.8203 31.5475 23.8379 31.4549C23.8555 31.3624 23.908 31.2802 23.9846 31.2253L28.2379 28.171L21.8777 31.8428C21.7959 31.8905 21.6988 31.9048 21.6067 31.8826C21.5147 31.8604 21.4348 31.8034 21.3838 31.7236C21.3328 31.6438 21.3146 31.5473 21.3332 31.4544C21.3517 31.3616 21.4054 31.2794 21.4832 31.2253L27.6102 26.906L19.061 31.842C18.9784 31.8875 18.8816 31.8994 18.7905 31.8754C18.6994 31.8513 18.621 31.7931 18.5717 31.7128C18.5224 31.6326 18.5058 31.5364 18.5255 31.4442C18.5452 31.3521 18.5996 31.2711 18.6774 31.218L23.2468 28.2282L16.9834 31.8442C16.901 31.8904 16.8039 31.9029 16.7124 31.8791C16.6209 31.8554 16.5421 31.7973 16.4925 31.7169C16.4428 31.6365 16.4261 31.54 16.4459 31.4476C16.4656 31.3552 16.5203 31.274 16.5984 31.2209L23.9384 26.3809L14.4718 31.8464C14.3888 31.8951 14.29 31.9091 14.1968 31.8856C14.1035 31.8621 14.0232 31.8029 13.9732 31.7208C13.9232 31.6386 13.9074 31.5401 13.9294 31.4465C13.9513 31.3528 14.0091 31.2716 14.0904 31.2202L21.3937 26.5268L12.1735 31.8486C12.1172 31.8823 12.0528 31.9 11.9872 31.9Z" fill="#3B2186"/>
<path d="M25.1578 20.1542C25.0897 20.1542 25.023 20.1353 24.9651 20.0995C24.9071 20.0637 24.8603 20.0124 24.8299 19.9515C24.7994 19.8906 24.7865 19.8225 24.7927 19.7546C24.7988 19.6868 24.8236 19.622 24.8645 19.5676L25.6932 18.4962L22.9358 20.0882C22.8568 20.1336 22.7638 20.148 22.6748 20.1285C22.5858 20.109 22.5072 20.0571 22.4544 19.9829C22.4016 19.9086 22.3783 19.8174 22.3891 19.7269C22.3999 19.6365 22.4439 19.5532 22.5127 19.4935L23.9794 18.2263L22.9395 18.8262C22.8614 18.8737 22.7683 18.8903 22.6786 18.8727C22.5888 18.8552 22.5089 18.8047 22.4544 18.7312C22.4 18.6578 22.3749 18.5666 22.3842 18.4756C22.3935 18.3847 22.4365 18.3004 22.5046 18.2395L24.5814 16.28L22.9388 17.2282C22.86 17.2732 22.7674 17.2874 22.6788 17.2681C22.5903 17.2487 22.512 17.1973 22.4591 17.1236C22.4062 17.05 22.3825 16.9593 22.3926 16.8692C22.4026 16.7791 22.4457 16.6959 22.5134 16.6357L24.0835 15.2578L22.9388 15.9178C22.8592 15.9622 22.766 15.9754 22.6773 15.9548C22.5885 15.9342 22.5106 15.8813 22.4587 15.8065C22.4068 15.7316 22.3847 15.6401 22.3965 15.5498C22.4084 15.4595 22.4535 15.3768 22.523 15.3179L23.4587 14.5464L22.9388 14.8464C22.8653 14.8884 22.7796 14.9037 22.6962 14.8897C22.6128 14.8758 22.5367 14.8334 22.481 14.7698C22.4252 14.7062 22.3932 14.6252 22.3903 14.5407C22.3874 14.4561 22.4138 14.3732 22.465 14.3059L23.4785 12.9859L22.9388 13.2968C22.8752 13.3334 22.802 13.35 22.7289 13.3445C22.6557 13.3391 22.5859 13.3118 22.5284 13.2662C22.4709 13.2207 22.4284 13.1589 22.4064 13.0889C22.3844 13.0189 22.3839 12.944 22.4049 12.8737L22.5809 12.287C22.5237 12.2559 22.4758 12.2102 22.4421 12.1544C22.4084 12.0987 22.3902 12.035 22.3893 11.9699C22.3884 11.9048 22.4049 11.8406 22.437 11.7839C22.4691 11.7273 22.5158 11.6802 22.5721 11.6476L22.9388 11.4342C23.0024 11.3974 23.0756 11.3806 23.1489 11.3859C23.2222 11.3913 23.2922 11.4185 23.3498 11.4641C23.4075 11.5097 23.45 11.5716 23.4721 11.6417C23.4941 11.7118 23.4946 11.7869 23.4734 11.8573L23.3714 12.1954L24.7046 11.4254C24.7781 11.383 24.8639 11.3673 24.9476 11.3811C25.0313 11.3949 25.1076 11.4373 25.1635 11.501C25.2195 11.5647 25.2516 11.6459 25.2545 11.7306C25.2573 11.8154 25.2307 11.8985 25.1791 11.9658L24.1656 13.2858L26.9259 11.6923C27.0056 11.647 27.0993 11.6331 27.1887 11.6535C27.278 11.6738 27.3566 11.7269 27.4087 11.8023C27.4609 11.8776 27.483 11.9698 27.4705 12.0606C27.4581 12.1514 27.4122 12.2343 27.3417 12.2929L26.4074 13.0622L26.9288 12.7615C27.0077 12.7157 27.1008 12.7009 27.1899 12.72C27.2791 12.7391 27.3579 12.7908 27.411 12.8649C27.4642 12.939 27.4878 13.0302 27.4773 13.1208C27.4667 13.2114 27.4229 13.2948 27.3542 13.3548L25.787 14.74L26.9347 14.08C27.0128 14.0325 27.1059 14.0159 27.1956 14.0335C27.2854 14.051 27.3653 14.1015 27.4198 14.175C27.4742 14.2484 27.4993 14.3396 27.49 14.4306C27.4807 14.5215 27.4377 14.6058 27.3696 14.6667L25.2913 16.6276L26.9398 15.6743C27.0188 15.6289 27.1119 15.6145 27.2009 15.634C27.2899 15.6535 27.3685 15.7054 27.4213 15.7797C27.4741 15.8539 27.4974 15.9451 27.4866 16.0356C27.4758 16.1261 27.4317 16.2093 27.363 16.269L25.9014 17.5267L26.9428 16.9261C27.0163 16.8837 27.1022 16.8682 27.1859 16.8821C27.2696 16.896 27.3458 16.9385 27.4017 17.0023C27.4576 17.0661 27.4896 17.1474 27.4923 17.2322C27.495 17.3169 27.4682 17.4 27.4165 17.4673L26.5871 18.5394L26.9472 18.3334C27.0114 18.2962 27.0853 18.2794 27.1592 18.2852C27.2332 18.2909 27.3036 18.319 27.3613 18.3656C27.419 18.4122 27.4611 18.4753 27.4823 18.5464C27.5034 18.6175 27.5024 18.6933 27.4796 18.7638L27.3204 19.253C27.3746 19.2848 27.4193 19.3303 27.4502 19.385C27.4986 19.4691 27.5117 19.569 27.4865 19.6628C27.4613 19.7565 27.4 19.8365 27.316 19.8851L26.9494 20.0985C26.8854 20.1361 26.8115 20.1532 26.7375 20.1474C26.6635 20.1417 26.5931 20.1133 26.5358 20.0662C26.4781 20.0196 26.436 19.9565 26.4149 19.8855C26.3938 19.8144 26.3948 19.7386 26.4177 19.668L26.491 19.448L25.3448 20.108C25.2879 20.1402 25.2232 20.1562 25.1578 20.1542Z" fill="#D3B571"/>
<path d="M18.8671 20.1564C18.7979 20.1564 18.7301 20.1368 18.6716 20.0999C18.6131 20.063 18.5662 20.0103 18.5364 19.9478C18.5065 19.8854 18.495 19.8158 18.503 19.7471C18.5111 19.6784 18.5384 19.6133 18.5818 19.5595L19.7266 18.1478L17.0807 19.6746C17.0001 19.7294 16.901 19.7498 16.8053 19.7315C16.7096 19.7133 16.6251 19.6577 16.5703 19.5771C16.5156 19.4965 16.4951 19.3974 16.5134 19.3017C16.5317 19.206 16.5872 19.1214 16.6678 19.0667L17.0059 18.8019C16.9272 18.8254 16.8428 18.8218 16.7664 18.7916C16.69 18.7614 16.626 18.7064 16.5845 18.6355C16.5431 18.5645 16.5267 18.4817 16.5379 18.4003C16.5492 18.319 16.5875 18.2437 16.6466 18.1867L18.5532 16.4267L17.0719 17.281C16.9943 17.3277 16.9022 17.3441 16.8133 17.3269C16.7244 17.3098 16.645 17.2603 16.5904 17.1881C16.5358 17.1159 16.5098 17.026 16.5174 16.9358C16.5251 16.8456 16.5659 16.7614 16.6319 16.6995L18.8128 14.597L17.0646 15.6061C16.9856 15.6515 16.8925 15.6658 16.8035 15.6463C16.7145 15.6269 16.636 15.575 16.5831 15.5007C16.5303 15.4265 16.507 15.3352 16.5178 15.2448C16.5286 15.1543 16.5727 15.0711 16.6414 15.0113L17.828 13.9847L17.0616 14.4247C16.9872 14.4677 16.9001 14.4832 16.8154 14.4685C16.7307 14.4538 16.6539 14.4098 16.5983 14.3442C16.5427 14.2786 16.512 14.1956 16.5115 14.1096C16.5109 14.0237 16.5406 13.9403 16.5952 13.8739L17.2552 13.0709L17.0565 13.1853C16.9923 13.2226 16.9182 13.2395 16.8442 13.2337C16.7701 13.2279 16.6996 13.1998 16.6418 13.1531C16.5841 13.1063 16.542 13.0431 16.5209 12.9719C16.4999 12.9007 16.501 12.8247 16.5241 12.7541L16.6818 12.2738C16.628 12.2421 16.5836 12.1968 16.5527 12.1425C16.5043 12.0584 16.4913 11.9585 16.5164 11.8647C16.5416 11.771 16.6029 11.691 16.6869 11.6424L17.0536 11.429C17.1178 11.392 17.1918 11.3754 17.2657 11.3812C17.3396 11.3871 17.41 11.4153 17.4675 11.462C17.5251 11.5087 17.5672 11.5717 17.5882 11.6428C17.6092 11.7139 17.6082 11.7897 17.5852 11.8602L17.5163 12.0721L18.6442 11.4209C18.7186 11.3784 18.8056 11.3632 18.89 11.3781C18.9744 11.393 19.051 11.437 19.1063 11.5024C19.1617 11.5679 19.1923 11.6507 19.193 11.7364C19.1936 11.8221 19.1642 11.9054 19.1098 11.9717L18.4498 12.7783L20.8156 11.4129C20.8947 11.3666 20.9883 11.3515 21.0779 11.3708C21.1675 11.39 21.2467 11.4422 21.2998 11.5169C21.3529 11.5916 21.376 11.6835 21.3647 11.7745C21.3534 11.8654 21.3085 11.9489 21.2387 12.0083L20.0544 13.0299L21.0466 12.4667C21.1241 12.42 21.2163 12.4036 21.3052 12.4208C21.3941 12.4379 21.4735 12.4874 21.5281 12.5596C21.5827 12.6318 21.6087 12.7216 21.601 12.8119C21.5934 12.9021 21.5526 12.9863 21.4866 13.0482L19.2998 15.1507L21.0546 14.1379C21.1327 14.0932 21.2245 14.0788 21.3126 14.0974C21.4006 14.116 21.4788 14.1663 21.5321 14.2387C21.5855 14.3112 21.6103 14.4008 21.6019 14.4903C21.5935 14.5799 21.5525 14.6633 21.4866 14.7246L19.5799 16.4795L21.0634 15.6237C21.1437 15.5783 21.2381 15.5649 21.3278 15.586C21.4176 15.6071 21.496 15.6613 21.5476 15.7377C21.5993 15.814 21.6202 15.9071 21.6063 15.9982C21.5924 16.0893 21.5447 16.1719 21.4726 16.2294L21.1346 16.4949C21.2098 16.4697 21.2911 16.4696 21.3664 16.4945C21.4416 16.5194 21.5068 16.5681 21.5521 16.6332C21.5973 16.6983 21.6203 16.7763 21.6175 16.8556C21.6147 16.9348 21.5862 17.011 21.5364 17.0727L20.3954 18.4837L21.0766 18.0906C21.1394 18.0542 21.2115 18.0373 21.2839 18.0419C21.3562 18.0465 21.4256 18.0725 21.4832 18.1165C21.5408 18.1605 21.5841 18.2207 21.6075 18.2893C21.631 18.3579 21.6335 18.4319 21.6149 18.502L21.4198 19.2353C21.4882 19.2661 21.5454 19.3173 21.5834 19.382C21.6318 19.4662 21.6448 19.5661 21.6197 19.6598C21.5945 19.7536 21.5332 19.8335 21.4492 19.8821L21.0781 20.0963C21.0154 20.1324 20.9434 20.1492 20.8712 20.1444C20.7989 20.1397 20.7297 20.1137 20.6722 20.0697C20.6147 20.0257 20.5716 19.9657 20.5481 19.8972C20.5247 19.8287 20.5221 19.7548 20.5406 19.6849L20.6784 19.1671L19.0512 20.1065C18.9954 20.1393 18.9318 20.1565 18.8671 20.1564Z" fill="#D3B571"/>
<path d="M22.6741 20.1513C22.6146 20.1514 22.556 20.137 22.5034 20.1094C22.4507 20.0818 22.4056 20.0418 22.3718 19.9929C22.338 19.944 22.3166 19.8876 22.3095 19.8285C22.3024 19.7695 22.3097 19.7096 22.3309 19.6541L22.7526 18.5453L20.7388 19.7076C20.6607 19.7551 20.5676 19.7717 20.4779 19.7542C20.3881 19.7366 20.3082 19.6861 20.2537 19.6127C20.1993 19.5392 20.1742 19.4481 20.1835 19.3571C20.1928 19.2661 20.2358 19.1819 20.304 19.121L20.9134 18.5482L20.7388 18.6487C20.6611 18.693 20.5699 18.7074 20.4824 18.6891C20.3948 18.6709 20.317 18.6213 20.2634 18.5497C20.2099 18.478 20.1844 18.3893 20.1917 18.3001C20.1991 18.211 20.2387 18.1276 20.3032 18.0657L20.9823 17.4174L20.7388 17.5575C20.6607 17.6028 20.5686 17.6178 20.4802 17.5994C20.3917 17.5811 20.3132 17.5307 20.2596 17.458C20.206 17.3854 20.1811 17.2954 20.1897 17.2055C20.1983 17.1156 20.2397 17.032 20.3062 16.9708L20.8078 16.5066L20.7388 16.5455C20.6616 16.5894 20.5711 16.6039 20.484 16.5861C20.397 16.5683 20.3193 16.5195 20.2655 16.4488C20.2118 16.3781 20.1855 16.2902 20.1916 16.2016C20.1977 16.113 20.2358 16.0296 20.2988 15.9669L21.1517 15.1265L20.7388 15.3641C20.6634 15.4072 20.5751 15.4222 20.4897 15.4063C20.4043 15.3904 20.3273 15.3447 20.2725 15.2773C20.2176 15.21 20.1885 15.1253 20.1902 15.0385C20.1919 14.9516 20.2245 14.8682 20.282 14.8031L21.6592 13.2565L20.7388 13.7874C20.6628 13.8315 20.5735 13.8468 20.4871 13.8306C20.4008 13.8144 20.3231 13.7676 20.2683 13.699C20.2135 13.6303 20.1852 13.5442 20.1885 13.4564C20.1918 13.3686 20.2265 13.2849 20.2864 13.2206L21.533 11.8756L20.741 12.3325C20.6629 12.3785 20.5705 12.394 20.4817 12.3759C20.3928 12.3578 20.3138 12.3074 20.2599 12.2345C20.2061 12.1615 20.1811 12.0712 20.1899 11.981C20.1987 11.8907 20.2407 11.807 20.3076 11.7458L20.8041 11.2853L20.741 11.3205C20.6749 11.3586 20.5985 11.3751 20.5225 11.3677C20.4465 11.3603 20.3747 11.3294 20.3172 11.2793C20.2596 11.2291 20.2191 11.1623 20.2014 11.088C20.1836 11.0138 20.1895 10.9358 20.2182 10.8651L20.7102 9.65876C20.6239 9.68743 20.5299 9.68296 20.4467 9.64623C20.3634 9.60949 20.2968 9.54311 20.2598 9.45999C20.2227 9.37687 20.2179 9.28295 20.2463 9.19649C20.2747 9.11003 20.3342 9.0372 20.4132 8.99216L21.2668 8.5067C21.333 8.46844 21.4095 8.45185 21.4857 8.45923C21.5618 8.46662 21.6337 8.49761 21.6913 8.54788C21.7489 8.59815 21.7894 8.66517 21.807 8.73958C21.8247 8.81398 21.8186 8.89204 21.7897 8.96283L21.3035 10.1567L23.241 9.03763C23.3191 8.99227 23.4112 8.97733 23.4996 8.99568C23.588 9.01403 23.6666 9.06438 23.7202 9.13707C23.7738 9.20976 23.7987 9.29968 23.7901 9.38959C23.7815 9.4795 23.74 9.56308 23.6736 9.62429L23.1786 10.0848L23.2652 10.0357C23.3411 9.99213 23.4301 9.97716 23.5161 9.9935C23.6021 10.0098 23.6794 10.0564 23.7341 10.1248C23.7887 10.1932 23.8171 10.2789 23.8141 10.3664C23.8111 10.4538 23.7769 10.5374 23.7176 10.6018L22.471 11.9475L23.2644 11.4899C23.3398 11.4468 23.4281 11.4318 23.5135 11.4477C23.5989 11.4636 23.6759 11.5093 23.7308 11.5767C23.7856 11.644 23.8148 11.7287 23.813 11.8155C23.8113 11.9024 23.7788 11.9858 23.7213 12.0509L22.3441 13.5982L23.2688 13.0651C23.346 13.0211 23.4366 13.0067 23.5236 13.0245C23.6107 13.0423 23.6883 13.0911 23.7421 13.1618C23.7959 13.2325 23.8222 13.3204 23.816 13.409C23.8099 13.4976 23.7718 13.581 23.7088 13.6437L22.8567 14.4834L23.271 14.2443C23.3491 14.1989 23.4412 14.184 23.5297 14.2023C23.6181 14.2207 23.6967 14.271 23.7503 14.3437C23.8039 14.4164 23.8288 14.5063 23.8202 14.5963C23.8116 14.6862 23.7701 14.7697 23.7037 14.831L23.2021 15.2959L23.2754 15.2541C23.3531 15.2092 23.4446 15.1943 23.5325 15.2123C23.6204 15.2304 23.6987 15.28 23.7525 15.3518C23.8062 15.4237 23.8318 15.5128 23.8243 15.6022C23.8168 15.6916 23.7768 15.7752 23.7118 15.8371L23.0312 16.4861L23.2784 16.3394C23.3565 16.2919 23.4496 16.2753 23.5393 16.2929C23.629 16.3104 23.709 16.3609 23.7634 16.4344C23.8179 16.5078 23.8429 16.599 23.8336 16.69C23.8244 16.7809 23.7814 16.8651 23.7132 16.9261L23.1046 17.4988L23.2813 17.3976C23.3468 17.3597 23.4225 17.343 23.4978 17.3498C23.5732 17.3566 23.6447 17.3865 23.7024 17.4355C23.7601 17.4845 23.8012 17.5502 23.8201 17.6235C23.8389 17.6968 23.8347 17.7742 23.8078 17.845L23.3788 18.9728C23.4645 18.9515 23.5549 18.9617 23.6336 19.0017C23.7123 19.0416 23.774 19.1087 23.8072 19.1904C23.8405 19.2722 23.8431 19.3632 23.8147 19.4468C23.7862 19.5303 23.7286 19.6008 23.6524 19.6453L22.8611 20.1029C22.8042 20.1354 22.7396 20.1522 22.6741 20.1513Z" fill="#F2CF7E"/>
<path d="M26.4071 16.4069C26.3349 16.407 26.2642 16.3858 26.2039 16.3459C26.1437 16.306 26.0966 16.2492 26.0685 16.1826C26.0405 16.116 26.0327 16.0426 26.0463 15.9716C26.0598 15.9006 26.094 15.8352 26.1446 15.7836L27.1713 14.7364L26.5912 15.0708C26.5132 15.1137 26.4222 15.1268 26.3352 15.1075C26.2483 15.0883 26.1713 15.038 26.1187 14.9662C26.066 14.8943 26.0413 14.8058 26.0492 14.7171C26.0571 14.6284 26.097 14.5455 26.1615 14.4841L26.5281 14.149C26.451 14.1767 26.3667 14.1777 26.2889 14.1519C26.2111 14.1261 26.1441 14.075 26.0988 14.0066C26.0534 13.9383 26.0323 13.8568 26.0387 13.775C26.0452 13.6933 26.0788 13.6161 26.1343 13.5557L27.4265 12.147L26.5934 12.628C26.5158 12.6747 26.4237 12.6911 26.3348 12.6739C26.2459 12.6568 26.1665 12.6073 26.1119 12.5351C26.0572 12.4629 26.0313 12.3731 26.0389 12.2829C26.0466 12.1926 26.0874 12.1084 26.1534 12.0465L26.6557 11.5632L26.5912 11.5992C26.5229 11.6397 26.4431 11.6566 26.3642 11.6472C26.2853 11.6378 26.2117 11.6026 26.1549 11.5471C26.0975 11.4925 26.0593 11.4207 26.0461 11.3426C26.0328 11.2645 26.0453 11.1842 26.0815 11.1137L26.4438 10.4134C26.3636 10.4124 26.2859 10.3852 26.2226 10.3359C26.1593 10.2866 26.1139 10.2179 26.0935 10.1403C26.073 10.0627 26.0785 9.98056 26.1092 9.90643C26.1399 9.8323 26.1941 9.77028 26.2634 9.72989L27.1155 9.23856C27.1837 9.19804 27.2634 9.18118 27.3422 9.19059C27.4209 9.20001 27.4944 9.23517 27.5511 9.29063C27.6085 9.34524 27.6467 9.41699 27.6599 9.49512C27.6732 9.57325 27.6607 9.65356 27.6245 9.72403L27.3062 10.3408L28.8836 9.42996C28.9612 9.38326 29.0533 9.36691 29.1422 9.38406C29.2311 9.40121 29.3105 9.45065 29.3651 9.52285C29.4198 9.59506 29.4457 9.68492 29.4381 9.77514C29.4304 9.86535 29.3896 9.94955 29.3236 10.0115L28.8235 10.4948L29.1168 10.3246C29.1927 10.2806 29.2818 10.2652 29.3681 10.2812C29.4543 10.2973 29.532 10.3437 29.5869 10.4121C29.6418 10.4805 29.6704 10.5664 29.6674 10.6541C29.6645 10.7418 29.6302 10.8255 29.5707 10.89L28.2837 12.2966L29.1205 11.8133C29.1985 11.7704 29.2895 11.7573 29.3764 11.7765C29.4634 11.7958 29.5404 11.846 29.593 11.9179C29.6456 11.9897 29.6703 12.0783 29.6624 12.167C29.6546 12.2557 29.6147 12.3385 29.5502 12.4L29.1835 12.7336C29.2617 12.7055 29.3471 12.7047 29.4258 12.7314C29.5045 12.7581 29.5718 12.8108 29.6166 12.8808C29.6614 12.9507 29.6812 13.0339 29.6726 13.1165C29.664 13.1992 29.6275 13.2765 29.5693 13.3357L28.5426 14.3836L29.1293 14.047C29.171 14.0205 29.2177 14.0027 29.2665 13.9947C29.3153 13.9866 29.3652 13.9886 29.4132 14.0003C29.4612 14.0121 29.5064 14.0335 29.546 14.0631C29.5855 14.0928 29.6187 14.1302 29.6434 14.173C29.6682 14.2158 29.684 14.2632 29.69 14.3123C29.6959 14.3613 29.6919 14.4111 29.6781 14.4586C29.6643 14.5061 29.6411 14.5503 29.6098 14.5886C29.5785 14.6269 29.5397 14.6584 29.4959 14.6814L26.5905 16.3578C26.5349 16.3903 26.4715 16.4073 26.4071 16.4069Z" fill="#F2CF7E"/>
<path d="M16.802 16.4143C16.7403 16.4143 16.6796 16.3988 16.6255 16.3691C16.5714 16.3394 16.5256 16.2965 16.4925 16.2445C16.4594 16.1924 16.4399 16.1328 16.4359 16.0712C16.432 16.0097 16.4436 15.9481 16.4698 15.8922L16.7528 15.2879L16.0004 15.7213C15.9273 15.7632 15.842 15.7785 15.7588 15.7648C15.6756 15.7511 15.5998 15.7092 15.5439 15.6461C15.488 15.583 15.4556 15.5026 15.4521 15.4184C15.4485 15.3342 15.4741 15.2513 15.5245 15.1838L16.2036 14.2811L14.9254 15.0188C14.8473 15.0629 14.7558 15.0768 14.6681 15.058C14.5804 15.0392 14.5027 14.9889 14.4496 14.9167C14.3965 14.8444 14.3717 14.7552 14.3799 14.6659C14.3881 14.5767 14.4288 14.4935 14.4942 14.4321L14.8799 14.0765L14.8718 14.0809C14.7937 14.1276 14.701 14.1436 14.6117 14.1258C14.5224 14.1079 14.443 14.0575 14.3888 13.9843C14.3347 13.9111 14.3097 13.8204 14.3187 13.7298C14.3277 13.6392 14.3702 13.5552 14.4377 13.4942L14.9884 12.9809L14.8718 13.0483C14.7954 13.092 14.7058 13.1066 14.6194 13.0897C14.533 13.0727 14.4557 13.0252 14.4014 12.9559C14.3471 12.8866 14.3196 12.8001 14.3238 12.7122C14.3281 12.6243 14.3638 12.5408 14.4245 12.4771L15.3896 11.4731L14.8718 11.7716C14.8043 11.8098 14.7264 11.8256 14.6493 11.8167C14.5722 11.8078 14.4999 11.7747 14.4429 11.7221C14.3858 11.6695 14.3469 11.6002 14.3317 11.5241C14.3166 11.448 14.326 11.369 14.3585 11.2986L14.7758 10.4105C14.7036 10.4212 14.6299 10.4096 14.5644 10.3774C14.4989 10.3452 14.4447 10.2938 14.4091 10.2301C14.3607 10.146 14.3477 10.0461 14.3728 9.95231C14.398 9.85856 14.4593 9.77861 14.5433 9.72999L15.3947 9.23865C15.4622 9.20062 15.54 9.18493 15.6169 9.19384C15.6939 9.20275 15.766 9.23579 15.823 9.28823C15.88 9.34067 15.9189 9.40982 15.9342 9.48576C15.9495 9.56169 15.9403 9.64051 15.908 9.71092L15.5128 10.5535L17.261 9.54519C17.3375 9.50155 17.4271 9.48687 17.5135 9.50383C17.5998 9.52079 17.6772 9.56826 17.7315 9.63757C17.7858 9.70687 17.8133 9.79339 17.8091 9.88131C17.8048 9.96924 17.7691 10.0527 17.7084 10.1165L16.7484 11.1175L17.3945 10.7449C17.4726 10.6982 17.5654 10.6822 17.6546 10.7C17.7439 10.7178 17.8234 10.7683 17.8775 10.8414C17.9317 10.9146 17.9567 11.0054 17.9477 11.0959C17.9386 11.1865 17.8962 11.2705 17.8286 11.3316L17.2779 11.8449L17.3945 11.7782C17.4726 11.7341 17.5641 11.7201 17.6518 11.7389C17.7394 11.7578 17.8172 11.808 17.8703 11.8803C17.9234 11.9525 17.9482 12.0417 17.94 12.131C17.9318 12.2203 17.8911 12.3035 17.8257 12.3649L17.4312 12.7315C17.5055 12.6989 17.5884 12.6919 17.6671 12.7115C17.7458 12.7311 17.8158 12.7763 17.8661 12.8399C17.9164 12.9035 17.9442 12.9821 17.9451 13.0632C17.946 13.1443 17.92 13.2234 17.8712 13.2881L17.1921 14.1909L17.3952 14.0743C17.4627 14.0362 17.5405 14.0205 17.6175 14.0294C17.6944 14.0383 17.7665 14.0714 17.8235 14.1238C17.8805 14.1763 17.9195 14.2454 17.9348 14.3214C17.95 14.3973 17.9409 14.4761 17.9086 14.5465L17.5859 15.2359C17.6658 15.2379 17.7429 15.266 17.8053 15.3159C17.8678 15.3657 17.9123 15.4347 17.932 15.5121C17.9516 15.5896 17.9455 15.6714 17.9144 15.745C17.8833 15.8187 17.829 15.8801 17.7597 15.9201L16.9838 16.3681C16.9283 16.399 16.8656 16.415 16.802 16.4143Z" fill="#F2CF7E"/>
<path d="M20.2964 4.74468C20.2194 4.74468 20.1444 4.72046 20.082 4.67547C20.0196 4.63047 19.9729 4.56697 19.9485 4.49396C19.9242 4.42095 19.9234 4.34214 19.9464 4.26868C19.9693 4.19523 20.0148 4.13085 20.0764 4.08468L20.1974 3.99301L18.9808 4.69335C18.9019 4.73858 18.809 4.75288 18.7201 4.73345C18.6313 4.71402 18.5528 4.66226 18.5 4.58822C18.4471 4.51419 18.4237 4.42315 18.4342 4.33281C18.4447 4.24246 18.4885 4.15925 18.5569 4.09934L19.8571 2.97148L16.8945 4.68161C16.8155 4.727 16.7224 4.74136 16.6334 4.72188C16.5444 4.7024 16.4658 4.65049 16.413 4.57625C16.3602 4.50202 16.3369 4.41078 16.3477 4.32031C16.3585 4.22984 16.4025 4.14663 16.4713 4.08688L17.74 2.98688L15.8649 4.07294C15.7867 4.11898 15.6943 4.13444 15.6055 4.11634C15.5166 4.09824 15.4376 4.04786 15.3838 3.97493C15.3299 3.90199 15.3049 3.81169 15.3138 3.72144C15.3226 3.6312 15.3645 3.54742 15.4315 3.48628L16.3005 2.67961L15.6053 3.08001C15.5287 3.12367 15.439 3.13831 15.3526 3.12127C15.2662 3.10422 15.1888 3.05662 15.1345 2.98718C15.0803 2.91774 15.0529 2.8311 15.0574 2.74311C15.0618 2.65512 15.0977 2.57166 15.1587 2.50801L15.4153 2.24328C15.3579 2.24217 15.3015 2.22758 15.2508 2.2007C15.2 2.17381 15.1563 2.13538 15.1231 2.08851C15.09 2.04163 15.0682 1.98761 15.0598 1.93081C15.0513 1.874 15.0563 1.816 15.0743 1.76148L15.2313 1.28188C15.1786 1.25037 15.1351 1.20562 15.1051 1.15208C15.0808 1.11036 15.0649 1.06424 15.0585 1.01638C15.052 0.968521 15.0551 0.919854 15.0675 0.873177C15.0799 0.8265 15.1014 0.782733 15.1307 0.744389C15.1601 0.706046 15.1968 0.673882 15.2386 0.649744L15.6053 0.43781C15.6696 0.400695 15.7436 0.383976 15.8176 0.389865C15.8916 0.395754 15.9621 0.423973 16.0197 0.470789C16.0774 0.517606 16.1194 0.580814 16.1404 0.652052C16.1613 0.72329 16.1601 0.799201 16.1369 0.869744L16.0687 1.07728L17.1827 0.434877C17.2592 0.391219 17.3489 0.376573 17.4353 0.393619C17.5217 0.410666 17.5991 0.458265 17.6534 0.527707C17.7076 0.59715 17.735 0.683792 17.7306 0.771783C17.7261 0.859773 17.6902 0.943228 17.6293 1.00688L17.5061 1.13448L18.7219 0.432677C18.8 0.38664 18.8924 0.371179 18.9813 0.389282C19.0701 0.407384 19.1491 0.457765 19.203 0.530696C19.2569 0.603627 19.2818 0.693934 19.273 0.784179C19.2642 0.874424 19.2223 0.958205 19.1553 1.01934L18.287 1.82601L20.707 0.427544C20.786 0.382153 20.8791 0.367797 20.9681 0.387274C21.0571 0.406751 21.1357 0.458665 21.1885 0.532901C21.2413 0.607138 21.2646 0.698379 21.2538 0.788847C21.243 0.879315 21.199 0.962529 21.1302 1.02228L19.8615 2.12228L22.8066 0.425344C22.8856 0.379202 22.979 0.36427 23.0685 0.38348C23.1579 0.402691 23.237 0.454655 23.2901 0.529168C23.3432 0.60368 23.3665 0.695355 23.3555 0.786188C23.3444 0.87702 23.2998 0.960445 23.2304 1.02008L21.9266 2.14868L24.9171 0.421677C24.9978 0.37665 25.0925 0.363744 25.1823 0.38554C25.2721 0.407336 25.3503 0.462227 25.4014 0.539233C25.4524 0.61624 25.4726 0.709684 25.4577 0.800876C25.4428 0.892068 25.3941 0.974283 25.3212 1.03108L25.1987 1.12421L26.4197 0.419477C26.4986 0.374239 26.5915 0.359946 26.6804 0.379372C26.7692 0.398798 26.8477 0.450558 26.9005 0.524597C26.9534 0.598636 26.9768 0.68967 26.9663 0.780015C26.9557 0.870361 26.912 0.953569 26.8436 1.01348L25.5199 2.16848L28.3946 0.50821C28.4751 0.462896 28.5698 0.44965 28.6596 0.471122C28.7495 0.492594 28.8279 0.547201 28.8793 0.624021C28.9306 0.70084 28.951 0.794209 28.9365 0.885452C28.922 0.976695 28.8735 1.05909 28.8008 1.11614L28.484 1.36034C28.5545 1.34239 28.6286 1.34546 28.6973 1.36918C28.766 1.3929 28.8262 1.43623 28.8705 1.49381C28.9245 1.56532 28.9504 1.6541 28.9433 1.74341C28.9363 1.83271 28.8968 1.91635 28.8324 1.97854L28.2134 2.57988L28.3946 2.47501C28.4784 2.43117 28.5759 2.42141 28.6667 2.44776C28.7575 2.47411 28.8347 2.53454 28.882 2.61641C28.9293 2.69829 28.9432 2.79529 28.9207 2.88714C28.8982 2.979 28.8411 3.05861 28.7612 3.10934L26.0156 4.69335C25.9382 4.73929 25.8465 4.75511 25.7581 4.73777C25.6697 4.72044 25.5908 4.67117 25.5364 4.59937C25.482 4.52757 25.4559 4.43825 25.4631 4.34847C25.4704 4.25868 25.5104 4.1747 25.5756 4.11254L26.196 3.51121L24.1493 4.69335C24.0688 4.73958 23.9737 4.75353 23.8832 4.73236C23.7928 4.7112 23.7138 4.65651 23.6621 4.57933C23.6104 4.50215 23.59 4.40823 23.6049 4.31656C23.6197 4.22488 23.6689 4.14227 23.7423 4.08541L23.9821 3.90061L22.6086 4.69335C22.5298 4.73776 22.4373 4.75148 22.349 4.73186C22.2607 4.71224 22.1828 4.66068 22.1302 4.58707C22.0776 4.51347 22.0541 4.42303 22.0642 4.33313C22.0742 4.24324 22.1172 4.16023 22.1847 4.10008L23.5113 2.94434L20.4797 4.69335C20.4243 4.72653 20.361 4.74425 20.2964 4.74468Z" fill="#E1EFFF"/>
<path d="M26.4579 16.8843C26.3894 16.8841 26.3224 16.8647 26.2643 16.8284C26.2063 16.792 26.1596 16.7401 26.1295 16.6786C26.0995 16.6171 26.0872 16.5484 26.0942 16.4803C26.1012 16.4122 26.1271 16.3474 26.169 16.2932L26.8114 15.4653C26.7733 15.4364 26.7416 15.3999 26.7182 15.3582C26.6698 15.2741 26.6566 15.1743 26.6816 15.0806C26.7067 14.9868 26.7678 14.9068 26.8517 14.8581L27.695 14.3719C27.7686 14.33 27.8544 14.3148 27.9379 14.329C28.0213 14.3432 28.0973 14.3858 28.1529 14.4496C28.2085 14.5134 28.2404 14.5945 28.243 14.6791C28.2456 14.7637 28.2189 14.8467 28.1673 14.9138L27.8945 15.2651L29.4433 14.3733C29.485 14.3468 29.5317 14.329 29.5805 14.321C29.6293 14.3129 29.6792 14.3149 29.7273 14.3266C29.7753 14.3384 29.8204 14.3598 29.86 14.3894C29.8996 14.4191 29.9327 14.4565 29.9575 14.4993C29.9822 14.5421 29.998 14.5895 30.004 14.6386C30.01 14.6876 30.0059 14.7374 29.9922 14.7849C29.9784 14.8324 29.9551 14.8766 29.9238 14.9149C29.8925 14.9532 29.8538 14.9847 29.81 15.0077L26.6412 16.8366C26.5855 16.8686 26.5222 16.8851 26.4579 16.8843Z" fill="#CAB5CF"/>
<path d="M15.9766 30.4289C15.8978 30.4288 15.8212 30.4033 15.7581 30.3562C15.6949 30.3091 15.6486 30.243 15.626 30.1676C15.6034 30.0921 15.6056 30.0114 15.6325 29.9374C15.6593 29.8633 15.7092 29.7999 15.7749 29.7564L19.7136 27.1538L15.3004 29.7C15.2183 29.7476 15.1208 29.7616 15.0286 29.7388C14.9364 29.7161 14.8565 29.6584 14.806 29.578C14.7554 29.4976 14.738 29.4007 14.7575 29.3077C14.7769 29.2148 14.8317 29.133 14.9103 29.0796L22.0449 24.2117L15.1002 28.2201C15.0178 28.2662 14.9207 28.2787 14.8292 28.255C14.7377 28.2313 14.6589 28.1732 14.6093 28.0928C14.5596 28.0124 14.5429 27.9159 14.5627 27.8235C14.5824 27.7311 14.6371 27.6499 14.7152 27.5968L19.3638 24.552L14.9477 27.1018C14.9065 27.1268 14.8608 27.1434 14.8132 27.1507C14.7656 27.1581 14.7171 27.1559 14.6703 27.1445C14.6235 27.1331 14.5794 27.1125 14.5406 27.084C14.5017 27.0556 14.4689 27.0197 14.4439 26.9786C14.4189 26.9374 14.4023 26.8917 14.3949 26.8441C14.3876 26.7965 14.3897 26.7479 14.4012 26.7011C14.4126 26.6544 14.4331 26.6103 14.4616 26.5715C14.4901 26.5326 14.5259 26.4998 14.5671 26.4748L16.0147 25.5544L14.8304 26.2379C14.7475 26.285 14.6496 26.2981 14.5574 26.2743C14.4651 26.2505 14.3857 26.1917 14.3361 26.1104C14.2864 26.029 14.2703 25.9316 14.2913 25.8386C14.3122 25.7457 14.3685 25.6645 14.4483 25.6124L17.455 23.6837L14.7006 25.2736C14.6203 25.3198 14.5255 25.3339 14.4352 25.3131C14.3449 25.2923 14.2658 25.2381 14.2139 25.1613C14.162 25.0846 14.141 24.9911 14.1553 24.8995C14.1695 24.808 14.2179 24.7252 14.2906 24.6678L17.7087 21.9853L14.5033 23.8333C14.4233 23.8787 14.3291 23.8924 14.2395 23.8717C14.1499 23.8509 14.0713 23.7972 14.0194 23.7212C13.9676 23.6452 13.9461 23.5525 13.9594 23.4615C13.9727 23.3705 14.0197 23.2877 14.0912 23.2298L16.2142 21.5284L14.3376 22.6123C14.2595 22.657 14.1677 22.6715 14.0796 22.6529C13.9916 22.6343 13.9134 22.584 13.8601 22.5115C13.8067 22.439 13.7819 22.3495 13.7903 22.2599C13.7987 22.1703 13.8397 22.0869 13.9056 22.0256L16.1144 19.9921L14.1344 21.1332C14.055 21.1779 13.9618 21.1915 13.8729 21.1713C13.7841 21.1511 13.7059 21.0985 13.6537 21.0238C13.6015 20.949 13.579 20.8576 13.5906 20.7672C13.6022 20.6768 13.6471 20.5939 13.7164 20.5348L14.6177 19.7824L13.9995 20.1388C13.9215 20.1817 13.8305 20.1948 13.7435 20.1755C13.6566 20.1563 13.5796 20.106 13.5269 20.0342C13.4743 19.9623 13.4496 19.8738 13.4575 19.7851C13.4654 19.6964 13.5053 19.6136 13.5698 19.5521L14.7218 18.5078L13.8462 19.0138C13.7674 19.0596 13.6743 19.0744 13.5851 19.0553C13.496 19.0362 13.4171 18.9846 13.364 18.9104C13.3109 18.8363 13.2873 18.7451 13.2978 18.6545C13.3083 18.5639 13.3522 18.4805 13.4209 18.4206L14.0978 17.8273L13.715 18.0473C13.637 18.0892 13.5465 18.1014 13.4602 18.0817C13.3739 18.0621 13.2976 18.0119 13.2454 17.9404C13.1933 17.8689 13.1687 17.781 13.1763 17.6928C13.1839 17.6046 13.2231 17.5222 13.2867 17.4606L13.8858 16.9216L13.5852 17.0954C13.5206 17.1326 13.4462 17.1493 13.3719 17.1431C13.2976 17.137 13.227 17.1083 13.1694 17.061C13.1118 17.0137 13.07 16.95 13.0496 16.8783C13.0291 16.8066 13.031 16.7304 13.055 16.6598L13.4517 15.496L13.44 15.5034C13.3982 15.5274 13.3521 15.5431 13.3043 15.5493C13.2566 15.5556 13.208 15.5524 13.1615 15.5399C13.1149 15.5274 13.0713 15.5059 13.0331 15.4765C12.9949 15.4471 12.9628 15.4106 12.9387 15.3688C12.9146 15.3271 12.899 15.281 12.8928 15.2332C12.8865 15.1854 12.8897 15.1369 12.9022 15.0903C12.9147 15.0438 12.9362 15.0002 12.9656 14.9619C12.9949 14.9237 13.0315 14.8916 13.0733 14.8676L13.9335 14.3733C13.9981 14.3359 14.0726 14.319 14.147 14.3251C14.2214 14.3311 14.2922 14.3597 14.35 14.407C14.4077 14.4544 14.4496 14.5183 14.47 14.5901C14.4905 14.6619 14.4885 14.7382 14.4644 14.8089L14.0684 15.9712L16.5618 14.5317C16.6397 14.4899 16.7302 14.4776 16.8165 14.4973C16.9028 14.5169 16.9791 14.5671 17.0313 14.6386C17.0835 14.7101 17.108 14.798 17.1004 14.8862C17.0929 14.9744 17.0536 15.0568 16.99 15.1184L16.3902 15.6581L16.9519 15.3332C17.0307 15.2874 17.1238 15.2726 17.213 15.2918C17.3021 15.3109 17.381 15.3625 17.4341 15.4366C17.4872 15.5107 17.5108 15.602 17.5003 15.6926C17.4898 15.7831 17.4459 15.8665 17.3772 15.9265L16.7018 16.5198L17.3376 16.1531C17.4157 16.1102 17.5066 16.0971 17.5936 16.1164C17.6806 16.1356 17.7575 16.1858 17.8102 16.2577C17.8628 16.3295 17.8875 16.4181 17.8796 16.5068C17.8717 16.5955 17.8318 16.6783 17.7674 16.7398L16.6138 17.7848L17.9338 17.0236C18.0132 16.9781 18.1068 16.9639 18.1961 16.9839C18.2855 17.0038 18.3641 17.0565 18.4166 17.1315C18.469 17.2065 18.4916 17.2984 18.4797 17.3891C18.4679 17.4799 18.4225 17.563 18.3526 17.622L17.4513 18.3751L18.6166 17.7026C18.6946 17.6579 18.7865 17.6435 18.8745 17.6621C18.9625 17.6807 19.0407 17.731 19.094 17.8034C19.1474 17.8759 19.1722 17.9655 19.1638 18.055C19.1554 18.1446 19.1144 18.228 19.0485 18.2893L16.8404 20.3228L20.0202 18.4866C20.1002 18.4411 20.1943 18.4275 20.2839 18.4482C20.3736 18.469 20.4521 18.5227 20.504 18.5986C20.5559 18.6746 20.5773 18.7673 20.564 18.8584C20.5507 18.9494 20.5037 19.0321 20.4323 19.0901L18.31 20.7907L21.808 18.7711C21.8883 18.7249 21.9831 18.7107 22.0734 18.7316C22.1637 18.7524 22.2427 18.8066 22.2947 18.8833C22.3466 18.9601 22.3675 19.0536 22.3533 19.1452C22.3391 19.2367 22.2907 19.3195 22.218 19.3768L18.8006 22.0586L30.5802 15.2614C30.663 15.2142 30.7609 15.2012 30.8531 15.225C30.9454 15.2488 31.0248 15.3076 31.0745 15.3889C31.1241 15.4702 31.1402 15.5677 31.1192 15.6606C31.0983 15.7536 31.042 15.8348 30.9622 15.8869L27.9556 17.8156L30.4269 16.3892C30.5098 16.3429 30.6074 16.3305 30.6992 16.3547C30.791 16.3789 30.8698 16.4377 30.9191 16.5189C30.9684 16.6 30.9844 16.6971 30.9635 16.7897C30.9427 16.8823 30.8868 16.9633 30.8075 17.0155L29.3526 17.941L30.2912 17.3998C30.3736 17.3549 30.4701 17.3434 30.5607 17.3675C30.6514 17.3916 30.7294 17.4496 30.7786 17.5294C30.8278 17.6093 30.8446 17.705 30.8254 17.7968C30.8062 17.8886 30.7526 17.9696 30.6755 18.0231L26.0298 21.0664L30.1152 18.7073C30.1973 18.6604 30.2942 18.647 30.3859 18.6699C30.4776 18.6927 30.5569 18.7501 30.6073 18.83C30.6577 18.9099 30.6753 19.0062 30.6565 19.0988C30.6376 19.1914 30.5837 19.2731 30.5061 19.327L23.3708 24.1963L29.882 20.4372C29.9645 20.3911 30.0616 20.3786 30.1531 20.4023C30.2445 20.426 30.3233 20.4842 30.373 20.5646C30.4226 20.645 30.4393 20.7414 30.4196 20.8338C30.3999 20.9263 30.3452 21.0075 30.267 21.0606L26.3268 23.6639L29.7104 21.7103C29.7925 21.6641 29.8892 21.6513 29.9805 21.6745C30.0718 21.6977 30.1506 21.7552 30.2007 21.835C30.2508 21.9147 30.2682 22.0107 30.2495 22.103C30.2307 22.1953 30.1771 22.2768 30.0998 22.3307L26.4163 24.8424L29.5308 23.045C29.6128 23 29.7089 22.9881 29.7994 23.0117C29.89 23.0352 29.9681 23.0925 30.0177 23.1718C30.0674 23.2511 30.0849 23.3464 30.0666 23.4381C30.0483 23.5299 29.9957 23.6112 29.9194 23.6654L28.5708 24.5776L29.3878 24.1061C29.468 24.0599 29.5629 24.0457 29.6531 24.0666C29.7434 24.0874 29.8225 24.1416 29.8744 24.2183C29.9263 24.2951 29.9473 24.3886 29.9331 24.4802C29.9188 24.5717 29.8705 24.6545 29.7977 24.7118L26.6876 27.1516L29.1707 25.718C29.2494 25.6724 29.3421 25.6578 29.431 25.6768C29.5199 25.6958 29.5985 25.7471 29.6517 25.8209C29.7049 25.8946 29.7288 25.9854 29.7187 26.0758C29.7087 26.1661 29.6655 26.2495 29.5975 26.3098L27.7781 27.9231L28.9661 27.2382C29.0414 27.195 29.1295 27.1799 29.2148 27.1956C29.3001 27.2113 29.3771 27.2568 29.4321 27.3239C29.4871 27.391 29.5165 27.4755 29.5151 27.5622C29.5137 27.649 29.4816 27.7324 29.4244 27.7977L28.7094 28.608L28.7879 28.5626C28.855 28.5238 28.9328 28.5073 29.0099 28.5155C29.087 28.5237 29.1595 28.5561 29.217 28.6081C29.2745 28.6601 29.3141 28.729 29.33 28.8048C29.346 28.8807 29.3374 28.9597 29.3056 29.0304L29.079 29.5328C29.1124 29.5607 29.1407 29.5942 29.1626 29.6318C29.2112 29.716 29.2244 29.8161 29.1993 29.91C29.1741 30.0039 29.1126 30.084 29.0284 30.1326L28.6302 30.3622C28.5631 30.4008 28.4856 30.4171 28.4086 30.4089C28.3316 30.4008 28.2592 30.3684 28.2018 30.3166C28.1443 30.2647 28.1047 30.196 28.0887 30.1203C28.0726 30.0446 28.081 29.9657 28.1125 29.895L28.1704 29.766L27.1335 30.3644C27.0582 30.4075 26.9701 30.4226 26.8848 30.4069C26.7994 30.3912 26.7224 30.3457 26.6675 30.2786C26.6125 30.2115 26.5831 30.1271 26.5845 30.0403C26.5859 29.9536 26.618 29.8701 26.6752 29.8048L27.3909 28.9938L25.0068 30.3673C24.9283 30.412 24.8359 30.4261 24.7476 30.4069C24.6593 30.3877 24.5811 30.3365 24.5282 30.2633C24.4753 30.19 24.4513 30.0997 24.4609 30.0098C24.4704 29.9199 24.5129 29.8367 24.58 29.7762L26.4002 28.16L22.5744 30.3688C22.4941 30.4141 22.3997 30.4276 22.31 30.4064C22.2202 30.3853 22.1418 30.3312 22.0902 30.2548C22.0386 30.1784 22.0176 30.0854 22.0315 29.9942C22.0454 29.9031 22.0931 29.8206 22.1652 29.763L25.2745 27.324L19.9945 30.3724C19.9122 30.4212 19.8141 30.4359 19.7212 30.4133C19.6282 30.3908 19.5477 30.3328 19.4969 30.2517C19.4461 30.1707 19.429 30.073 19.4492 29.9795C19.4694 29.886 19.5253 29.8041 19.6051 29.7513L20.9537 28.8398L18.2946 30.3746C18.2125 30.4208 18.1158 30.4336 18.0245 30.4104C17.9333 30.3872 17.8544 30.3297 17.8043 30.25C17.7543 30.1702 17.7368 30.0742 17.7556 29.9819C17.7744 29.8896 17.828 29.8081 17.9052 29.7542L21.5895 27.2418L16.1584 30.3776C16.1034 30.4105 16.0407 30.4282 15.9766 30.4289Z" fill="#CAB5CF"/>
<path d="M21.1844 27.3181C21.1105 27.3181 21.0384 27.2957 20.9774 27.2539C20.9165 27.2121 20.8696 27.1529 20.8429 27.084C20.8161 27.0151 20.8109 26.9398 20.8277 26.8678C20.8446 26.7959 20.8828 26.7307 20.9373 26.6809L21.3362 26.3142L20.6029 26.7388C20.527 26.7829 20.4377 26.7982 20.3514 26.7821C20.2651 26.7659 20.1875 26.7194 20.1326 26.6508C20.0777 26.5823 20.0493 26.4963 20.0524 26.4086C20.0555 26.3208 20.0901 26.2371 20.1497 26.1727L21.4638 24.7449L20.0331 25.5706C19.9597 25.6126 19.874 25.6279 19.7905 25.614C19.7071 25.6 19.6311 25.5576 19.5753 25.494C19.5195 25.4304 19.4875 25.3495 19.4846 25.2649C19.4817 25.1804 19.5081 25.0974 19.5594 25.0301L20.3587 23.9888C20.2795 24.0113 20.1952 24.0069 20.1188 23.9764C20.0424 23.9459 19.9782 23.8909 19.9363 23.8201C19.8878 23.7361 19.8747 23.6362 19.8997 23.5425C19.9247 23.4487 19.9859 23.3687 20.0698 23.32L21.5731 22.4517C21.6465 22.4093 21.7324 22.3937 21.8161 22.4075C21.8998 22.4213 21.9761 22.4636 22.032 22.5274C22.088 22.5911 22.1201 22.6722 22.1229 22.757C22.1258 22.8417 22.0991 22.9249 22.0476 22.9922L21.2629 24.0145L23.1754 22.9145C23.2514 22.8704 23.3406 22.855 23.4269 22.8712C23.5132 22.8873 23.5909 22.9339 23.6457 23.0024C23.7006 23.071 23.7291 23.1569 23.7259 23.2447C23.7228 23.3324 23.6883 23.4161 23.6286 23.4806L22.3152 24.9077L23.9036 23.9903C23.9817 23.9468 24.0729 23.9333 24.1602 23.9523C24.2475 23.9713 24.3249 24.0216 24.3778 24.0936C24.4306 24.1657 24.4554 24.2545 24.4473 24.3435C24.4393 24.4325 24.399 24.5155 24.3341 24.5769L23.9337 24.9436L23.9762 24.9187C24.0604 24.8708 24.1601 24.8582 24.2535 24.8835C24.347 24.9089 24.4266 24.9702 24.475 25.0541C24.5234 25.1379 24.5367 25.2375 24.5119 25.3311C24.4872 25.4247 24.4264 25.5048 24.3429 25.5537L21.3707 27.2697C21.314 27.3022 21.2497 27.3189 21.1844 27.3181Z" fill="#3B2186"/>
<path d="M21.0173 43.4602C20.9386 43.4601 20.862 43.4347 20.7989 43.3878C20.7357 43.3409 20.6893 43.2749 20.6666 43.1996C20.6438 43.1243 20.6459 43.0437 20.6724 42.9697C20.699 42.8956 20.7487 42.8321 20.8141 42.7884L28.4789 37.6698L19.8579 42.6469C19.7753 42.6917 19.6786 42.7031 19.5879 42.6788C19.4971 42.6544 19.4192 42.5961 19.3701 42.5159C19.3211 42.4358 19.3047 42.3398 19.3244 42.2479C19.3441 42.156 19.3983 42.0752 19.4758 42.0221L25.1034 38.3833L18.9067 41.9605C18.8243 42.0066 18.7272 42.0191 18.6357 41.9954C18.5442 41.9717 18.4654 41.9136 18.4158 41.8332C18.3661 41.7528 18.3494 41.6563 18.3692 41.5639C18.3889 41.4715 18.4436 41.3903 18.5217 41.3372L25.7883 36.539L17.795 41.159C17.7128 41.2066 17.6154 41.2206 17.5231 41.1978C17.4309 41.1751 17.3511 41.1174 17.3005 41.037C17.25 40.9566 17.2326 40.8597 17.252 40.7667C17.2715 40.6737 17.3263 40.5919 17.4049 40.5386L25.0799 35.3033L15.8517 40.6266C15.7692 40.6708 15.6729 40.6819 15.5826 40.6575C15.4922 40.633 15.4146 40.575 15.3657 40.4952C15.3168 40.4154 15.3002 40.32 15.3194 40.2284C15.3385 40.1367 15.392 40.0559 15.4689 40.0025L19.6965 37.2532L13.846 40.6266C13.7635 40.6727 13.6664 40.6852 13.5749 40.6615C13.4835 40.6378 13.4047 40.5796 13.355 40.4992C13.3054 40.4188 13.2887 40.3224 13.3084 40.23C13.3282 40.1375 13.3828 40.0563 13.461 40.0032L18.5276 36.6688L11.6709 40.6288C11.5883 40.673 11.4918 40.6839 11.4014 40.6592C11.3109 40.6346 11.2334 40.5762 11.1846 40.4961C11.1359 40.416 11.1197 40.3203 11.1393 40.2286C11.159 40.1369 11.213 40.0563 11.2903 40.0032L13.9406 38.3034L9.91312 40.6266C9.83057 40.6744 9.73261 40.6882 9.64005 40.665C9.54749 40.6418 9.46762 40.5834 9.41741 40.5023C9.3672 40.4212 9.35059 40.3236 9.37113 40.2304C9.39166 40.1373 9.44772 40.0557 9.52739 40.0032L14.6776 36.6101L7.80625 40.5767C7.72422 40.6266 7.62588 40.6424 7.53236 40.6205C7.43884 40.5987 7.35762 40.5411 7.30613 40.46C7.25465 40.379 7.23703 40.2809 7.25705 40.187C7.27706 40.0931 7.33313 40.0108 7.41319 39.9578L14.7627 34.8692L6.45325 39.6688C6.37028 39.7175 6.27152 39.7315 6.17826 39.708C6.085 39.6845 6.00471 39.6253 5.95469 39.5432C5.90467 39.461 5.88893 39.3625 5.91086 39.2689C5.93279 39.1752 5.99063 39.094 6.07192 39.0426L6.79792 38.5791L6.13792 38.9597C6.05557 39.0074 5.95788 39.0213 5.86552 38.9983C5.77315 38.9753 5.69334 38.9173 5.64296 38.8365C5.59258 38.7558 5.57558 38.6586 5.59555 38.5655C5.61553 38.4725 5.67091 38.3908 5.74999 38.3378L9.61612 35.736L6.07192 37.7812C5.991 37.8279 5.8953 37.842 5.80437 37.8205C5.71344 37.799 5.63413 37.7437 5.58265 37.6657C5.53117 37.5877 5.5114 37.493 5.52737 37.401C5.54334 37.3089 5.59385 37.2264 5.66859 37.1704L10.5819 33.4993L6.07192 36.1012C5.98989 36.148 5.89292 36.1615 5.80124 36.1386C5.70956 36.1157 5.63024 36.0584 5.57983 35.9784C5.52942 35.8985 5.51181 35.8022 5.53067 35.7096C5.54952 35.6171 5.6034 35.5353 5.68105 35.4815L6.25232 35.0892L6.07192 35.1926C5.99169 35.2371 5.89768 35.2499 5.80846 35.2285C5.71923 35.2071 5.64127 35.153 5.58997 35.077C5.53866 35.0009 5.51775 34.9083 5.53136 34.8176C5.54496 34.7269 5.5921 34.6445 5.66345 34.5868L7.66839 33.0182L6.07192 33.9393C5.99194 33.9839 5.89816 33.997 5.80902 33.976C5.71989 33.9549 5.64185 33.9013 5.59026 33.8256C5.53868 33.75 5.51728 33.6577 5.53028 33.567C5.54328 33.4764 5.58974 33.3939 5.66052 33.3358L6.26845 32.8503L6.07192 32.9632C5.99862 33.0053 5.91302 33.0208 5.82961 33.0071C5.7462 32.9933 5.67011 32.9512 5.6142 32.8878C5.5583 32.8244 5.52602 32.7436 5.52283 32.6591C5.51965 32.5746 5.54575 32.4917 5.59672 32.4242L6.43639 31.3205C6.35599 31.3478 6.26861 31.3464 6.18917 31.3164C6.10973 31.2865 6.04315 31.2299 6.00079 31.1563C5.95234 31.0722 5.93918 30.9724 5.9642 30.8786C5.98921 30.7849 6.05036 30.7049 6.13425 30.6562L7.63759 29.7879C7.71088 29.7458 7.79648 29.7303 7.87989 29.744C7.9633 29.7578 8.0394 29.7999 8.09531 29.8633C8.15121 29.9267 8.18349 30.0075 8.18667 30.092C8.18986 30.1765 8.16376 30.2594 8.11279 30.3269L7.28412 31.4173L10.1346 29.7732C10.2146 29.7278 10.3088 29.7141 10.3984 29.7349C10.488 29.7556 10.5666 29.8093 10.6184 29.8853C10.6703 29.9613 10.6917 30.054 10.6785 30.145C10.6652 30.236 10.6182 30.3188 10.5467 30.3767L9.93805 30.8622L11.8257 29.7732C11.9059 29.7279 12.0003 29.7144 12.09 29.7355C12.1798 29.7567 12.2583 29.8108 12.3099 29.8872C12.3615 29.9636 12.3824 30.0566 12.3685 30.1477C12.3546 30.2389 12.3069 30.3214 12.2349 30.3789L10.2285 31.9475L13.9971 29.7732C14.0789 29.7281 14.1749 29.716 14.2654 29.7393C14.3559 29.7626 14.4341 29.8196 14.484 29.8986C14.5339 29.9776 14.5517 30.0727 14.5339 30.1644C14.516 30.2562 14.4638 30.3376 14.3879 30.3921L13.8211 30.7823L15.5686 29.7732C15.6495 29.7265 15.7452 29.7125 15.8361 29.7339C15.9271 29.7554 16.0064 29.8108 16.0579 29.8888C16.1093 29.9667 16.1291 30.0614 16.1131 30.1535C16.0972 30.2455 16.0467 30.328 15.9719 30.3841L11.0586 34.0559L18.4799 29.7732C18.5621 29.7264 18.6593 29.7131 18.7511 29.7362C18.8428 29.7593 18.9221 29.8171 18.9723 29.8973C19.0225 29.9775 19.0397 30.074 19.0204 30.1667C19.0011 30.2593 18.9467 30.3409 18.8686 30.3943L15.0017 32.9962L20.5853 29.7695C20.6681 29.7241 20.7651 29.7122 20.8564 29.7365C20.9476 29.7608 21.026 29.8194 21.0751 29.9C21.1242 29.9806 21.1404 30.0771 21.1202 30.1693C21.1 30.2615 21.045 30.3424 20.9667 30.3951L20.2451 30.8556L22.1275 29.7732C22.2093 29.7275 22.3055 29.7149 22.3963 29.7378C22.4872 29.7608 22.5658 29.8177 22.616 29.8968C22.6662 29.9759 22.6842 30.0713 22.6663 30.1632C22.6484 30.2552 22.596 30.3369 22.5199 30.3914L15.1675 35.4822L25.0594 29.7732C25.1419 29.7271 25.239 29.7146 25.3304 29.7383C25.4219 29.762 25.5007 29.8201 25.5503 29.9005C25.6 29.9809 25.6167 30.0774 25.597 30.1698C25.5772 30.2622 25.5226 30.3435 25.4444 30.3965L20.2986 33.786L27.2521 29.7732C27.3348 29.7277 27.4319 29.7159 27.5231 29.7402C27.6143 29.7645 27.6927 29.823 27.7418 29.9036C27.791 29.9843 27.8071 30.0807 27.7869 30.1729C27.7667 30.2652 27.7117 30.3461 27.6334 30.3987L24.978 32.1008L29.0113 29.7732C29.0937 29.7284 29.1902 29.7168 29.2808 29.7409C29.3715 29.7651 29.4495 29.823 29.4987 29.9029C29.5479 29.9827 29.5647 30.0784 29.5455 30.1703C29.5263 30.2621 29.4727 30.3431 29.3956 30.3965L24.3297 33.7332L31.1857 29.7732C31.2682 29.7278 31.3651 29.7158 31.4562 29.7399C31.5473 29.7639 31.6256 29.8221 31.6749 29.9024C31.7243 29.9827 31.7408 30.0789 31.7211 30.171C31.7014 30.2632 31.647 30.3442 31.5692 30.3973L27.3445 33.1466L33.1913 29.7732C33.2732 29.7287 33.369 29.7171 33.4592 29.7407C33.5494 29.7643 33.6272 29.8214 33.6768 29.9003C33.7264 29.9792 33.7441 30.0741 33.7262 30.1656C33.7084 30.2571 33.6564 30.3384 33.5807 30.3929L25.9093 35.6223L36.0139 29.7886C36.0965 29.7408 36.1944 29.727 36.287 29.7502C36.3796 29.7734 36.4594 29.8317 36.5096 29.9129C36.5599 29.994 36.5765 30.0915 36.5559 30.1847C36.5354 30.2779 36.4793 30.3594 36.3997 30.4119L29.1301 35.2124L37.3435 30.4706C37.4261 30.4258 37.5227 30.4144 37.6135 30.4388C37.7042 30.4631 37.7822 30.5214 37.8312 30.6016C37.8802 30.6818 37.8966 30.7777 37.8769 30.8696C37.8573 30.9615 37.8031 31.0423 37.7255 31.0954L32.1016 34.7313L37.8583 31.4086C37.9407 31.3617 38.038 31.3485 38.1299 31.3719C38.2218 31.3953 38.3011 31.4533 38.3511 31.5339C38.4011 31.6144 38.4179 31.7112 38.3981 31.804C38.3783 31.8967 38.3233 31.9781 38.2447 32.0312L30.5799 37.1491L37.9279 32.9068C38.0095 32.8602 38.1058 32.8468 38.197 32.8691C38.2881 32.8915 38.3673 32.948 38.418 33.027C38.4688 33.1059 38.4874 33.2014 38.4698 33.2936C38.4523 33.3859 38.4001 33.4679 38.3239 33.5228L34.6866 36.11L37.9309 34.2378C38.0117 34.1921 38.107 34.1788 38.1972 34.2006C38.2875 34.2224 38.3662 34.2777 38.4173 34.3553C38.4684 34.4328 38.4882 34.5269 38.4726 34.6185C38.4571 34.71 38.4073 34.7923 38.3335 34.8486L35.6634 36.8345L37.9309 35.5255C38.0112 35.4789 38.1063 35.4646 38.1968 35.4855C38.2874 35.5063 38.3666 35.5607 38.4186 35.6377C38.4705 35.7147 38.4913 35.8086 38.4767 35.9003C38.4622 35.992 38.4133 36.0748 38.3401 36.132L36.6923 37.427L37.9309 36.7128C38.0077 36.671 38.0969 36.6581 38.1824 36.6763C38.268 36.6946 38.3442 36.7428 38.3973 36.8123C38.4504 36.8817 38.4769 36.9679 38.472 37.0552C38.4672 37.1425 38.4313 37.2252 38.3709 37.2884L37.0509 38.6084L37.9037 38.1164C37.9879 38.0685 38.0876 38.0559 38.181 38.0813C38.2745 38.1066 38.3541 38.1679 38.4025 38.2518C38.4509 38.3356 38.4642 38.4352 38.4394 38.5288C38.4147 38.6224 38.3539 38.7025 38.2704 38.7514L35.0261 40.6266C34.9493 40.6683 34.8601 40.6812 34.7745 40.663C34.689 40.6447 34.6128 40.5965 34.5597 40.5271C34.5066 40.4576 34.4801 40.3714 34.4849 40.2841C34.4898 40.1968 34.5257 40.1141 34.5861 40.0509L35.9061 38.7309L32.6113 40.6266C32.531 40.6728 32.4362 40.6869 32.3459 40.6661C32.2556 40.6453 32.1765 40.5911 32.1246 40.5143C32.0727 40.4376 32.0517 40.344 32.066 40.2525C32.0802 40.1609 32.1286 40.0782 32.2013 40.0208L33.8506 38.725L30.555 40.6266C30.474 40.6737 30.378 40.688 30.2867 40.6666C30.1954 40.6451 30.1159 40.5895 30.0643 40.5112C30.0128 40.4329 29.9932 40.3379 30.0096 40.2456C30.0259 40.1533 30.0771 40.0707 30.1524 40.015L32.8225 38.0298L28.3235 40.6266C28.2421 40.6715 28.1466 40.6839 28.0564 40.6612C27.9663 40.6384 27.8881 40.5823 27.8378 40.5041C27.7874 40.4259 27.7687 40.3315 27.7854 40.24C27.802 40.1485 27.8528 40.0667 27.9275 40.0113L31.5655 37.4248L21.2006 43.4132C21.1446 43.4446 21.0814 43.4608 21.0173 43.4602Z" fill="#D3B571"/>
<path d="M19.2542 37.7095C19.1905 37.7095 19.1279 37.693 19.0726 37.6615C19.0172 37.63 18.971 37.5847 18.9386 37.5299C18.9061 37.4751 18.8884 37.4128 18.8873 37.3492C18.8862 37.2855 18.9017 37.2227 18.9322 37.1668L18.9828 37.0744L18.3514 37.4411C18.276 37.4847 18.1875 37.5 18.1018 37.4843C18.0162 37.4686 17.9389 37.4229 17.8838 37.3554C17.8287 37.2879 17.7995 37.203 17.8013 37.1159C17.8032 37.0288 17.836 36.9452 17.8938 36.8801L18.6572 36.0199L16.9332 37.015C16.855 37.0625 16.762 37.0791 16.6722 37.0616C16.5825 37.044 16.5025 36.9935 16.4481 36.9201C16.3936 36.8466 16.3686 36.7554 16.3779 36.6645C16.3872 36.5735 16.4301 36.4893 16.4983 36.4283L16.9918 35.9619L16.8063 36.069C16.734 36.1106 16.6497 36.1263 16.5673 36.1135C16.4849 36.1007 16.4093 36.0602 16.353 35.9987C16.2967 35.9372 16.2631 35.8583 16.2576 35.7751C16.2522 35.6919 16.2752 35.6093 16.323 35.541L17.5264 33.8316C17.4752 33.7999 17.4328 33.7558 17.4032 33.7033C17.3546 33.6191 17.3413 33.5191 17.3663 33.4252C17.3913 33.3313 17.4526 33.2512 17.5367 33.2024L18.3331 32.7419C18.4054 32.7003 18.4897 32.6846 18.5721 32.6974C18.6545 32.7102 18.7301 32.7506 18.7864 32.8122C18.8427 32.8737 18.8763 32.9525 18.8818 33.0357C18.8872 33.119 18.8642 33.2015 18.8164 33.2699L17.8792 34.6045L19.3378 33.7627C19.4159 33.7152 19.509 33.6986 19.5987 33.7161C19.6885 33.7337 19.7684 33.7841 19.8228 33.8576C19.8773 33.9311 19.9023 34.0222 19.8931 34.1132C19.8838 34.2042 19.8408 34.2884 19.7726 34.3493L19.2791 34.8157L20.2486 34.2562C20.324 34.2126 20.4125 34.1973 20.4982 34.213C20.5839 34.2287 20.6612 34.2744 20.7162 34.3419C20.7713 34.4094 20.8005 34.4943 20.7987 34.5814C20.7968 34.6685 20.764 34.7521 20.7062 34.8172L19.8863 35.7412C19.9536 35.732 20.0221 35.7417 20.0842 35.7692C20.1464 35.7966 20.1996 35.8408 20.2381 35.8968C20.2766 35.9527 20.2988 36.0183 20.3022 36.0861C20.3056 36.154 20.2901 36.2214 20.2574 36.2809L20.0601 36.6417C20.127 36.6731 20.1826 36.7243 20.2192 36.7884C20.2679 36.8725 20.2812 36.9726 20.2562 37.0665C20.2312 37.1604 20.1699 37.2405 20.0858 37.2893L19.439 37.6618C19.3828 37.6941 19.3189 37.7105 19.2542 37.7095Z" fill="#F2CF7E"/>
<path d="M33.5784 37.609C33.5118 37.6089 33.4465 37.5907 33.3894 37.5563C33.3324 37.5219 33.2858 37.4726 33.2547 37.4138C33.2235 37.3549 33.209 37.2886 33.2127 37.2221C33.2164 37.1556 33.2381 37.0914 33.2755 37.0363L33.9656 36.0228L31.6299 37.3714C31.5536 37.415 31.464 37.4298 31.3777 37.4129C31.2914 37.396 31.214 37.3487 31.1597 37.2795C31.1054 37.2103 31.0777 37.1239 31.0818 37.0361C31.0859 36.9482 31.1214 36.8647 31.1819 36.8009L32.2269 35.7082L31.5038 36.1255C31.432 36.1669 31.3482 36.1827 31.2663 36.1704C31.1843 36.158 31.1089 36.1183 31.0524 36.0576C30.9959 35.997 30.9617 35.919 30.9552 35.8363C30.9488 35.7537 30.9705 35.6713 31.0169 35.6026L32.2093 33.8426C32.1501 33.8105 32.1011 33.7625 32.0677 33.704C32.0191 33.6199 32.0058 33.5199 32.0308 33.426C32.0558 33.332 32.1171 33.2519 32.2012 33.2031L32.9998 32.7419C33.0716 32.7005 33.1554 32.6847 33.2373 32.697C33.3193 32.7093 33.3947 32.7491 33.4512 32.8097C33.5076 32.8704 33.5419 32.9484 33.5484 33.031C33.5548 33.1137 33.5331 33.196 33.4867 33.2647L32.5202 34.6933L34.0837 33.7905C34.16 33.7469 34.2496 33.7322 34.3359 33.7491C34.4222 33.766 34.4996 33.8133 34.5539 33.8825C34.6082 33.9516 34.6359 34.038 34.6318 34.1259C34.6277 34.2138 34.5922 34.2972 34.5317 34.3611L33.486 35.4537L34.9923 34.5847C35.0642 34.5435 35.1479 34.5277 35.2299 34.5402C35.3119 34.5526 35.3872 34.5924 35.4436 34.6532C35.5 34.7139 35.5342 34.792 35.5405 34.8747C35.5468 34.9573 35.525 35.0397 35.4785 35.1083L34.6637 36.3044C34.7362 36.3201 34.8021 36.3573 34.853 36.4111C34.9038 36.465 34.9372 36.533 34.9486 36.6062C34.96 36.6794 34.949 36.7544 34.917 36.8212C34.885 36.888 34.8335 36.9436 34.7693 36.9805L33.7632 37.5606C33.707 37.5928 33.6432 37.6095 33.5784 37.609Z" fill="#F2CF7E"/>
<path d="M11.0961 37.4735C11.028 37.4735 10.9612 37.4545 10.9033 37.4187C10.8454 37.3829 10.7986 37.3317 10.7681 37.2708C10.7376 37.2099 10.7248 37.1417 10.7309 37.0739C10.737 37.006 10.7619 36.9413 10.8027 36.8868L11.6915 35.6929L9.59786 36.9007C9.5228 36.9439 9.43488 36.9592 9.34965 36.9438C9.26443 36.9284 9.18741 36.8833 9.13225 36.8165C9.07708 36.7498 9.04733 36.6656 9.04826 36.579C9.04919 36.4924 9.08074 36.4089 9.13732 36.3434L10.1259 35.2038L9.23706 35.7171C9.16135 35.7607 9.07257 35.7758 8.98671 35.7597C8.90085 35.7437 8.82355 35.6975 8.76872 35.6295C8.71389 35.5615 8.68514 35.4761 8.68765 35.3888C8.69016 35.3015 8.72375 35.2179 8.78239 35.1532L10.0826 33.7217C10.0775 33.7148 10.0731 33.7075 10.0694 33.6997C10.0207 33.6156 10.0074 33.5156 10.0324 33.4217C10.0575 33.3277 10.1188 33.2476 10.2029 33.1989L11 32.742C11.0757 32.6984 11.1645 32.6833 11.2503 32.6994C11.3362 32.7154 11.4135 32.7616 11.4683 32.8296C11.5232 32.8976 11.5519 32.983 11.5494 33.0703C11.5469 33.1576 11.5133 33.2412 11.4547 33.3059L10.9047 33.9109L11.649 33.4819C11.724 33.4387 11.812 33.4235 11.8972 33.4389C11.9824 33.4543 12.0594 33.4994 12.1146 33.5661C12.1698 33.6329 12.1995 33.717 12.1986 33.8036C12.1977 33.8902 12.1661 33.9737 12.1095 34.0393L11.1203 35.1803L12.8612 34.1757C12.9342 34.1337 13.0195 34.1181 13.1026 34.1316C13.1857 34.1451 13.2617 34.1868 13.3177 34.2497C13.3737 34.3126 13.4064 34.3929 13.4102 34.477C13.414 34.5611 13.3887 34.644 13.3386 34.7117L12.4483 35.9093C12.5337 35.8724 12.63 35.8695 12.7175 35.9009C12.805 35.9324 12.8773 35.996 12.9198 36.0788C12.9622 36.1616 12.9715 36.2574 12.946 36.3468C12.9204 36.4362 12.8618 36.5126 12.782 36.5605L11.2809 37.4273C11.2245 37.459 11.1607 37.475 11.0961 37.4735Z" fill="#F2CF7E"/>
<path d="M26.5271 37.6934C26.4629 37.6934 26.3999 37.6766 26.3442 37.6446C26.2886 37.6127 26.2423 37.5667 26.21 37.5112C26.1777 37.4558 26.1606 37.3928 26.1602 37.3286C26.1599 37.2645 26.1764 37.2013 26.2081 37.1456L26.6701 36.3345L24.4701 37.6046C24.391 37.6495 24.2981 37.6633 24.2094 37.6435C24.1207 37.6238 24.0425 37.5717 23.99 37.4976C23.9375 37.4234 23.9144 37.3324 23.9252 37.2421C23.936 37.1519 23.9799 37.0688 24.0484 37.0092L24.3894 36.7158L24.2604 36.7892C24.1838 36.8328 24.094 36.8474 24.0075 36.8303C23.921 36.8132 23.8436 36.7655 23.7894 36.6959C23.7352 36.6263 23.7079 36.5395 23.7126 36.4515C23.7172 36.3634 23.7534 36.28 23.8145 36.2164L24.4745 35.5366L23.9744 35.8256C23.8997 35.868 23.8126 35.883 23.7281 35.8678C23.6436 35.8526 23.5671 35.8083 23.5119 35.7425C23.4568 35.6767 23.4265 35.5936 23.4263 35.5077C23.4261 35.4219 23.456 35.3387 23.5109 35.2726L24.7781 33.7634C24.7617 33.745 24.7474 33.7249 24.7356 33.7033C24.6869 33.6192 24.6736 33.5191 24.6986 33.4252C24.7236 33.3313 24.7849 33.2512 24.869 33.2024L25.6669 32.7419C25.7415 32.699 25.8289 32.6837 25.9136 32.6987C25.9984 32.7137 26.0752 32.758 26.1305 32.824C26.1859 32.8899 26.2163 32.9732 26.2164 33.0593C26.2165 33.1454 26.1863 33.2288 26.1311 33.2948L25.4139 34.1477L26.3958 33.5815C26.4724 33.5373 26.5624 33.5223 26.6493 33.5392C26.7361 33.5562 26.8139 33.6039 26.8683 33.6737C26.9226 33.7434 26.95 33.8305 26.9452 33.9188C26.9405 34.0071 26.904 34.0908 26.8424 34.1543L26.1824 34.8341L27.4584 34.1008C27.5376 34.0542 27.6314 34.0391 27.7212 34.0584C27.811 34.0777 27.8902 34.13 27.9433 34.2049C27.9964 34.2799 28.0195 34.372 28.0079 34.4631C27.9963 34.5542 27.951 34.6377 27.8808 34.697L27.5252 35.0013C27.5957 34.9732 27.6732 34.9677 27.747 34.9856C27.8208 35.0034 27.8873 35.0437 27.9372 35.101C27.9871 35.1582 28.018 35.2295 28.0256 35.305C28.0333 35.3806 28.0173 35.4566 27.9798 35.5227L27.3822 36.5728C27.4466 36.5981 27.5026 36.6411 27.5436 36.6968C27.5847 36.7525 27.6091 36.8188 27.6141 36.8878C27.6191 36.9568 27.6044 37.0259 27.5718 37.0869C27.5392 37.148 27.49 37.1986 27.4298 37.2328L26.7134 37.6464C26.6567 37.6787 26.5923 37.6949 26.5271 37.6934Z" fill="#F2CF7E"/>
<path d="M38.6657 32.2095C38.6657 32.1933 38.6562 32.1845 38.654 32.1706C38.6518 32.1567 38.6657 32.1435 38.6643 32.1281C38.5484 29.9677 36.7107 29.7367 34.9976 29.7345V4.21815C35.0247 3.66248 35.0203 3.10572 34.9844 2.55055C34.8077 1.02082 33.4283 0.454683 32.0753 0.454683H13.2733C12.4562 0.381579 11.6326 0.44829 10.8379 0.65195C10.269 0.847699 9.78082 1.22601 9.44924 1.72802C9.11767 2.23002 8.96134 2.82755 9.00459 3.42762C8.99946 5.91142 9.00459 8.39521 9.00459 10.879V29.7396C8.77286 29.7396 8.54186 29.7396 8.31012 29.7477C7.56548 29.7089 6.8356 29.9654 6.27888 30.4614C5.72216 30.9575 5.38352 31.653 5.33645 32.3972C5.28365 33.8976 5.33645 35.4083 5.33645 36.9094C5.33645 38.3841 5.33646 39.9806 7.05172 40.524C8.11726 40.8606 13.7786 40.6523 15.3787 40.6523C15.9611 40.6005 16.5451 40.7326 17.0485 41.03C17.644 41.4099 18.2035 41.8638 18.7763 42.2767C19.3297 42.7417 19.9522 43.1178 20.6213 43.3913C21.1847 43.5669 21.7789 43.621 22.3647 43.5499C22.9505 43.4789 23.5145 43.2844 24.0196 42.9792C24.5872 42.6367 25.1115 42.2063 25.6483 41.8191C26.2116 41.2774 26.8955 40.8773 27.6437 40.6516C28.8053 40.5145 34.1301 40.6707 35.5777 40.6516C37.1617 40.6303 38.6085 39.7049 38.6679 38.0021C38.7193 36.5273 38.6679 35.0423 38.6679 33.5676L38.6657 32.2095ZM27.3533 4.13675H18.5189C17.8944 4.22673 17.2581 4.18578 16.6503 4.01648C15.708 3.54568 15.862 2.04088 15.917 1.00982H28.072C28.1057 1.82748 28.3573 4.07882 27.3533 4.13675ZM10.065 2.86955C10.0346 2.43376 10.1674 2.00226 10.4376 1.65894C10.7077 1.31563 11.0958 1.08504 11.5265 1.01202C11.7205 1.00212 11.9148 1.00212 12.1088 1.01202H14.8691V2.34668C14.798 2.873 14.8834 3.40861 15.1147 3.88668C15.6281 4.69775 16.5352 4.66108 17.3741 4.66108H26.9133C28.0317 4.59655 29.0957 3.97175 29.128 2.75442C29.1434 2.17508 29.1353 1.59355 29.128 1.01275H30.5272C31.3339 1.01275 32.3693 0.861683 33.066 1.35888C33.946 1.98735 33.9299 2.93922 33.9299 3.88302V22.7377C33.9299 25.0675 33.8411 27.4171 33.9299 29.7455H33.6981H29.3803L30.7047 20.0068C30.9034 18.5453 31.1652 17.0735 31.3023 15.6068C31.3896 14.6725 30.6863 14.3653 29.8518 14.2868V11.6167C29.8518 11.1672 29.8555 10.7177 29.8518 10.2681C29.8542 10.1208 29.8255 9.97457 29.7676 9.83905C29.7097 9.70352 29.6238 9.58172 29.5157 9.4816C29.4075 9.38147 29.2795 9.30527 29.1399 9.25796C29.0003 9.21065 28.8523 9.19329 28.7056 9.20702C27.7046 9.19235 25.8661 8.99801 25.8522 10.4449V11.4063H24.0005V10.0041C24.0691 9.60363 23.9926 9.19179 23.7849 8.84255C23.6119 8.68545 23.4053 8.5698 23.1809 8.50436C22.9566 8.43893 22.7202 8.42543 22.4899 8.46488C21.5923 8.46488 20.0897 8.34021 19.9965 9.59495C19.9518 10.2153 19.9489 10.8416 19.9562 11.4745H18.139V10.5534C18.1753 10.3318 18.1534 10.1045 18.0753 9.89392C17.9973 9.68333 17.8658 9.49665 17.6939 9.35221C17.1105 9.10691 16.4698 9.03067 15.8451 9.13221C15.5874 9.11509 15.3285 9.13535 15.0766 9.19235C14.8384 9.25407 14.6229 9.38286 14.4558 9.56342C14.2886 9.74397 14.1768 9.96871 14.1335 10.2109C14.1097 10.5527 14.1078 10.8956 14.1277 11.2376V14.3601C13.4677 14.4093 12.8077 14.5992 12.6771 15.3413C12.6608 15.713 12.6973 16.0851 12.7857 16.4465L13.0981 18.7425L14.5875 29.6985C13.0792 29.6946 11.5717 29.7025 10.065 29.722V4.88622C10.065 4.21595 10.0371 3.53908 10.065 2.86955ZM24.3936 29.7477C21.4947 29.7477 18.5915 29.7169 15.6889 29.7051C15.2792 26.6936 14.8698 23.682 14.4606 20.6705C14.2861 18.9229 13.8871 17.1915 13.75 15.4411C13.7097 14.9336 14.0829 14.9783 14.4679 14.9776C15.0443 14.9776 16.0145 14.7503 16.4061 15.312C16.9481 16.0893 17.1827 17.0757 17.8354 17.7716C19.4898 19.536 22.3183 19.7809 24.4515 18.8144C25.9145 18.1544 26.8429 16.6767 27.5543 15.0671C27.709 14.7165 28.8347 14.982 29.1573 14.9827C29.6472 14.9827 30.2375 14.9871 30.2507 15.6303C30.1747 16.8774 30.0063 18.1172 29.7469 19.3395C29.2747 22.8106 28.8029 26.28 28.3316 29.7477H24.3936ZM17.0603 10.1831C17.0603 10.56 17.0537 13.6246 17.0537 14.4987C16.4596 14.296 15.8257 14.2387 15.2049 14.3315C15.2049 13.5461 15.1998 10.3107 15.2049 10.2293C15.2196 9.97848 15.2783 9.93595 15.4902 9.93595H16.3247C16.4465 9.93301 17.061 9.90001 17.061 10.1831H17.0603ZM27.9202 9.85968C28.3397 9.85968 28.7503 9.83548 28.7848 10.3862C28.8097 10.7888 28.7848 11.2009 28.7848 11.6043V14.2861C28.4599 14.3044 28.1556 14.3323 27.9143 14.3469C27.5669 14.3565 27.2282 14.4577 26.9324 14.6403C26.9331 10.098 26.4271 9.85968 27.9209 9.85968H27.9202ZM25.8515 16.6357C25.4136 17.3775 24.7706 17.9767 23.9998 18.3612V12.0604H25.8515C25.8537 12.5715 25.8522 15.62 25.8522 16.6357H25.8515ZM22.9321 10.2505V18.6839C22.3118 18.7834 21.678 18.7607 21.0665 18.6171C21.0665 15.7432 20.5979 9.93081 21.0665 9.13515C21.2285 8.86161 22.3909 9.01855 22.6849 9.17695C23.0333 9.36321 22.9328 9.93301 22.9328 10.2505H22.9321ZM19.9877 18.2167C19.5517 17.9938 19.1565 17.6988 18.8188 17.3441C18.5592 17.0591 18.3313 16.7468 18.139 16.4127V11.9922H19.965C19.9723 12.3552 19.9877 18.1911 19.9877 18.2167ZM36.2406 40.007C35.2264 40.1537 30.107 40.0143 28.6235 40.0143C27.5577 39.9876 26.5147 40.3252 25.6667 40.9713C25.0514 41.4157 24.4391 41.8645 23.8209 42.3038C23.354 42.681 22.7756 42.8933 22.1757 42.9078C21.5757 42.9222 20.9877 42.738 20.5033 42.3837C19.5338 41.7377 18.6545 40.8833 17.6279 40.3304C16.6819 39.8222 15.3545 40.0136 14.3183 40.0136C12.7351 40.0136 8.73106 40.0319 8.31599 40.0136C7.80741 39.9944 7.32545 39.7813 6.969 39.418C6.61255 39.0548 6.40862 38.5689 6.39906 38.06C6.31986 36.7957 6.39906 35.5021 6.39906 34.2357C6.39906 32.9509 6.03239 30.569 7.86572 30.3849C8.28152 30.3431 34.1843 30.3116 35.7163 30.3849C36.2292 30.4145 36.711 30.6404 37.0618 31.0158C37.4126 31.3911 37.6054 31.8871 37.6002 32.4009V35.9861C37.6009 37.2357 37.9999 39.7511 36.2406 40.007Z" fill="#2A2A38"/>
<path d="M21.8584 22.3432C21.1949 22.4209 20.5823 22.7372 20.1348 23.2332C19.6872 23.7292 19.4353 24.371 19.426 25.0389C19.4264 25.375 19.4946 25.7075 19.6265 26.0165C19.7585 26.3256 19.9514 26.6049 20.1937 26.8377C20.4361 27.0704 20.7229 27.2519 21.0371 27.3713C21.3512 27.4906 21.6862 27.5454 22.022 27.5323C22.7074 27.4804 23.3488 27.1746 23.8208 26.6748C24.2927 26.1751 24.5613 25.5172 24.574 24.8299C24.5792 24.7733 24.5709 24.7163 24.5498 24.6635C24.5286 24.3333 24.4418 24.0106 24.2944 23.7143C24.147 23.4181 23.942 23.1542 23.6914 22.9381C23.4407 22.7221 23.1496 22.5582 22.8348 22.456C22.5201 22.3539 22.1882 22.3155 21.8584 22.3432ZM20.1718 24.8277C20.1718 22.4253 23.7035 22.8147 23.8238 25.0389C23.6969 27.4267 20.1754 27.0725 20.174 24.8277H20.1718Z" fill="#2A2A38"/>
<path d="M20.3918 33.9409C20.1114 33.8517 19.841 33.7335 19.5851 33.5881C19.2485 33.308 19.1334 32.8152 18.6831 32.6737C18.4761 32.6326 18.2616 32.6523 18.0656 32.7304C17.8695 32.8084 17.7001 32.9416 17.578 33.1137C17.446 33.2662 17.3426 33.4803 17.1901 33.627C16.9862 33.8221 16.7288 33.8257 16.4831 33.9379C16.3372 33.9909 16.2042 34.0742 16.0928 34.1823C15.9814 34.2903 15.8941 34.4208 15.8366 34.565C15.7792 34.7092 15.753 34.8639 15.7596 35.019C15.7663 35.1741 15.8057 35.326 15.8752 35.4648C15.9771 35.6664 16.1759 35.8395 16.2639 36.0588C16.3287 36.3473 16.3509 36.6438 16.3299 36.9388C16.3264 37.0659 16.3528 37.1922 16.407 37.3073C16.4612 37.4224 16.5416 37.5233 16.6418 37.6017C16.742 37.6801 16.8591 37.734 16.9839 37.759C17.1087 37.7839 17.2376 37.7793 17.3602 37.7454C17.6088 37.7022 17.8486 37.557 18.0994 37.5254C18.399 37.5349 18.6947 37.5959 18.9735 37.7058C19.2277 37.7913 19.5049 37.7761 19.7483 37.6634C19.9916 37.5508 20.1825 37.3492 20.2818 37.1001C20.4571 36.6117 20.2598 36.1284 20.5407 35.6679C20.9073 35.0651 21.1889 34.364 20.3918 33.9409ZM19.8418 35.4809C19.5397 35.9488 19.668 36.2524 19.5367 36.7474C19.4561 37.0517 19.5653 36.9674 19.2434 36.9402C19.0234 36.9197 18.8115 36.7892 18.5871 36.7642C18.0935 36.71 17.3499 37.2695 17.1321 36.6909C16.9803 36.2861 17.1593 35.8923 16.9385 35.4758C16.7977 35.2103 16.412 34.8663 16.7031 34.5752C16.8227 34.4549 17.1248 34.4476 17.2788 34.3684C17.4758 34.2642 17.6489 34.1201 17.787 33.9453C17.9593 33.7451 18.1221 33.3029 18.3964 33.4935C18.6083 33.8509 18.8968 34.1567 19.2412 34.3889C19.4311 34.4872 19.6812 34.4982 19.8587 34.6133C20.2825 34.8876 20.0398 35.1758 19.8418 35.4823V35.4809Z" fill="#2A2A38"/>
<path d="M34.8905 33.8961C34.6194 33.8103 34.357 33.6994 34.1066 33.5646C33.8243 33.3358 33.7165 32.9589 33.4187 32.758C33.3279 32.6918 33.2242 32.6451 33.1144 32.621C33.0046 32.5968 32.891 32.5957 32.7808 32.6177C32.6705 32.6397 32.566 32.6843 32.4739 32.7487C32.3817 32.8131 32.3039 32.8959 32.2454 32.9919C32.091 33.2347 31.8995 33.4517 31.6778 33.635C31.4424 33.7817 31.1373 33.7898 30.9019 33.9474C30.671 34.1243 30.5186 34.3846 30.4774 34.6725C30.4363 34.9605 30.5097 35.2531 30.6819 35.4875C30.8155 35.659 30.9319 35.8432 31.0295 36.0375C31.071 36.2904 31.0821 36.5475 31.0625 36.8031C31.1227 37.4257 31.5165 37.9031 32.1809 37.7894C32.4309 37.7469 32.6685 37.6046 32.9201 37.5731C33.2267 37.5772 33.5299 37.6376 33.8147 37.7513C33.9377 37.8012 34.0709 37.8205 34.203 37.8077C34.3351 37.795 34.4622 37.7504 34.5733 37.6778C34.6844 37.6052 34.7763 37.5069 34.8411 37.391C34.9059 37.2752 34.9418 37.1455 34.9455 37.0128C34.98 36.7547 34.9191 36.4819 34.977 36.2274C35.0563 36.0096 35.17 35.8058 35.3136 35.6239C35.4103 35.4859 35.4764 35.329 35.5075 35.1634C35.5386 34.9979 35.534 34.8276 35.4939 34.664C35.4538 34.5004 35.3793 34.3473 35.2752 34.2148C35.1712 34.0824 35.04 33.9737 34.8905 33.8961ZM34.4601 35.4361C34.2401 35.849 34.427 36.2824 34.2598 36.6711C34.0303 37.2042 33.2332 36.6476 32.7485 36.7151C32.4984 36.7495 32.1677 36.9739 31.9249 36.9527C31.7497 36.9373 31.7702 36.8749 31.7335 36.6835C31.7313 36.2469 31.6339 35.8159 31.4483 35.4207C31.2657 35.1274 30.9855 34.9873 31.3955 34.6713C31.5517 34.551 31.8186 34.5488 31.9946 34.4557C32.2498 34.3207 32.956 33.2823 33.1943 33.4928C33.4177 33.8668 33.7197 34.1879 34.0795 34.4337C34.2459 34.5202 34.5847 34.529 34.6976 34.6617C34.9602 34.9712 34.5979 35.1817 34.4601 35.4391V35.4361Z" fill="#2A2A38"/>
<path d="M13.2059 34.1081C12.9433 33.9218 12.5723 33.9233 12.32 33.7414C11.9482 33.4701 11.8455 32.992 11.4129 32.7881C11.2181 32.6948 10.9986 32.6658 10.7863 32.7053C10.5739 32.7449 10.3796 32.8509 10.2315 33.0081C10.0525 33.1907 9.94548 33.4591 9.75335 33.6278C9.54181 33.7712 9.30856 33.8797 9.06255 33.949C8.92159 33.9916 8.79237 34.0662 8.68493 34.167C8.5775 34.2677 8.49474 34.3918 8.44309 34.5298C8.39144 34.6677 8.3723 34.8156 8.38714 34.9622C8.40198 35.1087 8.45042 35.2498 8.52868 35.3746C8.67329 35.5637 8.80182 35.7646 8.91295 35.9752C8.95852 36.2644 8.97571 36.5574 8.96428 36.85C8.97479 36.985 9.01392 37.1162 9.07907 37.2348C9.14421 37.3535 9.23388 37.4569 9.34211 37.5382C9.45034 37.6195 9.57464 37.6769 9.70674 37.7064C9.83885 37.7359 9.97573 37.737 10.1083 37.7095C10.3605 37.6765 10.5937 37.543 10.8416 37.5056C11.0836 37.4802 11.328 37.5144 11.5537 37.6054C12.0589 37.7476 12.6991 37.8158 12.9683 37.2387C13.1765 36.7936 12.9507 36.2722 13.1883 35.8278C13.5051 35.236 13.9524 34.6383 13.2059 34.1081ZM12.3992 35.5014C12.1271 35.9517 12.2826 36.3022 12.1616 36.7833C12.0787 37.114 12.0325 37.0517 11.7106 36.9571C11.5024 36.8852 11.287 36.836 11.0682 36.8104C10.8158 36.8027 10.5642 36.843 10.3268 36.9292C9.97921 37.0312 9.94255 37.1397 9.83108 36.842C9.65728 36.3785 9.86775 35.9862 9.58175 35.522C9.38595 35.2037 9.03175 34.9162 9.51281 34.5408C9.66975 34.4176 9.94475 34.4102 10.1251 34.3142C10.2806 34.2313 11.0088 33.3909 11.0455 33.3887C11.2487 33.7288 11.5144 34.0274 11.8287 34.2687C12.0157 34.3816 12.2841 34.3904 12.4557 34.5151C12.9507 34.8686 12.6053 35.1663 12.4021 35.5022L12.3992 35.5014Z" fill="#2A2A38"/>
<path d="M27.5543 33.8954C27.2833 33.8098 27.021 33.6986 26.7711 33.5632C26.4888 33.333 26.3839 32.959 26.0832 32.7566C25.9921 32.6907 25.8882 32.6445 25.7783 32.6207C25.6684 32.597 25.5548 32.5962 25.4446 32.6186C25.3343 32.6409 25.2299 32.6858 25.1379 32.7504C25.0459 32.8151 24.9683 32.8981 24.9099 32.9942C24.7554 33.2371 24.5633 33.4539 24.3408 33.6366C24.1054 33.7832 23.8004 33.7906 23.5657 33.9482C23.3335 34.1251 23.1802 34.3863 23.139 34.6753C23.0979 34.9643 23.1721 35.2579 23.3457 35.4926C23.4805 35.6625 23.5991 35.8447 23.6999 36.0368C23.7285 36.2929 23.7361 36.5509 23.7226 36.8082C23.7842 37.4323 24.1832 37.9082 24.8454 37.7916C25.0954 37.7484 25.3338 37.6061 25.5846 37.5716C25.8914 37.5765 26.1948 37.6371 26.48 37.7506C26.603 37.8001 26.7362 37.8191 26.8682 37.806C27.0002 37.7928 27.1271 37.7479 27.2379 37.675C27.3488 37.6021 27.4403 37.5035 27.5047 37.3876C27.5691 37.2716 27.6045 37.1418 27.6078 37.0092C27.6408 36.7642 27.5807 36.4958 27.6306 36.2568C27.7076 36.026 27.825 35.8107 27.9774 35.621C28.0737 35.4831 28.1395 35.3263 28.1704 35.161C28.2013 34.9957 28.1965 34.8257 28.1565 34.6624C28.1164 34.4991 28.042 34.3462 27.9382 34.2139C27.8343 34.0817 27.7034 33.9731 27.5543 33.8954ZM27.159 35.3907C26.8906 35.8366 27.0945 36.2377 26.9258 36.677C26.7161 37.2211 25.9182 36.6579 25.4592 36.7107C25.2641 36.7479 25.0723 36.8006 24.8857 36.8684C24.7346 36.9223 24.5754 36.9501 24.4149 36.9505C24.3632 36.4712 24.2868 35.9949 24.1861 35.5234C24.016 35.2162 23.6918 34.972 24.0922 34.6647C24.2433 34.5488 24.4985 34.5474 24.6679 34.4579C24.929 34.32 25.6212 33.2846 25.8669 33.4972C26.0897 33.8718 26.3921 34.1927 26.7528 34.4374C26.9119 34.5195 27.2617 34.5349 27.3717 34.6647C27.5983 34.9368 27.2954 35.1641 27.159 35.3907Z" fill="#2A2A38"/>
<path d="M32.0642 3.78106C32.0642 3.48742 31.8264 3.24939 31.5329 3.24939C31.2395 3.24939 31.0016 3.48742 31.0016 3.78106V4.28632C31.0016 4.57995 31.2395 4.81799 31.5329 4.81799C31.8264 4.81799 32.0642 4.57995 32.0642 4.28632V3.78106Z" fill="#2A2A38"/>
<path d="M12.9976 3.78106C12.9976 3.48742 12.7597 3.24939 12.4663 3.24939C12.1729 3.24939 11.935 3.48742 11.935 3.78106V4.28632C11.935 4.57995 12.1729 4.81799 12.4663 4.81799C12.7597 4.81799 12.9976 4.57995 12.9976 4.28632V3.78106Z" fill="#2A2A38"/>
</svg>
