<svg width="64" height="65" viewBox="0 0 64 65" fill="none" xmlns="http://www.w3.org/2000/svg">
<g clip-path="url(#clip0_406_2717)">
<path d="M17.4932 64.0519C17.3773 64.0519 17.2645 64.014 17.172 63.9441C17.0795 63.8741 17.0123 63.776 16.9806 63.6645C16.9489 63.5529 16.9544 63.4341 16.9963 63.326C17.0382 63.2179 17.1141 63.1264 17.2127 63.0653L27.4132 56.7229L14.8458 63.9762C14.7251 64.0425 14.5835 64.0597 14.4506 64.024C14.3176 63.9883 14.2036 63.9026 14.1324 63.7848C14.0611 63.667 14.0382 63.5263 14.0684 63.392C14.0986 63.2577 14.1795 63.1402 14.2943 63.0642L31.5562 52.2002L11.153 63.9762C11.0318 64.0445 10.8888 64.0627 10.7544 64.027C10.6199 63.9913 10.5048 63.9046 10.4334 63.7852C10.3621 63.6659 10.3401 63.5234 10.3723 63.3881C10.4045 63.2528 10.4883 63.1354 10.6058 63.061L23.313 55.2338L9.43029 63.2519C9.30893 63.3248 9.1636 63.3464 9.02627 63.3121C8.88894 63.2778 8.77087 63.1904 8.69802 63.069C8.62518 62.9476 8.60353 62.8023 8.63783 62.665C8.67214 62.5277 8.75959 62.4096 8.88096 62.3367L27.905 50.4967L8.83189 61.5058C8.71088 61.5714 8.5692 61.5877 8.43646 61.5513C8.30372 61.5148 8.19021 61.4285 8.11967 61.3103C8.04914 61.1921 8.02703 61.0512 8.05799 60.917C8.08894 60.7829 8.17055 60.666 8.28576 60.5906L23.8164 51.013L8.83189 59.6637C8.71057 59.7296 8.5684 59.746 8.43527 59.7093C8.30215 59.6726 8.18846 59.5856 8.11812 59.4668C8.04779 59.3479 8.02629 59.2065 8.05815 59.0721C8.09001 58.9377 8.17275 58.8209 8.28896 58.7463L8.78496 58.4477C8.66078 58.5055 8.51909 58.5134 8.38927 58.4696C8.25945 58.4258 8.15145 58.3338 8.08767 58.2125C8.02389 58.0913 8.00922 57.9501 8.04669 57.8184C8.08417 57.6866 8.17092 57.5743 8.28896 57.5047L11.6298 55.4781L8.83189 57.0962C8.71101 57.1599 8.57029 57.1748 8.43876 57.1378C8.30723 57.1008 8.19493 57.0147 8.12501 56.8973C8.05509 56.7799 8.0329 56.6401 8.06301 56.5069C8.09312 56.3736 8.17323 56.2569 8.28682 56.181L21.3695 48.1501L8.83189 55.3885C8.7101 55.4605 8.5647 55.4811 8.42768 55.4459C8.29065 55.4107 8.17322 55.3225 8.10122 55.2007C8.02923 55.079 8.00856 54.9336 8.04376 54.7965C8.07897 54.6595 8.16717 54.5421 8.28896 54.4701L8.74336 54.1959C8.61765 54.2464 8.47748 54.2471 8.35127 54.1979C8.22507 54.1488 8.12229 54.0535 8.06379 53.9313C8.00529 53.8091 7.99546 53.6693 8.03628 53.5402C8.07711 53.411 8.16554 53.3023 8.28362 53.2359L27.8399 41.0727L8.83189 52.0423C8.71057 52.1083 8.5684 52.1247 8.43527 52.0879C8.30215 52.0512 8.18846 51.9643 8.11812 51.8455C8.04779 51.7266 8.02629 51.5851 8.05815 51.4508C8.09001 51.3164 8.17275 51.1996 8.28896 51.125L9.70016 50.2717L8.83189 50.7719C8.71057 50.8379 8.5684 50.8543 8.43527 50.8175C8.30215 50.7808 8.18846 50.6939 8.11812 50.5751C8.04779 50.4562 8.02629 50.3147 8.05815 50.1804C8.09001 50.046 8.17275 49.9292 8.28896 49.8546L13.5444 46.6653L8.83082 49.3863C8.70932 49.4556 8.56548 49.4743 8.43029 49.4385C8.29509 49.4027 8.17937 49.3153 8.10803 49.195C8.0367 49.0747 8.01547 48.9312 8.04891 48.7954C8.08235 48.6596 8.16779 48.5424 8.28682 48.469L17.1263 43.0802L8.83082 47.8695C8.70959 47.9366 8.56703 47.9538 8.43332 47.9176C8.2996 47.8813 8.18523 47.7945 8.11441 47.6755C8.04358 47.5564 8.02186 47.4145 8.05384 47.2797C8.08582 47.1449 8.169 47.0278 8.28576 46.9533L22.4458 38.2439L8.83082 46.1042C8.70925 46.1719 8.56603 46.1894 8.43172 46.153C8.29741 46.1166 8.18265 46.0292 8.11194 45.9093C8.04123 45.7894 8.02016 45.6467 8.05323 45.5115C8.0863 45.3764 8.17089 45.2595 8.28896 45.1858L8.76576 44.8978C8.64133 44.9493 8.50203 44.9518 8.37584 44.9048C8.24964 44.8578 8.14588 44.7649 8.0854 44.6446C8.02491 44.5243 8.01216 44.3855 8.04972 44.2562C8.08728 44.1269 8.17236 44.0166 8.28789 43.9474L13.2106 40.9607L8.83082 43.4887C8.71012 43.5541 8.56884 43.5704 8.43641 43.5343C8.30397 43.4982 8.19056 43.4124 8.11979 43.2947C8.04902 43.1771 8.02633 43.0367 8.05645 42.9028C8.08657 42.7688 8.16717 42.6517 8.28149 42.5757L30.6378 28.5458L8.83082 41.1346C8.70982 41.2002 8.56813 41.2165 8.43539 41.1801C8.30265 41.1436 8.18914 41.0573 8.11861 40.9391C8.04807 40.8209 8.02597 40.68 8.05692 40.5458C8.08787 40.4117 8.16949 40.2947 8.28469 40.2194L23.5466 30.8135L8.82656 39.3085C8.70585 39.3739 8.56458 39.3902 8.43214 39.354C8.2997 39.3179 8.1863 39.2321 8.11553 39.1145C8.04476 38.9968 8.02207 38.8564 8.05219 38.7225C8.0823 38.5886 8.16291 38.4714 8.27722 38.3954L29.7172 24.9757L8.83082 37.0386C8.70986 37.1015 8.56938 37.1158 8.43826 37.0783C8.30713 37.0409 8.19533 36.9547 8.12582 36.8374C8.0563 36.7201 8.03436 36.5806 8.06451 36.4476C8.09465 36.3146 8.17459 36.1982 8.28789 36.1223L15.9135 31.4802L8.83082 35.5687C8.7099 35.6353 8.56787 35.6525 8.43458 35.6165C8.3013 35.5805 8.18716 35.4943 8.11615 35.3759C8.04514 35.2575 8.02281 35.1162 8.05384 34.9817C8.08488 34.8472 8.16686 34.7299 8.28256 34.6546L28.4063 22.1085L8.83082 33.4098C8.70965 33.4737 8.56854 33.4885 8.43673 33.4512C8.30493 33.4138 8.19255 33.3272 8.12288 33.2093C8.05321 33.0913 8.03159 32.9511 8.06251 32.8176C8.09343 32.6842 8.17452 32.5678 8.28896 32.4925L8.93642 32.101L8.82976 32.1607C8.70867 32.2255 8.56728 32.241 8.43503 32.2041C8.30278 32.1672 8.18986 32.0807 8.11977 31.9626C8.04967 31.8446 8.02781 31.704 8.05873 31.5703C8.08965 31.4365 8.17097 31.3198 8.28576 31.2445L18.706 24.8605L8.83082 30.5607C8.70986 30.6237 8.56938 30.6379 8.43826 30.6005C8.30713 30.563 8.19533 30.4768 8.12582 30.3595C8.0563 30.2422 8.03436 30.1027 8.06451 29.9697C8.09465 29.8367 8.17459 29.7203 8.28789 29.6445L12.2836 27.2114L8.83082 29.2029C8.70951 29.2688 8.56733 29.2852 8.43421 29.2485C8.30108 29.2117 8.18739 29.1248 8.11706 29.006C8.04672 28.8871 8.02522 28.7457 8.05708 28.6113C8.08894 28.4769 8.17168 28.3601 8.28789 28.2855L10.5332 26.917L8.82656 27.8994C8.70605 27.9638 8.56543 27.9795 8.43369 27.9433C8.30195 27.907 8.18914 27.8216 8.11855 27.7046C8.04795 27.5876 8.02494 27.448 8.05426 27.3146C8.08359 27.1811 8.16302 27.064 8.27616 26.9874L22.2932 18.165L8.83082 25.9335C8.71032 25.9979 8.56969 26.0136 8.43795 25.9774C8.30622 25.9411 8.19341 25.8557 8.12281 25.7387C8.05221 25.6218 8.0292 25.4821 8.05853 25.3487C8.08786 25.2152 8.16728 25.0981 8.28042 25.0215L18.9994 18.2749L8.83082 24.1415C8.7099 24.2081 8.56787 24.2253 8.43458 24.1893C8.3013 24.1533 8.18716 24.0671 8.11615 23.9487C8.04514 23.8303 8.02281 23.689 8.05384 23.5545C8.08488 23.42 8.16686 23.3027 8.28256 23.2274L13.5348 19.9506L8.83082 22.6663C8.71075 22.736 8.56826 22.756 8.43363 22.7223C8.299 22.6885 8.18283 22.6036 8.10979 22.4856C8.03675 22.3676 8.0126 22.2257 8.04247 22.0902C8.07234 21.9546 8.15387 21.8361 8.26976 21.7597L21.4399 13.0461L8.83082 20.3271C8.70973 20.397 8.56607 20.4164 8.43075 20.3814C8.29543 20.3464 8.17927 20.2596 8.10727 20.1398C8.03527 20.02 8.01319 19.8767 8.04577 19.7408C8.07835 19.6049 8.163 19.4872 8.28149 19.413L8.91296 19.0173L8.83082 19.0642C8.7102 19.1305 8.5686 19.1477 8.43565 19.112C8.30269 19.0763 8.18867 18.9906 8.11744 18.8728C8.04622 18.755 8.02329 18.6143 8.05347 18.48C8.08365 18.3456 8.16458 18.2282 8.27936 18.1522L9.68736 17.2605L8.83402 17.7533C8.71361 17.8185 8.5727 17.835 8.4405 17.7992C8.3083 17.7633 8.19494 17.6781 8.1239 17.561C8.05287 17.4439 8.02962 17.3039 8.05895 17.1701C8.08829 17.0363 8.16797 16.919 8.28149 16.8423L9.12202 16.309L8.83402 16.4743C8.71566 16.5423 8.57576 16.5622 8.44312 16.5301C8.31047 16.498 8.19518 16.4163 8.12097 16.3018C8.04676 16.1873 8.01927 16.0486 8.04417 15.9145C8.06907 15.7803 8.14446 15.6607 8.25482 15.5805L16.6399 9.51113L8.83082 14.0199C8.71252 14.0862 8.57341 14.105 8.44177 14.0724C8.31014 14.0398 8.19587 13.9582 8.12222 13.8443C8.04857 13.7305 8.02107 13.5928 8.0453 13.4594C8.06954 13.326 8.1437 13.2068 8.25269 13.1261L13.1114 9.62953L8.83082 12.101C8.714 12.1697 8.57541 12.1913 8.44321 12.1615C8.31101 12.1317 8.19511 12.0527 8.11906 11.9405C8.04301 11.8284 8.01252 11.6914 8.03377 11.5576C8.05503 11.4238 8.12643 11.303 8.23349 11.2199L12.353 7.96233L8.83296 9.99433C8.72029 10.0594 8.58773 10.081 8.46025 10.0551C8.33276 10.0292 8.21914 9.95759 8.14075 9.85377C8.06236 9.74995 8.02462 9.62107 8.03463 9.49137C8.04464 9.36167 8.1017 9.24009 8.19509 9.14953L10.9492 6.50206L8.83082 7.72233C8.72853 7.78048 8.60988 7.80318 8.49335 7.78687C8.37682 7.77057 8.26895 7.71619 8.18655 7.6322C8.10414 7.54822 8.05182 7.43933 8.03774 7.32251C8.02366 7.20569 8.0486 7.0875 8.10869 6.98633L9.09109 5.35326C8.96677 5.40503 8.82747 5.40786 8.70116 5.36117C8.57485 5.31448 8.47088 5.22174 8.41011 5.10156C8.34935 4.98139 8.3363 4.84267 8.37357 4.71327C8.41085 4.58387 8.4957 4.47336 8.61109 4.40393L10.3466 3.40126C10.449 3.34229 10.5681 3.31899 10.6851 3.33503C10.8022 3.35108 10.9107 3.40555 10.9934 3.4899C11.0762 3.57425 11.1286 3.68371 11.1424 3.80107C11.1562 3.91843 11.1307 4.03706 11.0698 4.13833L10.0895 5.765L14.209 3.38953C14.3218 3.3216 14.4558 3.29782 14.5851 3.32277C14.7144 3.34771 14.8299 3.41962 14.9094 3.52465C14.9888 3.62967 15.0266 3.76038 15.0155 3.8916C15.0043 4.02283 14.945 4.14529 14.849 4.2354L12.0927 6.88073L18.145 3.38953C18.2615 3.32194 18.3994 3.30098 18.5307 3.33086C18.6621 3.36074 18.7773 3.43924 18.8532 3.5506C18.9296 3.66172 18.9611 3.79765 18.9413 3.93105C18.9215 4.06444 18.8519 4.18538 18.7466 4.26953L14.6271 7.52286L21.7919 3.38953C21.9104 3.32081 22.0508 3.30034 22.1841 3.33236C22.3173 3.36438 22.433 3.44644 22.5074 3.56152C22.5817 3.6766 22.6089 3.81588 22.5834 3.95048C22.5578 4.08508 22.4814 4.20467 22.37 4.28446L17.5114 7.77673L25.1167 3.38953C25.2351 3.3216 25.375 3.30163 25.5076 3.33373C25.6402 3.36583 25.7555 3.44755 25.8297 3.56208C25.904 3.67661 25.9314 3.81523 25.9065 3.94941C25.8816 4.08359 25.8062 4.20312 25.6959 4.2834L17.3034 10.3485L29.3631 3.38953C29.4836 3.32215 29.6256 3.30416 29.7591 3.33932C29.8927 3.37449 30.0074 3.46008 30.0791 3.57809C30.1508 3.6961 30.1739 3.83732 30.1437 3.97205C30.1134 4.10677 30.032 4.2245 29.9167 4.30046L29.0634 4.84233L31.585 3.38953C31.7054 3.32427 31.8463 3.30784 31.9785 3.34364C32.1107 3.37945 32.224 3.46474 32.2951 3.58184C32.3661 3.69895 32.3894 3.83889 32.36 3.97267C32.3307 4.10646 32.251 4.22383 32.1375 4.30046L30.7284 5.19433L33.8548 3.38953C33.9757 3.32182 34.1181 3.30378 34.252 3.33923C34.3859 3.37468 34.5008 3.46084 34.5723 3.57947C34.6438 3.6981 34.6663 3.8399 34.6352 3.97486C34.604 4.10982 34.5215 4.22736 34.4052 4.3026L33.7759 4.6962L36.0415 3.38953C36.1613 3.32341 36.3019 3.30584 36.4342 3.34047C36.5666 3.37509 36.6806 3.45925 36.7526 3.57555C36.8247 3.69185 36.8493 3.83139 36.8213 3.96532C36.7934 4.09925 36.7151 4.21733 36.6026 4.29513L23.4335 13.0077L40.0991 3.38953C40.2197 3.32593 40.36 3.31092 40.4914 3.34759C40.6227 3.38427 40.7349 3.46983 40.8051 3.58672C40.8753 3.7036 40.8981 3.84292 40.8687 3.97606C40.8394 4.1092 40.7602 4.22605 40.6474 4.3026L35.3994 7.5762L42.6527 3.38953C42.7733 3.3232 42.9149 3.30607 43.0479 3.34174C43.1808 3.37741 43.2948 3.4631 43.3661 3.5809C43.4373 3.69869 43.4602 3.83947 43.43 3.97378C43.3999 4.10809 43.3189 4.22552 43.2042 4.30153L32.4746 11.0525L45.7599 3.38953C45.8804 3.32513 46.021 3.30943 46.1528 3.34567C46.2845 3.38192 46.3973 3.46734 46.4679 3.58432C46.5385 3.70131 46.5615 3.84092 46.5322 3.97437C46.5028 4.10782 46.4234 4.22493 46.3103 4.30153L32.2986 13.1207L49.1604 3.38953C49.2815 3.32481 49.4229 3.30929 49.5551 3.34618C49.6874 3.38308 49.8003 3.46956 49.8704 3.58762C49.9405 3.70568 49.9624 3.84623 49.9314 3.98C49.9005 4.11377 49.8192 4.23047 49.7044 4.3058L47.4388 5.69246L51.4186 3.38953C51.5396 3.32481 51.681 3.30929 51.8133 3.34618C51.9455 3.38308 52.0584 3.46956 52.1285 3.58762C52.1986 3.70568 52.2205 3.84623 52.1896 3.98C52.1587 4.11377 52.0773 4.23047 51.9626 4.3058L47.9999 6.71433L53.5401 3.51433C53.6614 3.4473 53.8039 3.43008 53.9377 3.4663C54.0714 3.50252 54.1857 3.58935 54.2566 3.70841C54.3274 3.82747 54.3491 3.96941 54.3171 4.1042C54.2851 4.23899 54.202 4.35605 54.0852 4.4306L43.666 10.8167L54.8265 4.37193C54.9483 4.29993 55.0937 4.27926 55.2308 4.31447C55.3678 4.34968 55.4852 4.43788 55.5572 4.55966C55.6292 4.68145 55.6499 4.82685 55.6147 4.96388C55.5795 5.1009 55.4913 5.21833 55.3695 5.29033L54.722 5.6818L55.1487 5.4354C55.2694 5.37001 55.4107 5.35369 55.5431 5.38982C55.6755 5.42596 55.7889 5.51177 55.8597 5.6294C55.9305 5.74703 55.9532 5.88742 55.923 6.02136C55.8929 6.15529 55.8123 6.27245 55.698 6.34846L35.5764 18.8957L55.1679 7.58473C55.2892 7.51876 55.4314 7.50241 55.5645 7.53913C55.6976 7.57585 55.8113 7.66278 55.8816 7.78162C55.952 7.90046 55.9735 8.04195 55.9416 8.17632C55.9098 8.31069 55.827 8.42746 55.7108 8.50206L48.0852 13.1442L55.1679 9.05566C55.289 8.98584 55.4326 8.96635 55.568 9.00138C55.7033 9.03641 55.8194 9.12317 55.8914 9.24298C55.9634 9.36279 55.9855 9.50608 55.9529 9.64201C55.9204 9.77794 55.8357 9.89565 55.7172 9.9698L34.2612 23.3959L55.1679 11.3266C55.2889 11.261 55.4306 11.2447 55.5633 11.2811C55.6961 11.3176 55.8096 11.4039 55.8801 11.5221C55.9506 11.6403 55.9727 11.7812 55.9418 11.9154C55.9108 12.0495 55.8292 12.1665 55.714 12.2418L40.4692 21.637L55.1679 13.1517C55.2886 13.0863 55.4299 13.07 55.5623 13.1061C55.6947 13.1422 55.8081 13.228 55.8789 13.3457C55.9497 13.4633 55.9724 13.6037 55.9423 13.7376C55.9121 13.8716 55.8315 13.9887 55.7172 14.0647L33.361 28.0957L55.1679 15.509C55.2892 15.443 55.4314 15.4267 55.5645 15.4634C55.6976 15.5001 55.8113 15.587 55.8816 15.7059C55.952 15.8247 55.9735 15.9662 55.9416 16.1006C55.9098 16.235 55.827 16.3517 55.7108 16.4263L50.7881 19.413L55.1679 16.885C55.2892 16.819 55.4314 16.8027 55.5645 16.8394C55.6976 16.8761 55.8113 16.963 55.8816 17.0819C55.952 17.2007 55.9735 17.3422 55.9416 17.4766C55.9098 17.611 55.827 17.7277 55.7108 17.8023L55.2329 18.0914C55.3569 18.0414 55.495 18.0397 55.6201 18.0867C55.7452 18.1336 55.8481 18.2259 55.9085 18.3451C55.9688 18.4643 55.9822 18.6018 55.946 18.7305C55.9098 18.8591 55.8266 18.9694 55.7129 19.0397L41.5327 27.7565L55.1679 19.8855C55.2894 19.8163 55.4332 19.7976 55.5684 19.8333C55.7036 19.8691 55.8193 19.9566 55.8907 20.0769C55.962 20.1972 55.9832 20.3407 55.9498 20.4764C55.9164 20.6122 55.8309 20.7295 55.7119 20.8029L46.9002 26.1757L55.1679 21.4023C55.2282 21.3667 55.2949 21.3433 55.3643 21.3334C55.4336 21.3235 55.5042 21.3274 55.5721 21.3449C55.6399 21.3623 55.7037 21.3929 55.7597 21.435C55.8157 21.4771 55.8629 21.5298 55.8985 21.5901C55.9342 21.6504 55.9576 21.7171 55.9675 21.7865C55.9773 21.8558 55.9734 21.9264 55.956 21.9943C55.9386 22.0621 55.908 22.1259 55.8659 22.1819C55.8238 22.2379 55.7711 22.2851 55.7108 22.3207L50.4735 25.4983L55.1668 22.789C55.2881 22.723 55.4303 22.7067 55.5634 22.7434C55.6966 22.7801 55.8102 22.867 55.8806 22.9859C55.9509 23.1047 55.9724 23.2462 55.9406 23.3806C55.9087 23.515 55.826 23.6317 55.7098 23.7063L54.2772 24.5725L55.1679 24.0594C55.2888 23.9928 55.4308 23.9757 55.5641 24.0116C55.6974 24.0476 55.8116 24.1339 55.8826 24.2522C55.9536 24.3706 55.9759 24.5119 55.9449 24.6465C55.9138 24.781 55.8318 24.8982 55.7161 24.9735L36.1674 37.141L55.1689 26.1714C55.2901 26.1075 55.4312 26.0927 55.563 26.13C55.6948 26.1674 55.8072 26.254 55.8769 26.3719C55.9466 26.4899 55.9682 26.6301 55.9373 26.7636C55.9063 26.897 55.8253 27.0134 55.7108 27.0887L55.2575 27.3629C55.3827 27.3156 55.5211 27.3171 55.6452 27.367C55.7693 27.417 55.8702 27.5119 55.9276 27.6327C55.9851 27.7536 55.995 27.8916 55.9555 28.0195C55.9159 28.1473 55.8297 28.2556 55.714 28.3229L42.609 36.3645L55.1689 29.1111C55.2901 29.0472 55.4312 29.0324 55.563 29.0698C55.6948 29.1071 55.8072 29.1937 55.8769 29.3117C55.9466 29.4296 55.9682 29.5698 55.9373 29.7033C55.9063 29.8367 55.8253 29.9532 55.7108 30.0285L52.4042 32.0306L55.1668 30.4306C55.288 30.3667 55.4291 30.3519 55.5609 30.3892C55.6927 30.4266 55.8051 30.5132 55.8748 30.6311C55.9444 30.7491 55.966 30.8893 55.9351 31.0228C55.9042 31.1562 55.8231 31.2726 55.7087 31.3479L55.2137 31.6477C55.3371 31.5927 55.4767 31.5867 55.6044 31.6307C55.7321 31.6746 55.8383 31.7654 55.9017 31.8847C55.965 32.004 55.9808 32.1428 55.9457 32.2732C55.9107 32.4036 55.8275 32.5159 55.7129 32.5874L40.1855 42.1735L55.1689 33.5229C55.2899 33.4563 55.4319 33.4392 55.5652 33.4751C55.6985 33.5111 55.8126 33.5973 55.8836 33.7157C55.9546 33.8341 55.977 33.9754 55.9459 34.1099C55.9149 34.2444 55.8329 34.3617 55.7172 34.437L36.6858 46.2845L55.1689 35.6178C55.29 35.5522 55.4316 35.5359 55.5644 35.5723C55.6971 35.6088 55.8106 35.6951 55.8812 35.8133C55.9517 35.9315 55.9738 36.0724 55.9429 36.2066C55.9119 36.3407 55.8303 36.4577 55.7151 36.533L43.0058 44.3581L55.1657 37.3373C55.2863 37.2729 55.4269 37.2572 55.5586 37.2934C55.6904 37.3297 55.8032 37.4151 55.8738 37.5321C55.9444 37.649 55.9674 37.7887 55.938 37.9221C55.9087 38.0556 55.8293 38.1727 55.7161 38.2493L38.4543 49.1186L55.1689 39.4695C55.2897 39.405 55.4307 39.3894 55.5627 39.426C55.6947 39.4626 55.8075 39.5485 55.8778 39.666C55.9482 39.7835 55.9706 39.9236 55.9405 40.0572C55.9104 40.1908 55.8301 40.3077 55.7161 40.3837L45.5306 46.7175L55.1689 41.1495C55.2894 41.0843 55.4303 41.0678 55.5625 41.1037C55.6947 41.1395 55.808 41.2247 55.8791 41.3418C55.9501 41.459 55.9734 41.5989 55.944 41.7327C55.9147 41.8665 55.835 41.9838 55.7215 42.0605L42.0681 50.757L55.1732 43.1911C55.2939 43.1258 55.4352 43.1094 55.5676 43.1456C55.7001 43.1817 55.8135 43.2675 55.8842 43.3851C55.955 43.5028 55.9777 43.6432 55.9476 43.7771C55.9175 43.911 55.8369 44.0282 55.7225 44.1042L48.386 48.7122L55.1732 44.7943C55.2937 44.7299 55.4343 44.7142 55.5661 44.7505C55.6978 44.7867 55.8106 44.8722 55.8812 44.9891C55.9518 45.1061 55.9748 45.2457 55.9455 45.3792C55.9162 45.5126 55.8368 45.6297 55.7236 45.7063L50.3135 49.1133L55.1732 46.3079C55.293 46.2385 55.4351 46.2184 55.5694 46.2518C55.7038 46.2853 55.8199 46.3696 55.8932 46.4871C55.9664 46.6046 55.9912 46.7459 55.9621 46.8813C55.9331 47.0167 55.8525 47.1354 55.7375 47.2125L43.6969 55.317L55.1689 48.6941C55.2885 48.6247 55.4302 48.6044 55.5644 48.6375C55.6985 48.6706 55.8146 48.7545 55.8881 48.8714C55.9617 48.9884 55.987 49.1294 55.9587 49.2646C55.9304 49.3998 55.8507 49.5188 55.7364 49.5965L46.2804 56.0637L55.1689 50.9319C55.2884 50.8648 55.429 50.8462 55.5618 50.8799C55.6946 50.9137 55.8093 50.9972 55.8821 51.1133C55.9549 51.2293 55.9803 51.3689 55.953 51.5032C55.9257 51.6374 55.8477 51.756 55.7353 51.8343L49.889 55.8098L55.1689 52.7623C55.2877 52.6956 55.4274 52.6769 55.5595 52.7099C55.6916 52.7429 55.8061 52.8252 55.8794 52.9399C55.9528 53.0546 55.9795 53.193 55.9541 53.3268C55.9287 53.4606 55.8531 53.5796 55.7428 53.6594L50.6889 57.2295L54.7199 54.901C54.8365 54.8354 54.9735 54.816 55.1037 54.8467C55.2339 54.8774 55.3478 54.9559 55.4229 55.0667C55.4979 55.1774 55.5286 55.3123 55.5088 55.4447C55.4891 55.577 55.4203 55.697 55.3162 55.781L50.1108 59.8834C50.2192 59.9015 50.3193 59.9526 50.3975 60.0297C50.4757 60.1068 50.5282 60.2062 50.5478 60.3143C50.5674 60.4223 50.5531 60.5338 50.507 60.6335C50.4609 60.7332 50.3851 60.8162 50.29 60.8711L44.9119 63.9762C44.7953 64.0418 44.6583 64.0612 44.5281 64.0305C44.3979 63.9998 44.2839 63.9213 44.2089 63.8105C44.1338 63.6998 44.1032 63.5649 44.1229 63.4326C44.1427 63.3002 44.2115 63.1802 44.3156 63.0962L48.8532 59.5197L41.1306 63.9762C41.012 64.0422 40.8727 64.0606 40.7411 64.0275C40.6095 63.9945 40.4955 63.9125 40.4222 63.7983C40.3489 63.6841 40.3219 63.5462 40.3467 63.4128C40.3715 63.2794 40.4462 63.1605 40.5556 63.0802L45.602 59.5154L37.8719 63.9762C37.7527 64.0409 37.6134 64.0578 37.4822 64.0235C37.351 63.9892 37.2379 63.9061 37.1657 63.7913C37.0936 63.6765 37.0679 63.5385 37.0938 63.4054C37.1198 63.2724 37.1955 63.1542 37.3055 63.0749L43.1519 59.0983L34.7018 63.9762C34.5832 64.0381 34.4457 64.0531 34.3165 64.0184C34.1873 63.9836 34.076 63.9016 34.0044 63.7886C33.9329 63.6756 33.9064 63.5398 33.9303 63.4082C33.9541 63.2766 34.0266 63.1588 34.1332 63.0781L43.5946 56.6066L30.8266 63.9762C30.7071 64.0424 30.5667 64.0602 30.4345 64.026C30.3022 63.9917 30.1882 63.908 30.1158 63.7922C30.0434 63.6763 30.0183 63.5371 30.0455 63.4032C30.0728 63.2694 30.1504 63.1511 30.2623 63.0727L42.2985 54.9661L26.6964 63.9762C26.5759 64.0406 26.4353 64.0563 26.3036 64.0201C26.1718 63.9838 26.059 63.8984 25.9884 63.7814C25.9178 63.6644 25.8948 63.5248 25.9241 63.3914C25.9535 63.2579 26.0329 63.1408 26.146 63.0642L31.5594 59.6573L24.0746 63.9762C23.9538 64.0416 23.8126 64.0579 23.6801 64.0218C23.5477 63.9857 23.4343 63.8998 23.3635 63.7822C23.2928 63.6646 23.2701 63.5242 23.3002 63.3903C23.3303 63.2563 23.4109 63.1392 23.5252 63.0631L30.8554 58.4594L21.2991 63.9762C21.1786 64.0436 21.0366 64.0616 20.903 64.0264C20.7695 63.9912 20.6548 63.9057 20.5831 63.7877C20.5114 63.6696 20.4882 63.5284 20.5185 63.3937C20.5488 63.259 20.6302 63.1412 20.7455 63.0653L34.4052 54.3762L17.762 63.9762C17.6807 64.0249 17.588 64.051 17.4932 64.0519Z" fill="#BEDCF0"/>
<path d="M14.1717 12.6472C14.0745 12.647 13.9791 12.6202 13.8959 12.5697C13.8127 12.5192 13.7449 12.447 13.6999 12.3607C13.6548 12.2745 13.6343 12.1776 13.6403 12.0805C13.6464 11.9834 13.679 11.8898 13.7344 11.8098L14.6421 10.5053L13.2661 11.2989C13.1611 11.36 13.0383 11.3834 12.9181 11.3652C12.7979 11.347 12.6876 11.2883 12.6053 11.1989C12.523 11.1094 12.4738 10.9945 12.4658 10.8732C12.4577 10.7519 12.4914 10.6315 12.5611 10.532L13.1659 9.66475C13.0702 9.66124 12.9768 9.63527 12.893 9.58894C12.8092 9.54262 12.7376 9.47724 12.6837 9.39809C12.6133 9.27582 12.5941 9.1306 12.6305 8.99425C12.6669 8.8579 12.7559 8.74152 12.8779 8.67062L14.624 7.66155C14.7291 7.60098 14.8516 7.57801 14.9715 7.59643C15.0913 7.61486 15.2013 7.67358 15.2833 7.76292C15.3653 7.85225 15.4145 7.96686 15.4226 8.08786C15.4307 8.20885 15.3973 8.329 15.328 8.42849L14.8043 9.17516L16.1771 8.38369C16.282 8.32354 16.4043 8.30086 16.5238 8.31936C16.6434 8.33785 16.7531 8.39643 16.8349 8.48548C16.9168 8.57454 16.9659 8.68877 16.9743 8.80944C16.9827 8.9301 16.9498 9.05004 16.8811 9.14955L15.9744 10.4541L16.6891 10.0413C16.7498 10.0027 16.8177 9.97679 16.8886 9.96511C16.9596 9.95344 17.0322 9.95624 17.1021 9.97336C17.172 9.99047 17.2376 10.0215 17.2952 10.0647C17.3527 10.1078 17.4009 10.1622 17.4369 10.2245C17.4729 10.2867 17.496 10.3557 17.5046 10.4271C17.5133 10.4985 17.5075 10.5709 17.4874 10.64C17.4674 10.7091 17.4336 10.7734 17.388 10.829C17.3425 10.8847 17.2861 10.9306 17.2224 10.964L14.4384 12.5714C14.358 12.6203 14.2658 12.6464 14.1717 12.6472Z" fill="#F9F5E6"/>
<path d="M23.5179 12.8402C23.4201 12.8402 23.3242 12.8133 23.2406 12.7625C23.1571 12.7116 23.0891 12.6387 23.0442 12.5519C22.9993 12.465 22.9791 12.3674 22.9859 12.2698C22.9927 12.1723 23.0262 12.0784 23.0827 11.9986L23.567 11.3149L22.2518 12.0733C22.1411 12.136 22.0118 12.157 21.887 12.1327C21.7622 12.1084 21.6501 12.0403 21.5711 11.9407C21.4921 11.8411 21.4513 11.7165 21.456 11.5894C21.4607 11.4624 21.5107 11.3412 21.5969 11.2477L21.9169 10.9096L21.727 11.0162C21.6192 11.0778 21.4933 11.0998 21.371 11.0785C21.2486 11.0572 21.1376 10.9938 21.057 10.8994C20.9764 10.805 20.9312 10.6855 20.9293 10.5613C20.9273 10.4372 20.9688 10.3163 21.0465 10.2194L21.5179 9.63596C21.4197 9.60457 21.3327 9.5454 21.2674 9.4656C21.2022 9.3858 21.1614 9.28879 21.1501 9.18632C21.1389 9.08384 21.1575 8.9803 21.2039 8.8882C21.2502 8.79611 21.3222 8.71942 21.4113 8.66742L23.1574 7.65836C23.2652 7.59608 23.3915 7.57351 23.5142 7.59455C23.6369 7.61559 23.7484 7.67892 23.8294 7.77356C23.9106 7.86826 23.956 7.98843 23.9577 8.11315C23.9595 8.23788 23.9175 8.35927 23.839 8.45622L23.6758 8.65676L24.5035 8.17996C24.6142 8.11729 24.7435 8.09622 24.8683 8.12054C24.9932 8.14485 25.1052 8.21296 25.1842 8.31257C25.2632 8.41218 25.304 8.53675 25.2993 8.66382C25.2946 8.79088 25.2446 8.91208 25.1585 9.00556L24.8385 9.34369L25.1414 9.16876C25.2467 9.10795 25.3697 9.08498 25.4899 9.10365C25.6101 9.12233 25.7203 9.18152 25.8022 9.27142C25.8841 9.36131 25.9329 9.47652 25.9403 9.59792C25.9478 9.71932 25.9135 9.83963 25.8433 9.93889L25.2545 10.7698C25.3712 10.7714 25.4842 10.8113 25.5761 10.8834C25.668 10.9555 25.7337 11.0557 25.7632 11.1687C25.7926 11.2817 25.7841 11.4012 25.7391 11.509C25.694 11.6167 25.6148 11.7066 25.5137 11.765L23.7814 12.7656C23.7016 12.813 23.6107 12.8387 23.5179 12.8402Z" fill="#F9F5E6"/>
<path d="M31.7355 12.7762C31.6427 12.7763 31.5515 12.7522 31.4708 12.7062C31.3902 12.6602 31.3229 12.5939 31.2758 12.514C31.2286 12.434 31.2031 12.3432 31.2018 12.2504C31.2005 12.1575 31.2234 12.066 31.2683 11.9847L32.1814 10.3325L30.3574 11.3863C30.2532 11.4464 30.1318 11.4694 30.0129 11.4517C29.8939 11.4341 29.7845 11.3768 29.7022 11.2891C29.62 11.2014 29.5697 11.0885 29.5597 10.9687C29.5497 10.8488 29.5805 10.7292 29.647 10.629L30.2945 9.65621C30.1714 9.67572 30.0454 9.6515 29.9383 9.58778C29.8312 9.52405 29.7498 9.42484 29.7082 9.30735C29.6666 9.18987 29.6675 9.06154 29.7107 8.94464C29.7539 8.82774 29.8366 8.72966 29.9446 8.66741L31.6907 7.65835C31.7949 7.59833 31.9163 7.57528 32.0353 7.59294C32.1542 7.6106 32.2637 7.66792 32.3459 7.75561C32.4282 7.84331 32.4784 7.95622 32.4884 8.07604C32.4984 8.19585 32.4677 8.31554 32.4011 8.41568L31.7974 9.32341L33.3099 8.45088C33.4108 8.39264 33.528 8.36904 33.6436 8.38368C33.7592 8.39832 33.8668 8.45039 33.9499 8.53195C34.0334 8.61373 34.0876 8.72065 34.1044 8.83628C34.1212 8.9519 34.0995 9.06983 34.0427 9.17194L33.1307 10.8242L33.6235 10.5405C33.6842 10.5019 33.7521 10.476 33.8231 10.4643C33.8941 10.4526 33.9667 10.4554 34.0365 10.4725C34.1064 10.4897 34.1721 10.5207 34.2296 10.5639C34.2872 10.607 34.3354 10.6614 34.3714 10.7237C34.4074 10.7859 34.4304 10.8549 34.4391 10.9263C34.4478 10.9977 34.4419 11.0701 34.4219 11.1392C34.4018 11.2082 34.368 11.2726 34.3225 11.3282C34.2769 11.3839 34.2206 11.4298 34.1569 11.4631L32.0001 12.7079C31.9195 12.7538 31.8282 12.7774 31.7355 12.7762Z" fill="#F9F5E6"/>
<path d="M39.7931 12.6525C39.6909 12.6524 39.5908 12.6229 39.5048 12.5675C39.4188 12.5122 39.3505 12.4332 39.3081 12.3401C39.2658 12.2471 39.251 12.1438 39.2657 12.0425C39.2804 11.9413 39.3239 11.8465 39.391 11.7693L39.855 11.2359L38.9867 11.7373C38.8855 11.7958 38.7679 11.8194 38.6519 11.8045C38.536 11.7896 38.4281 11.737 38.345 11.6548C38.2618 11.5727 38.208 11.4654 38.1917 11.3497C38.1755 11.2339 38.1977 11.116 38.255 11.0141L39.0721 9.56021L39.0113 9.59434C38.8894 9.6581 38.7476 9.6723 38.6155 9.63398C38.4833 9.59565 38.3711 9.50776 38.3023 9.38867C38.2335 9.26957 38.2133 9.12849 38.246 8.99488C38.2788 8.86127 38.3618 8.74547 38.4779 8.67167L40.2241 7.66261C40.3253 7.60411 40.4429 7.58049 40.5589 7.59538C40.6748 7.61027 40.7827 7.66286 40.8658 7.74504C40.949 7.82722 41.0028 7.93445 41.0191 8.05022C41.0353 8.166 41.0131 8.28391 40.9558 8.38581L40.1387 9.83861L42.0854 8.71541C42.1947 8.65258 42.3227 8.63049 42.4467 8.65305C42.5707 8.6756 42.6827 8.74135 42.7628 8.83863C42.843 8.93591 42.8861 9.05843 42.8845 9.18447C42.8829 9.3105 42.8368 9.43191 42.7542 9.52714L42.2891 10.0605C42.412 9.98975 42.558 9.97075 42.6949 10.0077C42.8319 10.0446 42.9485 10.1344 43.0193 10.2573C43.09 10.3802 43.109 10.5262 43.0721 10.6631C43.0352 10.8 42.9454 10.9167 42.8225 10.9874L40.0641 12.5799C39.9821 12.6284 39.8884 12.6535 39.7931 12.6525Z" fill="#F9F5E6"/>
<path d="M47.9999 12.5554C47.9009 12.5554 47.8038 12.5278 47.7195 12.4758C47.6353 12.4237 47.5672 12.3492 47.5229 12.2606C47.4786 12.172 47.4598 12.0728 47.4687 11.9742C47.4776 11.8755 47.5138 11.7813 47.5732 11.7021L48.4756 10.4957L47.3599 11.1421C47.2534 11.2028 47.1292 11.2251 47.0082 11.205C46.8873 11.1849 46.7769 11.1237 46.6958 11.0318C46.6146 10.9399 46.5676 10.8228 46.5627 10.7003C46.5578 10.5778 46.5952 10.4573 46.6687 10.3591L47.202 9.65941C47.0932 9.64207 46.9923 9.59142 46.9134 9.51443C46.8345 9.43744 46.7814 9.33788 46.7614 9.22947C46.7414 9.12105 46.7555 9.0091 46.8018 8.90902C46.848 8.80894 46.9241 8.72565 47.0196 8.67061L48.7658 7.66154C48.8724 7.60028 48.9969 7.57774 49.1182 7.59774C49.2395 7.61773 49.3502 7.67903 49.4315 7.77127C49.5129 7.8635 49.5598 7.981 49.5644 8.10387C49.5691 8.22675 49.5311 8.34745 49.457 8.44555L49.1114 8.90315L50.2036 8.27381C50.31 8.21286 50.434 8.19039 50.5549 8.21016C50.6759 8.22993 50.7863 8.29075 50.8677 8.38238C50.9491 8.47401 50.9964 8.59087 51.0017 8.7133C51.0071 8.83572 50.9701 8.95625 50.897 9.05461L49.9935 10.2599L50.9076 9.73301C51.0295 9.66925 51.1713 9.65505 51.3034 9.69338C51.4356 9.7317 51.5478 9.81959 51.6166 9.93869C51.6854 10.0578 51.7056 10.1989 51.6729 10.3325C51.6401 10.4661 51.5571 10.5819 51.441 10.6557L48.274 12.4839C48.191 12.5326 48.0961 12.5573 47.9999 12.5554Z" fill="#F9F5E6"/>
<path d="M42.1728 26.7186C42.0644 26.7187 41.9586 26.6857 41.8694 26.6241C41.7803 26.5626 41.712 26.4753 41.6736 26.374C41.6353 26.2726 41.6287 26.162 41.6548 26.0568C41.6809 25.9517 41.7384 25.8569 41.8197 25.7853L43.6448 24.1714L40.4576 26.0114C40.3441 26.0723 40.2125 26.0901 40.087 26.0615C39.9615 26.0329 39.8505 25.9599 39.7746 25.8559C39.6987 25.7519 39.663 25.624 39.674 25.4958C39.6851 25.3675 39.7421 25.2476 39.8346 25.1581L43.5456 21.8226L39.7653 23.9997C39.6517 24.0666 39.5173 24.0891 39.388 24.0628C39.2588 24.0365 39.1439 23.9632 39.0655 23.8571C38.9872 23.751 38.9509 23.6197 38.9637 23.4884C38.9765 23.3571 39.0375 23.2353 39.1349 23.1463L41.9573 20.5138L39.7642 21.7799C39.6627 21.8384 39.5448 21.8619 39.4287 21.8467C39.3125 21.8315 39.2046 21.7785 39.1215 21.6958C39.0385 21.6132 38.985 21.5055 38.9693 21.3894C38.9536 21.2733 38.9766 21.1553 39.0346 21.0535L40.1066 19.1762L40.0768 19.1933C39.9549 19.257 39.8131 19.2712 39.681 19.2329C39.5488 19.1946 39.4367 19.1067 39.3678 18.9876C39.299 18.8685 39.2788 18.7274 39.3115 18.5938C39.3443 18.4602 39.4273 18.3444 39.5434 18.2706L41.2789 17.2679C41.38 17.21 41.4973 17.1867 41.6129 17.2017C41.7285 17.2168 41.836 17.2692 41.9189 17.3511C42.0015 17.4336 42.0547 17.5408 42.0705 17.6564C42.0863 17.772 42.0638 17.8896 42.0064 17.9911L40.9333 19.8706L45.4784 17.2562C45.592 17.1892 45.7264 17.1667 45.8556 17.1931C45.9849 17.2194 46.0998 17.2927 46.1781 17.3988C46.2565 17.5049 46.2928 17.6362 46.28 17.7675C46.2672 17.8987 46.2062 18.0206 46.1088 18.1095L43.2864 20.7399L47.4272 18.3506C47.5406 18.2897 47.6722 18.2719 47.7977 18.3005C47.9233 18.3291 48.0342 18.4021 48.1101 18.5061C48.186 18.6101 48.2217 18.738 48.2107 18.8662C48.1997 18.9945 48.1426 19.1144 48.0501 19.2039L44.3381 22.5394L47.7024 20.597C47.8169 20.5306 47.9521 20.5092 48.0816 20.5369C48.211 20.5646 48.3256 20.6395 48.4029 20.747C48.4802 20.8545 48.5147 20.987 48.4998 21.1185C48.4849 21.2501 48.4215 21.3714 48.3221 21.4589L46.496 23.0738L47.7024 22.3773C47.8056 22.3165 47.9264 22.2923 48.0451 22.3085C48.1638 22.3247 48.2736 22.3805 48.3568 22.4667C48.4399 22.553 48.4916 22.6647 48.5035 22.7839C48.5154 22.9032 48.4868 23.0229 48.4224 23.1239L47.4666 24.6717C47.5904 24.6319 47.7245 24.6387 47.8436 24.6908C47.9627 24.743 48.0587 24.8368 48.1135 24.9548C48.1683 25.0727 48.1781 25.2066 48.1411 25.3312C48.104 25.4559 48.0228 25.5627 47.9125 25.6317L46.1909 26.6258C46.0876 26.6871 45.9667 26.7117 45.8477 26.6957C45.7286 26.6797 45.6185 26.624 45.5351 26.5376C45.4516 26.4513 45.3998 26.3392 45.388 26.2197C45.3761 26.1002 45.405 25.9802 45.4698 25.8791L46.4117 24.3431L42.4394 26.6429C42.3589 26.6915 42.2668 26.7177 42.1728 26.7186Z" fill="#F2CF7E"/>
<path d="M42.1963 39.5186C42.0893 39.5189 41.9848 39.487 41.8962 39.427C41.8076 39.3671 41.7391 39.2819 41.6995 39.1826C41.6599 39.0832 41.6512 38.9742 41.6743 38.8698C41.6975 38.7654 41.7515 38.6703 41.8294 38.597L44.3115 36.2503L40.2422 38.597C40.1271 38.6633 39.9915 38.6842 39.8618 38.6558C39.7322 38.6274 39.6177 38.5517 39.5409 38.4434C39.4641 38.3352 39.4305 38.2021 39.4465 38.0704C39.4626 37.9386 39.5272 37.8175 39.6278 37.7309L42.9451 34.8914L39.7654 36.7271C39.6529 36.792 39.5207 36.8136 39.3934 36.7879C39.2662 36.7623 39.1527 36.6911 39.0742 36.5877C38.9957 36.4843 38.9576 36.3559 38.967 36.2264C38.9764 36.097 39.0327 35.9754 39.1254 35.8845L41.9915 33.0631L39.7643 34.3431C39.6617 34.4018 39.5425 34.4248 39.4255 34.4084C39.3084 34.392 39.2002 34.3372 39.1176 34.2526C39.0351 34.168 38.983 34.0584 38.9695 33.941C38.9561 33.8236 38.982 33.705 39.0432 33.6039L40.0032 32.0231C39.8769 32.0779 39.7342 32.0816 39.6052 32.0336C39.4761 31.9855 39.3706 31.8894 39.3108 31.7654C39.251 31.6414 39.2415 31.499 39.2843 31.3681C39.327 31.2372 39.4188 31.1279 39.5403 31.0631L41.2758 30.0605C41.3784 30.0009 41.4981 29.9773 41.6157 29.9935C41.7333 30.0096 41.8422 30.0645 41.9251 30.1494C42.0079 30.2344 42.0601 30.3446 42.0733 30.4626C42.0865 30.5805 42.06 30.6995 41.9979 30.8007L41.0379 32.3709L45.0667 30.0455C45.179 29.9816 45.3107 29.9606 45.4373 29.9865C45.5639 30.0123 45.6769 30.0833 45.7551 30.1862C45.8333 30.289 45.8715 30.4168 45.8626 30.5458C45.8537 30.6747 45.7983 30.796 45.7067 30.8871L42.8438 33.7063L47.4006 31.0759C47.5156 31.0097 47.6512 30.9887 47.7809 31.0171C47.9105 31.0455 48.025 31.1212 48.1018 31.2295C48.1786 31.3378 48.2122 31.4708 48.1962 31.6026C48.1801 31.7343 48.1155 31.8554 48.015 31.9421L44.6966 34.7826L47.696 33.0514C47.8097 32.9823 47.945 32.9581 48.0756 32.9837C48.2061 33.0092 48.3224 33.0826 48.4016 33.1895C48.4808 33.2964 48.5172 33.4289 48.5037 33.5613C48.4902 33.6936 48.4277 33.8161 48.3286 33.9047L45.8464 36.2514L47.696 35.1847C47.7987 35.1262 47.9179 35.1034 48.0349 35.1199C48.152 35.1365 48.2602 35.1914 48.3426 35.2762C48.425 35.3609 48.4769 35.4706 48.4902 35.588C48.5035 35.7055 48.4774 35.824 48.416 35.925L47.4699 37.4642C47.595 37.4219 47.7313 37.4275 47.8525 37.48C47.9736 37.5324 48.071 37.6279 48.1259 37.748C48.1807 37.8681 48.189 38.0043 48.1492 38.1302C48.1094 38.2561 48.0243 38.3628 47.9104 38.4295L46.1888 39.4237C46.0855 39.485 45.9646 39.5096 45.8456 39.4936C45.7266 39.4776 45.6164 39.4219 45.533 39.3355C45.4496 39.2491 45.3977 39.1371 45.3859 39.0176C45.3741 38.8981 45.4029 38.7781 45.4678 38.677L46.4032 37.1581L42.4566 39.4354C42.3786 39.4856 42.2889 39.5143 42.1963 39.5186Z" fill="#F2CF7E"/>
<path d="M42.0362 52.3186C41.9297 52.3188 41.8255 52.2871 41.7371 52.2276C41.6488 52.1681 41.5803 52.0835 41.5404 51.9846C41.5006 51.8858 41.4913 51.7773 41.5137 51.6732C41.5361 51.569 41.5892 51.4739 41.6661 51.4002L44.4586 48.7101L40.0853 51.237C39.9694 51.303 39.8331 51.3231 39.7031 51.2935C39.5731 51.2639 39.4589 51.1867 39.383 51.0771C39.3071 50.9675 39.275 50.8334 39.2931 50.7013C39.3111 50.5692 39.378 50.4487 39.4805 50.3634L42.3061 48.0434L39.7653 49.5069C39.6534 49.5684 39.5232 49.5877 39.3982 49.5613C39.2733 49.5349 39.162 49.4646 39.0845 49.3631C39.0071 49.2616 38.9686 49.1357 38.9761 49.0082C38.9835 48.8808 39.0365 48.7602 39.1253 48.6685L41.9904 45.8087L39.7674 47.0887C39.6642 47.1495 39.5434 47.1737 39.4247 47.1575C39.306 47.1413 39.1962 47.0855 39.113 46.9993C39.0299 46.913 38.9782 46.8013 38.9663 46.6821C38.9544 46.5628 38.9829 46.4431 39.0474 46.3421L39.9861 44.8306C39.8609 44.8727 39.7245 44.8669 39.6034 44.8142C39.4822 44.7615 39.3849 44.6657 39.3304 44.5454C39.2758 44.4251 39.2678 44.2889 39.308 44.163C39.3481 44.0372 39.4335 43.9307 39.5477 43.8642L41.2832 42.8615C41.3864 42.8008 41.5072 42.7766 41.6259 42.7928C41.7446 42.809 41.8544 42.8647 41.9376 42.951C42.0207 43.0373 42.0724 43.149 42.0843 43.2682C42.0962 43.3875 42.0676 43.5072 42.0032 43.6082L41.0752 45.1015L44.9749 42.8562C45.0868 42.7947 45.217 42.7754 45.342 42.8018C45.4669 42.8282 45.5782 42.8985 45.6557 43C45.7331 43.1015 45.7716 43.2274 45.7641 43.3549C45.7567 43.4823 45.7037 43.6029 45.6149 43.6946L42.7488 46.5533L47.392 43.8749C47.5078 43.8089 47.6442 43.7888 47.7742 43.8184C47.9042 43.848 48.0184 43.9252 48.0943 44.0348C48.1702 44.1444 48.2022 44.2785 48.1842 44.4106C48.1661 44.5427 48.0993 44.6632 47.9968 44.7485L45.1712 47.0674L47.697 45.6103C47.8099 45.5424 47.9438 45.5186 48.0731 45.5436C48.2025 45.5685 48.318 45.6404 48.3974 45.7455C48.4769 45.8505 48.5147 45.9812 48.5035 46.1124C48.4924 46.2436 48.4331 46.3661 48.337 46.4562L45.5466 49.1421L47.7024 47.8983C47.8092 47.8373 47.9338 47.815 48.0552 47.8353C48.1765 47.8556 48.2871 47.9172 48.3682 48.0097C48.4493 48.1023 48.496 48.22 48.5002 48.343C48.5044 48.4659 48.466 48.5866 48.3914 48.6845L47.3973 49.9762L47.5178 49.9079C47.6397 49.8442 47.7815 49.83 47.9136 49.8683C48.0458 49.9066 48.1579 49.9945 48.2268 50.1136C48.2956 50.2327 48.3158 50.3738 48.2831 50.5074C48.2503 50.641 48.1673 50.7568 48.0512 50.8306L45.6 52.2429C45.4932 52.304 45.3685 52.3263 45.2472 52.306C45.1258 52.2857 45.0152 52.224 44.9341 52.1315C44.853 52.0389 44.8064 51.9212 44.8021 51.7982C44.7979 51.6753 44.8363 51.5546 44.9109 51.4567L45.904 50.165L42.3029 52.2429C42.2224 52.2917 42.1303 52.3178 42.0362 52.3186Z" fill="#F2CF7E"/>
<path d="M46.9653 63.3138C46.8575 63.314 46.7521 63.2814 46.6631 63.2205C46.5741 63.1595 46.5057 63.073 46.4669 62.9724C46.4281 62.8718 46.4207 62.7617 46.4457 62.6568C46.4707 62.5519 46.5269 62.457 46.6069 62.3847L50.2048 59.1271L47.2309 60.8445C47.1195 60.908 46.9889 60.9293 46.8631 60.9043C46.7373 60.8794 46.6247 60.81 46.5459 60.7088C46.4671 60.6076 46.4274 60.4814 46.4341 60.3533C46.4408 60.2252 46.4935 60.1038 46.5824 60.0114L49.0891 57.4397L47.2693 58.4893C47.1586 58.5527 47.0288 58.5742 46.9034 58.5501C46.7781 58.5259 46.6656 58.4576 46.5864 58.3576C46.5071 58.2575 46.4664 58.1324 46.4715 58.0049C46.4767 57.8774 46.5274 57.7559 46.6144 57.6626L47.4219 56.8018C47.335 56.7593 47.2614 56.6939 47.2089 56.6127C47.1563 56.5316 47.1268 56.4376 47.1235 56.341C47.1202 56.2444 47.1433 56.1487 47.1902 56.0641C47.2371 55.9796 47.3061 55.9094 47.3899 55.861L49.4517 54.6706C49.5624 54.6072 49.6921 54.5856 49.8173 54.6096C49.9426 54.6336 50.0551 54.7018 50.1344 54.8016C50.2137 54.9014 50.2547 55.0264 50.2498 55.1538C50.2449 55.2813 50.1945 55.4027 50.1077 55.4962L49.856 55.7639L51.8965 54.5906C52.008 54.5263 52.1389 54.5044 52.2652 54.5291C52.3915 54.5537 52.5046 54.6231 52.5837 54.7246C52.6628 54.826 52.7026 54.9527 52.6957 55.0811C52.6888 55.2096 52.6357 55.3313 52.5461 55.4237L50.0395 57.9943L54.0075 55.7053C54.121 55.6428 54.2533 55.6238 54.3798 55.6518C54.5063 55.6798 54.6183 55.7529 54.6948 55.8574C54.7714 55.9619 54.8073 56.0907 54.7958 56.2197C54.7843 56.3488 54.7263 56.4692 54.6325 56.5586L49.0763 61.589C49.1394 61.7109 49.1531 61.8524 49.1146 61.9841C49.076 62.1158 48.9882 62.2276 48.8693 62.2962L47.232 63.2423C47.1511 63.2897 47.059 63.3144 46.9653 63.3138Z" fill="#F9F5E6"/>
<path d="M56.2388 5.973C56.1748 3.31913 53.7311 3.5122 51.825 3.5122H49.841V1.59327C49.841 1.24447 49.4463 1.1954 49.1647 1.2274C48.93 1.253 48.2921 1.44073 48.2921 1.77247V3.5122H41.3055V1.47593C41.3055 1.2626 39.761 1.4706 39.761 1.8898V3.5122H32.7743V1.59327C32.7743 1.24447 32.3796 1.19753 32.0991 1.22953C31.8655 1.2562 31.2255 1.44287 31.2255 1.77247V3.5122H24.2452V1.6082C24.2452 1.24127 23.8601 1.14633 23.5508 1.17513C23.2863 1.20073 22.6879 1.4002 22.6879 1.75753V3.5122H15.7108V1.605C15.7108 1.24127 15.3247 1.15487 15.0196 1.18473C14.7604 1.20927 14.1556 1.40553 14.1556 1.76073V3.50473C12.1961 3.46313 9.20948 3.11753 8.09695 4.96927C7.78996 5.61823 7.67345 6.34098 7.76095 7.05353V59.4119C7.76095 61.3543 7.51561 63.7543 10.242 63.8535C12.8297 63.9485 15.4399 63.8535 18.0287 63.8535H45.5466H45.5764C45.6215 63.8561 45.6668 63.8561 45.7119 63.8535C45.9731 63.8264 46.2317 63.7783 46.4852 63.7095C46.9268 63.7223 47.6586 63.5143 47.698 63.1762C48.5133 62.6015 49.2605 61.9359 49.9252 61.1922L54.7338 56.3847C55.1384 56.0094 55.4991 55.5893 55.809 55.1325C55.8745 55.0932 55.9329 55.043 55.9818 54.9842C56.0586 54.8775 56.0383 54.8157 55.9892 54.7709C56.1412 54.4478 56.2265 54.0973 56.2399 53.7405C56.2644 52.9735 56.2399 52.2023 56.2399 51.4354V26.3901C56.2388 19.5911 56.4052 12.7698 56.2388 5.973ZM41.3428 9.05674L41.3535 9.0674C41.3908 9.10794 41.4292 9.1474 41.4655 9.19114C41.5365 9.27688 41.601 9.3678 41.6586 9.46313C41.6586 9.46313 41.7002 9.54313 41.7087 9.55593C41.7279 9.5986 41.746 9.64127 41.762 9.685C41.8294 9.87549 41.8703 10.0743 41.8836 10.2759C41.8825 10.464 41.857 10.6512 41.8079 10.8327C41.7972 10.8594 41.778 10.917 41.777 10.9213C41.7631 10.9554 41.7482 10.9906 41.7322 11.0279C41.7087 11.0781 41.6831 11.1282 41.6553 11.1773C41.6468 11.1922 41.618 11.2349 41.6042 11.2562C41.5573 11.3207 41.5071 11.3826 41.4538 11.4418C41.4282 11.4695 41.4015 11.4951 41.3759 11.5218C41.4986 11.3981 41.3684 11.5218 41.3439 11.5442L41.2543 11.6114L41.2084 11.6423L41.1818 11.6594L41.137 11.6797C41.1263 11.6861 41.0644 11.7117 41.0239 11.7298L40.9684 11.7479C40.9279 11.7597 40.8874 11.7671 40.8458 11.7778H40.8394C40.7903 11.7778 40.7412 11.7863 40.6922 11.7885C40.6744 11.7895 40.6566 11.7895 40.6388 11.7885C40.6047 11.7885 40.5706 11.7885 40.5322 11.7799C40.4938 11.7714 40.4361 11.7639 40.3881 11.7575C40.546 11.7789 40.3754 11.7511 40.3444 11.7415C40.2544 11.7117 40.1664 11.6761 40.081 11.6349C40.2015 11.6903 39.9743 11.5698 39.938 11.5453C39.8668 11.4967 39.7984 11.4439 39.7332 11.3874L39.6895 11.3458C39.6458 11.2967 39.602 11.2498 39.5626 11.1986C39.5046 11.1257 39.4516 11.0491 39.4036 10.9693C39.3908 10.9479 39.3791 10.9245 39.3663 10.9021C39.3663 10.8967 39.3215 10.8039 39.3204 10.7954C39.2467 10.61 39.2003 10.4149 39.1828 10.2162V10.2002V10.1565C39.1828 10.117 39.1828 10.0775 39.1828 10.037C39.1881 9.93997 39.1999 9.8434 39.218 9.74794C39.2276 9.69993 39.2394 9.65194 39.2522 9.605L39.266 9.56447C39.3079 9.45999 39.3552 9.3578 39.4079 9.25834L39.4527 9.18687L39.5018 9.11967C39.5542 9.05482 39.6101 8.99286 39.6692 8.93407L39.698 8.90847C39.7354 8.88074 39.7706 8.85194 39.8047 8.8242L39.8612 8.78687L39.8719 8.78047C39.905 8.7634 39.938 8.74634 39.9722 8.7314L40.0095 8.7122L40.0905 8.68767L40.1972 8.661L40.338 8.6482H40.4447H40.4948C40.5322 8.6482 40.5695 8.65887 40.6015 8.66527C40.61 8.66527 40.6879 8.6834 40.7082 8.6898C40.7615 8.70687 40.8148 8.725 40.8682 8.74634L40.9482 8.78154C40.9791 8.80074 41.0548 8.8434 41.0676 8.85087C41.1651 8.9115 41.2571 8.98038 41.3428 9.05674ZM41.2362 11.6242C41.2223 11.6373 41.206 11.6474 41.1882 11.6541L41.2362 11.6242ZM40.0831 8.6866L40.0287 8.70687C40.0452 8.69646 40.0638 8.68957 40.0831 8.6866ZM32.6676 11.9037L32.6399 11.9229C32.5983 11.9527 32.5546 11.9805 32.5108 12.0071L32.498 12.0135H32.4916H32.4724C32.45 12.0135 32.4234 12.0135 32.4106 12.0135C32.234 12.0074 32.0598 11.9714 31.8954 11.9069C31.5509 11.7684 31.252 11.5364 31.0324 11.237C30.8061 10.9207 30.6738 10.5469 30.6508 10.1587C30.6278 9.77049 30.715 9.38368 30.9023 9.04287C30.9856 8.89442 31.0902 8.75894 31.2127 8.64074C31.2582 8.59321 31.3075 8.54934 31.3599 8.50954L31.4164 8.4722C31.5682 8.53886 31.7354 8.56213 31.8996 8.5394C31.9316 8.5394 31.9839 8.52234 32.0287 8.51274C32.3178 8.61644 32.5794 8.78505 32.7932 9.00562C33.007 9.22618 33.1674 9.49282 33.262 9.78505C33.3567 10.0773 33.3831 10.3873 33.3392 10.6914C33.2954 10.9954 33.1824 11.2853 33.0089 11.5389C32.9132 11.6761 32.7982 11.799 32.6676 11.9037ZM32.514 12.0103C32.5695 11.9773 32.5418 11.9954 32.514 12.0103V12.0103ZM32.4735 12.0317H32.4532H32.4767H32.4735ZM15.7353 9.04287L15.7524 9.061C15.7887 9.1026 15.8281 9.14207 15.8591 9.18474C16.1175 9.49242 16.2658 9.87759 16.2804 10.2791C16.2783 10.4675 16.2528 10.6549 16.2047 10.837C16.1951 10.8637 16.1759 10.9245 16.1748 10.9277C16.1609 10.9629 16.146 10.9981 16.13 11.0343C16.1065 11.0855 16.0809 11.1357 16.0532 11.1847C16.0457 11.1986 16.0169 11.2434 16.0041 11.2658C15.9573 11.3312 15.9067 11.3939 15.8527 11.4535L15.7748 11.5325L15.7641 11.5453C15.7565 11.5485 15.7493 11.5529 15.7428 11.5581C15.7129 11.5783 15.6841 11.6029 15.6543 11.6242C15.6457 11.6295 15.6351 11.6402 15.6244 11.6487C15.5965 11.6666 15.5673 11.6823 15.5369 11.6957L15.4601 11.7309L15.3684 11.7639C15.3289 11.7746 15.2884 11.7831 15.2489 11.7927H15.2393C15.1913 11.7927 15.1401 11.7927 15.0921 11.8034H15.0825C15.0335 11.7981 14.9844 11.7959 14.9353 11.7895L14.8511 11.7767C14.8447 11.7767 14.7636 11.7543 14.7444 11.749C14.69 11.733 14.6377 11.7106 14.5844 11.6925L14.5556 11.6807C14.4802 11.643 14.4071 11.6006 14.3369 11.5538C14.1868 11.4669 14.0581 11.3473 13.9604 11.2039C13.8609 11.082 13.779 10.9466 13.7172 10.8018C13.644 10.6142 13.5987 10.4169 13.5828 10.2162C13.5608 9.87878 13.6395 9.54242 13.8089 9.2498L13.8527 9.17727L13.9017 9.10794C13.9593 9.0354 14.0233 8.96927 14.0873 8.90207L14.0937 8.8946C14.1313 8.86913 14.1669 8.84097 14.2004 8.81034L14.2409 8.7794L14.2676 8.76447C14.3007 8.7474 14.3337 8.73034 14.3679 8.7154L14.4084 8.69514L14.4863 8.6706C14.5193 8.661 14.5535 8.65354 14.5929 8.645C14.6324 8.63647 14.6911 8.63754 14.738 8.6322H14.7529C14.8425 8.63967 14.9321 8.6482 15.0207 8.66314L15.1124 8.6866C15.1668 8.70367 15.2191 8.725 15.2724 8.74314L15.298 8.7506C15.298 8.7506 15.298 8.7506 15.3033 8.7506C15.3609 8.78047 15.4175 8.81247 15.4729 8.84767C15.566 8.90491 15.6538 8.97023 15.7353 9.04287ZM14.4788 8.66954L14.4276 8.68767C14.4434 8.67866 14.4608 8.67286 14.4788 8.6706V8.66954ZM26.8799 63.2455H14.5993C12.6793 63.2455 9.44841 63.8727 9.30548 61.1015C9.21055 59.2477 9.30548 57.3682 9.30548 55.509V7.67967C9.30548 6.469 8.99935 4.1202 10.706 4.1202H14.1556V7.67647C13.5803 7.84101 13.0642 8.16715 12.6687 8.6162C12.3094 9.0274 12.0891 9.54159 12.0393 10.0854C11.9895 10.6292 12.1127 11.1748 12.3913 11.6445C12.7205 12.1289 13.1896 12.5015 13.736 12.7124C14.2824 12.9234 14.8801 12.9628 15.4495 12.8253C16.0911 12.7131 16.6764 12.3885 17.1114 11.9038C17.5465 11.419 17.806 10.8022 17.8484 10.1522C17.8474 9.61171 17.678 9.08497 17.3637 8.64526C17.0494 8.20555 16.6059 7.87474 16.0948 7.69887C15.9694 7.65635 15.841 7.62284 15.7108 7.5986V4.1202H22.6879V7.74687C22.1205 7.90944 21.6101 8.22801 21.2148 8.66634C20.8552 9.06356 20.6325 9.56569 20.5795 10.0989C20.5265 10.6321 20.646 11.1682 20.9204 11.6285C21.2417 12.098 21.6979 12.459 22.2286 12.6639C22.7594 12.8688 23.3398 12.908 23.8932 12.7762C24.5457 12.6846 25.1475 12.3736 25.5996 11.8943C26.0518 11.415 26.3272 10.7961 26.3807 10.1394C26.3816 9.60758 26.2134 9.08923 25.9005 8.65919C25.5876 8.22915 25.1462 7.90967 24.6399 7.74687C24.5107 7.70336 24.3784 7.66949 24.2442 7.64554V4.12553H31.2244V7.95273C30.6318 8.11239 30.0955 8.43412 29.6756 8.8818C29.347 9.25062 29.1475 9.71643 29.1073 10.2087C29.0671 10.7011 29.1883 11.1931 29.4527 11.6103C29.7899 12.0566 30.2563 12.3882 30.7886 12.5599C31.3209 12.7317 31.8932 12.7353 32.4276 12.5703C33.0721 12.4941 33.6705 12.1977 34.1218 11.7313C34.573 11.2649 34.8495 10.657 34.9044 10.0103C34.8911 9.52236 34.7221 9.05142 34.4222 8.66628C34.1223 8.28114 33.7071 8.00197 33.2372 7.86954C33.0858 7.82593 32.9309 7.79559 32.7743 7.77887V4.1202H39.761V7.6562C39.1826 7.82163 38.6642 8.15009 38.2676 8.60234C37.9081 9.01678 37.6883 9.534 37.6394 10.0805C37.5906 10.627 37.7152 11.175 37.9956 11.6466C38.3553 12.146 38.859 12.5235 39.4392 12.7286C40.0194 12.9336 40.6485 12.9565 41.242 12.794C41.8356 12.6316 42.3653 12.2916 42.7603 11.8196C43.1552 11.3476 43.3964 10.7662 43.4516 10.1533C43.4509 9.61006 43.2813 9.08051 42.9664 8.63792C42.6515 8.19533 42.2067 7.86158 41.6938 7.68287C41.5676 7.64 41.4386 7.60613 41.3076 7.58154V4.1202H45.5551C46.4575 4.1202 47.3748 4.09247 48.2943 4.06793V7.92607C47.6993 8.08985 47.1618 8.41641 46.7423 8.869C46.4142 9.24078 46.2155 9.70885 46.1759 10.2031C46.1363 10.6973 46.2579 11.1911 46.5226 11.6103C46.8589 12.0615 47.3259 12.3983 47.8602 12.575C48.3945 12.7517 48.9702 12.7598 49.5092 12.5981C50.1561 12.517 50.7552 12.2152 51.2053 11.7435C51.6554 11.2718 51.9289 10.6593 51.9796 10.0093C51.9666 9.51847 51.7974 9.04461 51.4966 8.65655C51.1958 8.26849 50.7791 7.98645 50.3071 7.8514C50.1569 7.80847 50.0035 7.77779 49.8484 7.75967V4.0434C50.7935 4.0338 51.7364 4.0434 52.6612 4.1202C55.1508 4.33353 54.7018 6.93833 54.7018 8.7154V53.6669C54.7028 54.0001 54.6671 54.3324 54.5951 54.6578C53.1786 54.6439 51.7588 54.6162 50.3455 54.6685C49.4193 54.6542 48.5143 54.9457 47.7705 55.4977C47.0268 56.0498 46.4858 56.8317 46.2313 57.7223C46.1231 58.6302 46.1006 59.5463 46.1642 60.4583V63.2455H26.8799ZM24.4607 11.4322C24.4383 11.4567 24.3999 11.5026 24.4031 11.4994C24.3465 11.5592 24.2867 11.6158 24.2239 11.669L24.2079 11.6807L24.0788 11.765C24.0308 11.7853 23.9807 11.8055 23.9327 11.829H23.9252L23.8665 11.845C23.9369 11.8215 23.7204 11.8514 23.7119 11.861H23.6351C23.586 11.861 23.538 11.8525 23.4889 11.8482L23.4665 11.8407C23.4111 11.8258 23.3599 11.813 23.3001 11.797C23.2905 11.797 23.1199 11.7255 23.2329 11.7746C23.1988 11.7597 23.1647 11.7447 23.1263 11.7277C23.0431 11.6861 22.9626 11.6395 22.8852 11.5879C22.7406 11.4851 22.6119 11.3614 22.5033 11.221C22.2873 10.9376 22.1563 10.5985 22.1257 10.2434C22.0951 9.88835 22.1661 9.53189 22.3305 9.21567C22.3733 9.14189 22.4203 9.07065 22.4713 9.00234L22.5097 8.9554C22.5417 8.92234 22.5727 8.8882 22.6058 8.85514C22.6388 8.82207 22.6772 8.7954 22.7124 8.76234L22.7263 8.7538C22.7583 8.7346 22.7881 8.7122 22.8191 8.69194L22.865 8.66527L22.8927 8.65247C22.9268 8.63967 22.962 8.6226 22.9993 8.60767H23.0111L23.0516 8.6002C23.0621 8.59669 23.0728 8.59384 23.0836 8.59167C23.0942 8.5894 23.1045 8.58618 23.1145 8.58207C23.2022 8.59704 23.2915 8.60098 23.3801 8.5938L23.4228 8.5842H23.4399L23.4665 8.59167C23.522 8.60767 23.5732 8.6194 23.6329 8.6354L23.7236 8.66954C23.818 8.71129 23.9093 8.75977 23.9967 8.8146C24.1474 8.9085 24.2806 9.02798 24.3903 9.16767C24.6549 9.48624 24.8052 9.88434 24.8169 10.2983C24.8265 10.6758 24.718 11.0468 24.5065 11.3597C24.5065 11.3597 24.4788 11.4055 24.4607 11.4322ZM49.7716 11.8546C49.7151 11.8951 49.5466 12.005 49.6575 11.9431C49.6244 11.9613 49.5903 11.9773 49.5583 11.9954L49.5263 12.0029C49.5114 12.0029 49.5156 12.0029 49.5135 12.0029H49.4687C49.2945 11.9975 49.1226 11.9614 48.961 11.8962C48.6099 11.7589 48.3062 11.5229 48.0863 11.2167C47.8641 10.9021 47.7354 10.5311 47.715 10.1464C47.6946 9.76178 47.7834 9.37922 47.9711 9.04287C48.0552 8.89627 48.1601 8.76262 48.2826 8.64607C48.3256 8.5966 48.3764 8.55446 48.4329 8.52127C48.4543 8.50527 48.4756 8.4914 48.498 8.47647C48.4916 8.47647 48.4906 8.48287 48.498 8.47647C48.6463 8.53519 48.8072 8.55466 48.9652 8.533C48.994 8.533 49.042 8.517 49.0815 8.50954C49.4757 8.64884 49.8168 8.9074 50.0575 9.24935C50.2981 9.5913 50.4264 9.99967 50.4244 10.4178C50.4203 10.8136 50.2972 11.1989 50.0714 11.5239C50.0262 11.5851 49.9774 11.6435 49.9252 11.6989C49.8996 11.7255 49.874 11.7522 49.8474 11.7778C49.8527 11.7821 49.7844 11.8418 49.7716 11.8546ZM49.5135 12.0093L49.5487 12.0007H49.5402C49.5311 12.003 49.5222 12.0058 49.5135 12.0093ZM49.8463 60.0093L47.7311 62.1202L47.7055 62.1469C47.7055 60.7847 47.6969 59.4226 47.7055 58.0615C47.713 56.8754 48.4777 55.3874 49.809 55.3661C50.5961 55.3522 51.3844 55.3661 52.1727 55.3661H54.3359C54.2239 55.5692 54.0863 55.7571 53.9263 55.925C52.6026 57.317 51.2052 58.6429 49.8463 60.005V60.0093Z" fill="black"/>
<path d="M23.1114 8.57886C23.1016 8.57989 23.092 8.58204 23.0826 8.58526L23.0506 8.59379C23.0197 8.60872 23.0634 8.61619 23.1114 8.57886Z" fill="black"/>
<path d="M49.5104 12.0029C49.649 11.9442 49.4933 11.9986 49.5104 12.0029V12.0029Z" fill="black"/>
<path d="M42.4767 26.6333H45.5604C45.6646 26.6312 45.7684 26.6205 45.8708 26.6013C46.62 26.5897 47.3367 26.2936 47.8755 25.773C48.4143 25.2525 48.7349 24.5464 48.7722 23.7981C48.7775 22.7965 48.7722 21.7938 48.7722 20.7922C48.8961 19.9199 48.7325 19.0309 48.306 18.2599L49.0527 17.5133L49.7172 16.8487C49.7721 16.7916 49.8113 16.7212 49.8311 16.6444C49.8508 16.5677 49.8505 16.4871 49.83 16.4105C49.8095 16.334 49.7696 16.264 49.7142 16.2073C49.6587 16.1507 49.5896 16.1093 49.5135 16.0871C49.3222 16.0284 49.1182 16.0246 48.9249 16.0763C48.7315 16.128 48.5566 16.233 48.4202 16.3794L47.3044 17.4951C46.5433 17.2733 45.7476 17.1948 44.9578 17.2637C43.9604 17.2637 42.9642 17.2551 41.9711 17.2637C41.1735 17.2015 40.3835 17.456 39.7722 17.9721C39.1609 18.4881 38.7775 19.2243 38.705 20.021C38.6954 20.8871 38.705 21.7543 38.705 22.6205C38.5562 23.5965 38.6856 24.5947 39.0783 25.5005C39.8463 26.7101 41.2202 26.6333 42.4767 26.6333ZM41.0175 18.1661C41.2407 18.0922 41.4777 18.0696 41.7108 18.0999H43.1295C43.9327 18.0999 44.7423 18.0722 45.5455 18.0999C45.8554 18.1082 46.1554 18.2109 46.4052 18.3943L43.7492 21.0503L43.0847 21.7149C43.0298 21.772 42.9906 21.8424 42.9708 21.9192C42.9511 21.9959 42.9515 22.0765 42.972 22.1531C42.9924 22.2296 43.0323 22.2996 43.0878 22.3563C43.1432 22.4129 43.2123 22.4543 43.2884 22.4765C43.4797 22.5352 43.6837 22.539 43.8771 22.4873C44.0704 22.4356 44.2453 22.3306 44.3818 22.1842L47.1146 19.4503C47.1892 19.7035 47.2272 19.9661 47.2276 20.2301V23.4034C47.2276 23.7021 47.2415 24.005 47.2276 24.3037C47.1978 24.8637 46.8522 25.781 46.1748 25.797H42.465C42.2017 25.8132 41.9375 25.8054 41.6756 25.7735C41.3309 25.6907 41.0171 25.5109 40.7714 25.2553C40.5256 24.9997 40.3582 24.6791 40.289 24.3314C40.2398 24.0337 40.223 23.7314 40.2388 23.4301V20.4253C40.2388 19.637 40.1823 18.5906 41.0175 18.1661Z" fill="black"/>
<path d="M48.7763 49.4952C48.7827 48.4765 48.7763 47.4578 48.7763 46.4392C48.8999 45.5469 48.7343 44.6385 48.3038 43.8472L49.0505 43.1005L49.715 42.436C49.7703 42.3814 49.8101 42.3131 49.8304 42.2382C49.8507 42.1632 49.8508 42.0842 49.8306 42.0091C49.8105 41.9341 49.7708 41.8658 49.7156 41.8111C49.6605 41.7564 49.5918 41.7173 49.5166 41.6978C49.3252 41.6416 49.1221 41.6392 48.9295 41.6907C48.7368 41.7423 48.562 41.8459 48.4243 41.9901L47.3385 43.076C46.5657 42.8192 45.7483 42.7248 44.9374 42.7986C43.9401 42.7986 42.9427 42.789 41.9507 42.7986C41.1645 42.7402 40.3862 42.9888 39.7795 43.4923C39.1728 43.9958 38.7849 44.7148 38.6974 45.4984C38.675 46.3912 38.6974 47.2861 38.6974 48.1789C38.5504 49.1754 38.683 50.1931 39.0803 51.1186C39.8569 52.3453 41.2339 52.292 42.5011 52.292H45.5849C45.6958 52.2903 45.8064 52.2792 45.9155 52.2589C46.6516 52.2394 47.3537 51.9449 47.8833 51.4332C48.4129 50.9216 48.7315 50.2301 48.7763 49.4952ZM42.4467 51.3352C42.1747 51.351 41.9018 51.3449 41.6307 51.317C40.5299 51.1325 40.2441 50.0445 40.2441 49.0994V46.0808C40.2441 45.2936 40.1747 44.2258 41.0377 43.8408C41.26 43.7663 41.4958 43.7408 41.7289 43.7661H43.1475C43.9529 43.7661 44.7593 43.7501 45.5646 43.7661C45.8599 43.7716 46.1475 43.8616 46.3934 44.0253L43.7534 46.6642L43.0889 47.3288C43.0336 47.3833 42.9937 47.4516 42.9734 47.5266C42.9531 47.6015 42.953 47.6806 42.9732 47.7556C42.9934 47.8306 43.033 47.8989 43.0882 47.9536C43.1434 48.0083 43.2121 48.0474 43.2873 48.0669C43.4786 48.1231 43.6817 48.1255 43.8744 48.074C44.067 48.0224 44.2418 47.9189 44.3795 47.7746L47.1198 45.0344C47.1903 45.2664 47.2262 45.5076 47.2265 45.7501V48.9501C47.2265 49.2605 47.2414 49.5741 47.2265 49.8834C47.1934 50.4456 46.8382 51.316 46.1598 51.3352H42.4467Z" fill="black"/>
<path d="M49.6851 29.5399C49.907 29.318 49.8665 29.0695 49.5401 29.0002C49.3477 28.9664 49.1503 28.9751 48.9616 29.0255C48.7729 29.076 48.5976 29.1671 48.4478 29.2924L47.4259 30.3143C46.6182 30.0044 45.7489 29.8889 44.8883 29.9772C43.9049 29.9772 42.9203 29.9772 41.9369 29.9772C41.1482 29.9189 40.3679 30.1701 39.7613 30.6775C39.1548 31.1849 38.7697 31.9086 38.6878 32.6951C38.6654 33.6146 38.6878 34.5373 38.6878 35.4578C38.5402 36.4504 38.6848 37.4644 39.1038 38.3762C39.8889 39.5709 41.2489 39.5218 42.5001 39.5218H45.5838C45.6137 39.5218 45.6478 39.5154 45.6798 39.5143C45.7118 39.5133 45.7513 39.5197 45.7811 39.5143C46.5497 39.5205 47.2908 39.2291 47.8495 38.7013C48.4082 38.1734 48.741 37.45 48.7785 36.6823C48.7785 35.6434 48.7785 34.6055 48.7785 33.5666C48.9 32.6671 48.7119 31.753 48.2451 30.9746L49.0195 30.2002L49.6851 29.5399ZM47.2211 32.9853V36.2109C47.2211 37.1495 47.1955 38.4658 45.9678 38.5106H42.4403C42.1602 38.5286 41.8789 38.5226 41.5998 38.4925C40.5161 38.2994 40.2441 37.2391 40.2441 36.3069V33.2882C40.2441 32.4914 40.1833 31.3074 41.1454 31.0215C41.2172 31.0153 41.2885 31.0043 41.3587 30.9885H41.3683H41.7577H43.1998C43.9923 30.9885 44.787 30.9703 45.5795 30.9885C45.8973 30.992 46.206 31.0945 46.4627 31.2818L43.7833 33.9613L43.1187 34.6258C42.8969 34.8477 42.9374 35.0962 43.2638 35.1655C43.4562 35.1993 43.6536 35.1906 43.8423 35.1402C44.0309 35.0897 44.2063 34.9986 44.3561 34.8733L47.0825 32.1469C47.1752 32.4166 47.2221 32.7 47.2211 32.9853Z" fill="black"/>
<path d="M33.3513 17.1858H15.218C14.898 17.1858 14.339 17.2807 14.2046 17.6327C14.082 17.9527 14.3113 18.1799 14.6484 18.1799H32.7817C33.1017 18.1799 33.6606 18.085 33.795 17.733C33.9198 17.4141 33.6884 17.1858 33.3513 17.1858Z" fill="black"/>
<path d="M16.2974 22.2525H16.5619C16.7527 22.2496 16.9423 22.2224 17.1262 22.1714C17.3136 22.1272 17.4933 22.0553 17.6595 21.9581C17.7225 21.9165 17.8729 21.8365 17.843 21.7447C17.8131 21.653 17.6382 21.6487 17.5753 21.6487H15.4419C15.2512 21.6516 15.0615 21.6789 14.8777 21.7298C14.6903 21.7741 14.5105 21.846 14.3443 21.9431C14.2814 21.9847 14.131 22.0647 14.1609 22.1565C14.1907 22.2482 14.3657 22.2525 14.4286 22.2525H16.2974Z" fill="black"/>
<path d="M31.2981 22.3346H32.752C33.0432 22.3346 33.6235 22.2279 33.7781 21.9346C33.9328 21.6413 33.6427 21.5645 33.3813 21.5645H21.648C21.3568 21.5645 20.7765 21.6711 20.6219 21.9645C20.4672 22.2578 20.7573 22.3346 21.0187 22.3346H31.2981Z" fill="black"/>
<path d="M14.8574 26.7495H22.3241C22.6441 26.7495 23.139 26.501 23.1774 26.1458C23.2233 25.7479 22.7582 25.6743 22.4723 25.6743H15.0057C14.6857 25.6743 14.1907 25.9228 14.1523 26.2791C14.1065 26.6802 14.5715 26.7495 14.8574 26.7495Z" fill="black"/>
<path d="M33.3589 30.0146H15.2256C14.9173 30.0146 14.3435 30.1127 14.2091 30.4487C14.0832 30.7687 14.3157 30.9511 14.6411 30.9511H32.7744C33.0827 30.9511 33.6565 30.853 33.7909 30.517C33.92 30.2002 33.6832 30.0146 33.3589 30.0146Z" fill="black"/>
<path d="M17.3694 34.3229H15.2361C15.0281 34.3234 14.8223 34.3648 14.6302 34.4445C14.4668 34.5036 14.3229 34.6066 14.2142 34.7421C14.1566 34.8402 14.1171 34.9629 14.2142 35.0557C14.3317 35.1489 14.4794 35.1956 14.6291 35.1869H16.7625C16.9704 35.1863 17.1763 35.145 17.3683 35.0653C17.5317 35.0062 17.6756 34.9032 17.7843 34.7677C17.8419 34.6695 17.8814 34.5469 17.7843 34.4541C17.6668 34.3608 17.5191 34.3141 17.3694 34.3229Z" fill="black"/>
<path d="M33.1392 34.1992H21.4058C20.5354 34.1992 20.2101 35.3 21.2608 35.3H32.9941C33.8645 35.3 34.1898 34.1992 33.1392 34.1992Z" fill="black"/>
<path d="M15.2351 38.5821C15.044 38.5687 14.8525 38.5996 14.6754 38.6725C14.4983 38.7454 14.3405 38.8583 14.2143 39.0024C14.0361 39.3074 14.3668 39.4504 14.6313 39.4504H22.098C22.289 39.4638 22.4806 39.4328 22.6577 39.3599C22.8348 39.287 22.9926 39.1741 23.1188 39.0301C23.2969 38.725 22.9663 38.5821 22.7017 38.5821H15.2351Z" fill="black"/>
<path d="M17.506 42.9394H15.2596C14.7977 42.9394 13.5828 43.6263 14.6068 43.6263H32.7401C33.202 43.6263 34.4169 42.9394 33.3929 42.9394H17.506Z" fill="black"/>
<path d="M14.8606 48.101H16.9939C17.2041 48.0868 17.4058 48.0128 17.5753 47.8877C17.7159 47.7945 17.814 47.6496 17.8483 47.4845C17.8555 47.4109 17.842 47.3369 17.8094 47.2706C17.7768 47.2042 17.7264 47.1483 17.6638 47.109C17.5036 47.0212 17.3212 46.9819 17.139 46.996H15.0057C14.7955 47.0102 14.5938 47.0842 14.4243 47.2093C14.2837 47.3025 14.1856 47.4474 14.1513 47.6125C14.1441 47.686 14.1576 47.7601 14.1902 47.8264C14.2228 47.8928 14.2732 47.9487 14.3358 47.988C14.496 48.0758 14.6784 48.1151 14.8606 48.101Z" fill="black"/>
<path d="M33.394 47.2125H21.6606C21.3854 47.2125 20.7828 47.3298 20.6292 47.5922C20.4639 47.8749 20.7732 47.8866 21.0057 47.8866H32.7391C33.0143 47.8866 33.6169 47.7693 33.7705 47.5069C33.9359 47.2295 33.6265 47.2125 33.394 47.2125Z" fill="black"/>
<path d="M22.6805 51.301H15.2139C15.02 51.2808 14.8243 51.3122 14.6466 51.392C14.4688 51.4718 14.3153 51.5972 14.2016 51.7554C14.0437 52.0754 14.3392 52.3314 14.6528 52.3314H22.1195C22.3133 52.3517 22.509 52.3203 22.6868 52.2405C22.8645 52.1607 23.018 52.0353 23.1317 51.877C23.2896 51.5602 22.9941 51.301 22.6805 51.301Z" fill="black"/>
</g>
<defs>
<clipPath id="clip0_406_2717">
<rect width="64" height="64" fill="white" transform="translate(0 0.616211)"/>
</clipPath>
</defs>
</svg>
